<svg width="125" height="85" viewBox="0 0 125 85" fill="none" xmlns="http://www.w3.org/2000/svg">
<path d="M9.16489 30.7329L11.7122 31.4955L12.7551 33.1439L14.1285 32.6794L17.3721 32.5762L18.0731 34.1838L19.7707 34.24L24.4463 35.142L25.8397 34.7846L28.7012 34.5342L28.8815 31.1766L30.3812 30.8724L32.1521 31.4123L35.371 33.4574L36.7021 33.888L37.0148 33.2078L36.9901 32.6024L38.0462 32.3035L39.4758 30.6344L38.4475 29.2748L38.3866 28.2195L39.2693 28.1256L42.1093 26.6829L42.7525 26.7299L43.1939 25.9426L43.663 25.4982L43.8047 24.922L44.3632 23.9946L45.5817 23.3807L46.5507 22.4572L48.2484 21.6476L48.1174 21.4065L47.7161 17.8717L48.786 16.9274L49.2112 14.4163L48.4363 13.083L47.8063 11.3637L46.3612 10.7005L45.3892 9.60597L44.4633 7.68645L45.4716 7.09643L45.7889 6.60191L46.2449 6.04501L47.1539 5.73151L46.8003 5.44574L46.5954 4.56378L48.0913 4.30959L48.8785 4.04693L48.6767 3.63483L48.3562 2.46864L48.9809 2.4671L49.383 2.19982L50.3019 1.97259L50.7764 2.09506L50.8642 2.5372L51.9935 2.63117L52.833 2.05732L53.4947 1.4257L54.8835 2.60498L55.4127 3.2936L55.9103 3.60633L56.3817 5.3795L57.2151 5.32249L57.3576 4.49137L56.6598 3.81431L56.8369 3.23275L57.2929 2.47403L59.5714 1.06521L61.9785 0.963535L62.8065 1.52968L63.2579 2.21445L63.7617 4.14398L63.821 5.6853L64.307 5.33097L65.0511 5.50428L66.493 5.51122L67.0438 5.85938L66.8535 6.74904L66.2966 7.58477L65.8237 8.56918L66.6686 8.6362L68.505 8.49678L69.8884 9.49582L70.7395 10.9278L71.7201 11.4477L72.0359 9.88635L73.0842 9.45268L73.625 7.81817L75.506 7.48927L79.0323 7.39221L79.4305 7.81201L79.5514 8.08314L79.5676 9.3849L81.3038 9.80624L81.7613 10.169L82.5732 10.2807L83.3019 10.0142L86.6895 8.17635L87.6816 9.86092L89.1051 11.4107L89.7136 12.4359L89.2576 13.2386L89.1451 15.5463L88.401 16.7348L89.1783 18.3416L91.0908 19.0233L95.4883 19.1458L98.3298 17.1669L99.456 16.885L100.936 17.15L102.665 16.6547L103.425 16.5669L103.873 16.0439L104.647 17.1238L104.693 18.3254L105.287 19.6942L105.587 22.4949L106.97 22.6389L112.756 24.6517L115.28 26.6251L119.615 26.9525L120.028 27.4123L120.453 29.2309L120.795 41.9804L120.075 42.7137L118.685 43.7759L117.731 46.1545L117.779 48.3498L119.48 48.0332L120.426 48.0671L120.781 48.8905L122.378 49.4459L123.884 50.2785L122.741 51.0126L121.44 51.2722L119.349 52.138L118.003 53.1224L117.65 54.2493L117.017 55.4255L116.072 56.5409L113.454 56.1734L110.905 56.6279L110.177 56.4877L109.865 57.2564L110.085 57.8095L110.855 58.9826L111.207 59.8584L111.156 60.3152L111.933 59.9909L112.668 59.112L113.993 59.5796L114.617 60.0764L113.863 60.9861L112.49 62.0991L110.066 62.8894L109.235 63.3477L109.481 64.0779L108.231 64.8082L107.487 65.1109L107.102 65.667L104.721 65.1255L103.636 66.4481L103.597 67.1714L102.987 68.1034L101.811 68.4346L101.276 68.467L100.692 68.869L99.7302 69.3605L99.6177 69.9066L99.7132 70.1939L99.3112 70.6175L99.3743 71.4571L99.9012 71.8145L99.1309 72.5817L97.4202 71.8808L96.8964 72.5425L96.2285 72.7858L96.0005 75.0859L92.2924 74.7239L90.7719 75.0497L90.1534 75.4595L90.1188 74.6122L90.5648 73.9844L90.7943 72.9592L91.0007 71.4672L90.6472 71.1691L91.3235 69.932L89.796 68.4585L89.1629 68.4747L88.7677 67.9147L88.009 67.9925L87.62 67.5742L87.0831 67.4902L86.906 68.0156L85.3831 68.7512L84.0359 71.0689L83.2718 71.4363L82.698 71.907L81.169 72.2929L80.7692 72.6942L80.8616 73.352L80.2662 73.8773L78.8628 74.6784L78.064 74.757L77.5087 75.0959L76.8986 77.2827L76.7068 79.4032L76.2608 78.8541L75.5383 78.2648L73.655 79.0058L72.8216 82.5321L68.3085 84.3884L67.7347 82.6992L68.8008 80.8876L68.032 80.1227L67.6962 79.3008L66.7526 79.2423L63.2594 80.2105L61.8753 80.3653L60.773 80.031L60.9432 78.8001L60.421 78.6191L59.4474 77.2519L58.5038 77.4806L58.2973 76.7058L57.2806 76.9176L56.6128 78.3433L55.8024 79.6805L55.0684 79.6859L54.6586 79.3046L54.8666 80.5979L54.0732 81.1502L52.4733 81.5846L47.7932 80.0526L48.5865 78.0491L49.2513 75.4849L49.524 73.59L49.8282 72.631L50.1309 71.2553L50.2272 68.8575L47.1939 67.6636L45.6711 68.1997L44.2291 68.9591L41.6949 70.6923L36.7722 70.7308L37.346 71.5796L37.6849 73.1047L36.6481 73.8958L34.3589 74.5883L30.7332 75.0967L28.8152 75.87L27.0444 76.8852L25.6625 75.7568L25.0078 74.7031L25.6325 73.607L25.6356 71.8523L24.1212 70.6445L20.0781 71.3293L15.0836 69.6301L13.748 68.6326L12.8021 67.233L11.4164 67.2769L10.8772 66.8363L10.5876 65.4598L9.26811 64.4931L7.60354 64.7727L6.33105 66.6314L4.53248 66.7785L4.35763 62.8078L1.9074 58.5605L2.02602 57.1956L1.49683 56.4176L2.14003 55.4394L2.76702 54.8801L3.12442 54.3933L2.72927 53.9381L2.89951 53.07L3.19529 52.2127L3.46642 49.8364L2.70772 48.3097L0.475464 46.7638L0.668807 45.3989L1.64549 45.4936L4.35378 44.6178L6.48126 42.2616L7.05203 39.2806L7.8223 37.1547L8.94689 35.8314L9.16489 30.7329Z" fill="#A9BDFF" stroke="black" stroke-opacity="0.3" stroke-width="0.5" stroke-linecap="round" stroke-linejoin="round"/>
<circle cx="87.3158" cy="60.8421" r="2.11842" stroke="#1C2434" stroke-width="0.5"/>
<circle cx="87.3158" cy="60.8421" r="0.789474" fill="#1C2434"/>
<path d="M75.4492 55C75.2617 55 75.2005 54.9141 75.2656 54.7422L77.1797 49.7148C77.2604 49.5039 77.3828 49.3984 77.5469 49.3984H78.0938C78.2578 49.3984 78.3802 49.5039 78.4609 49.7148L80.375 54.7422C80.4401 54.9141 80.3789 55 80.1914 55H79.5703C79.3984 55 79.2786 54.9102 79.2109 54.7305L78.8125 53.6797H76.8281L76.4297 54.7305C76.362 54.9102 76.2422 55 76.0703 55H75.4492ZM77.1914 52.7109H78.4492L77.9688 51.4688C77.9115 51.3229 77.8763 51.2174 77.8633 51.1523C77.8529 51.0846 77.8411 50.9857 77.8281 50.8555H77.8125C77.7995 50.9857 77.7865 51.0846 77.7734 51.1523C77.763 51.2174 77.7292 51.3229 77.6719 51.4688L77.1914 52.7109ZM80.8945 54.7266C80.7669 54.6354 80.7318 54.5378 80.7891 54.4336L80.9883 54.0703C81.0586 53.9401 81.168 53.9245 81.3164 54.0234C81.4648 54.1224 81.6393 54.1953 81.8398 54.2422C82.043 54.2891 82.2279 54.3125 82.3945 54.3125C82.5117 54.3125 82.6211 54.3008 82.7227 54.2773C82.8242 54.2539 82.9102 54.2083 82.9805 54.1406C83.0508 54.0729 83.0859 53.974 83.0859 53.8438C83.0859 53.7656 83.0651 53.6992 83.0234 53.6445C82.9818 53.5898 82.9284 53.5482 82.8633 53.5195C82.7982 53.4909 82.7292 53.4674 82.6562 53.4492C82.5599 53.4258 82.4206 53.3867 82.2383 53.332C82.0586 53.2773 81.8854 53.2135 81.7188 53.1406C81.5807 53.0807 81.4453 52.9974 81.3125 52.8906C81.1823 52.7812 81.0859 52.6602 81.0234 52.5273C80.9635 52.3945 80.9336 52.2305 80.9336 52.0352C80.9336 51.7721 81.0091 51.5417 81.1602 51.3438C81.3138 51.1458 81.5117 51.0091 81.7539 50.9336C81.9961 50.8581 82.2982 50.8203 82.6602 50.8203C82.9049 50.8203 83.1432 50.8555 83.375 50.9258C83.6068 50.9961 83.7721 51.0625 83.8711 51.125C84.0273 51.224 84.0664 51.3294 83.9883 51.4414L83.75 51.7891C83.6771 51.8932 83.5599 51.901 83.3984 51.8125C83.276 51.7448 83.1549 51.6901 83.0352 51.6484C82.918 51.6068 82.7865 51.5859 82.6406 51.5859C82.5417 51.5859 82.4466 51.5964 82.3555 51.6172C82.2643 51.638 82.1862 51.6771 82.1211 51.7344C82.0586 51.7917 82.0273 51.8672 82.0273 51.9609C82.0273 52.0599 82.056 52.138 82.1133 52.1953C82.1732 52.25 82.2409 52.2904 82.3164 52.3164C82.3945 52.3424 82.4688 52.3672 82.5391 52.3906C82.6849 52.4375 82.832 52.4831 82.9805 52.5273C83.1289 52.569 83.2799 52.6198 83.4336 52.6797C83.5664 52.7318 83.6953 52.806 83.8203 52.9023C83.9453 52.9987 84.0365 53.1211 84.0938 53.2695C84.151 53.418 84.1797 53.5872 84.1797 53.7773C84.1797 54.0299 84.1042 54.2643 83.9531 54.4805C83.8021 54.6966 83.6029 54.8503 83.3555 54.9414C83.1081 55.0326 82.8203 55.0781 82.4922 55.0781C82.125 55.0781 81.8125 55.0521 81.5547 55C81.2969 54.9479 81.0768 54.8568 80.8945 54.7266ZM84.7695 51.6797C84.6159 51.6797 84.5391 51.6146 84.5391 51.4844V51.0938C84.5391 50.9635 84.6159 50.8984 84.7695 50.8984H85.0352V50.7617C85.0352 50.6445 85.0625 50.5378 85.1172 50.4414L85.418 49.9141C85.4753 49.8151 85.543 49.7656 85.6211 49.7656H85.8945C86.0508 49.7656 86.1289 49.8438 86.1289 50V50.8984H86.7617C86.9154 50.8984 86.9922 50.9635 86.9922 51.0938V51.4844C86.9922 51.6146 86.9154 51.6797 86.7617 51.6797H86.1289V53.6172C86.1289 53.8828 86.1471 54.0742 86.1836 54.1914C86.2227 54.306 86.3216 54.3633 86.4805 54.3633C86.5612 54.3633 86.6523 54.3503 86.7539 54.3242C86.8555 54.2956 86.9349 54.2682 86.9922 54.2422C87.0833 54.2005 87.1432 54.2305 87.1719 54.332L87.2891 54.7773C87.3125 54.8659 87.2786 54.931 87.1875 54.9727C87.1016 55.0117 86.9831 55.0469 86.832 55.0781C86.6836 55.112 86.5339 55.1289 86.3828 55.1289C86.0104 55.1289 85.6927 55.0521 85.4297 54.8984C85.1667 54.7448 85.0352 54.4284 85.0352 53.9492V51.6797H84.7695ZM87.8047 53.9062C87.8047 53.3854 88.0534 53.0078 88.5508 52.7734C89.0482 52.5391 89.6159 52.4141 90.2539 52.3984V52.2422C90.2539 52.0026 90.194 51.8333 90.0742 51.7344C89.9544 51.6354 89.7878 51.5859 89.5742 51.5859C89.4232 51.5859 89.2891 51.6081 89.1719 51.6523C89.0573 51.694 88.957 51.7435 88.8711 51.8008C88.7878 51.8555 88.7122 51.9115 88.6445 51.9688C88.5247 52.0729 88.4258 52.0781 88.3477 51.9844L88.0234 51.5859C87.9427 51.487 87.9622 51.3854 88.082 51.2812C88.1732 51.2005 88.2786 51.1302 88.3984 51.0703C88.5208 51.0104 88.6823 50.9544 88.8828 50.9023C89.0833 50.8477 89.3438 50.8203 89.6641 50.8203C90.2057 50.8203 90.6211 50.9453 90.9102 51.1953C91.2018 51.4453 91.3477 51.8138 91.3477 52.3008V54.7656C91.3477 54.9219 91.2695 55 91.1133 55H90.4727C90.332 55 90.2617 54.9219 90.2617 54.7656V54.6484H90.2539C90.1003 54.7969 89.9154 54.9062 89.6992 54.9766C89.4857 55.0443 89.2891 55.0781 89.1094 55.0781C88.6823 55.0781 88.3581 54.974 88.1367 54.7656C87.9154 54.5547 87.8047 54.2682 87.8047 53.9062ZM88.9609 53.8828C88.9609 53.974 88.9792 54.0534 89.0156 54.1211C89.0521 54.1862 89.1094 54.2344 89.1875 54.2656C89.2656 54.2969 89.3529 54.3125 89.4492 54.3125C89.582 54.3125 89.7109 54.2943 89.8359 54.2578C89.9609 54.2214 90.1003 54.1354 90.2539 54V53.1523C89.8164 53.2018 89.5234 53.2656 89.375 53.3438C89.2266 53.4219 89.1198 53.5026 89.0547 53.5859C88.9922 53.6693 88.9609 53.7682 88.9609 53.8828ZM92.6484 55C92.4922 55 92.4141 54.9219 92.4141 54.7656V51.1328C92.4141 50.9766 92.4922 50.8984 92.6484 50.8984H93.2656C93.4219 50.8984 93.5 50.9766 93.5 51.1328V51.3594H93.5156C93.6354 51.1536 93.7878 51.013 93.9727 50.9375C94.1576 50.8594 94.3802 50.8203 94.6406 50.8203C95.0469 50.8203 95.3828 50.9479 95.6484 51.2031C95.9141 51.4583 96.0469 51.9245 96.0469 52.6016V54.7656C96.0469 54.9219 95.9688 55 95.8125 55H95.1875C95.0312 55 94.9531 54.9219 94.9531 54.7656V52.8828C94.9531 52.3151 94.9141 51.957 94.8359 51.8086C94.7578 51.6602 94.5898 51.5859 94.332 51.5859C94.0586 51.5859 93.8529 51.6927 93.7148 51.9062C93.5768 52.1172 93.5078 52.5573 93.5078 53.2266V54.7656C93.5078 54.9219 93.4297 55 93.2734 55H92.6484ZM96.8828 53.9062C96.8828 53.3854 97.1315 53.0078 97.6289 52.7734C98.1263 52.5391 98.694 52.4141 99.332 52.3984V52.2422C99.332 52.0026 99.2721 51.8333 99.1523 51.7344C99.0326 51.6354 98.8659 51.5859 98.6523 51.5859C98.5013 51.5859 98.3672 51.6081 98.25 51.6523C98.1354 51.694 98.0352 51.7435 97.9492 51.8008C97.8659 51.8555 97.7904 51.9115 97.7227 51.9688C97.6029 52.0729 97.5039 52.0781 97.4258 51.9844L97.1016 51.5859C97.0208 51.487 97.0404 51.3854 97.1602 51.2812C97.2513 51.2005 97.3568 51.1302 97.4766 51.0703C97.599 51.0104 97.7604 50.9544 97.9609 50.9023C98.1615 50.8477 98.4219 50.8203 98.7422 50.8203C99.2839 50.8203 99.6992 50.9453 99.9883 51.1953C100.28 51.4453 100.426 51.8138 100.426 52.3008V54.7656C100.426 54.9219 100.348 55 100.191 55H99.5508C99.4102 55 99.3398 54.9219 99.3398 54.7656V54.6484H99.332C99.1784 54.7969 98.9935 54.9062 98.7773 54.9766C98.5638 55.0443 98.3672 55.0781 98.1875 55.0781C97.7604 55.0781 97.4362 54.974 97.2148 54.7656C96.9935 54.5547 96.8828 54.2682 96.8828 53.9062ZM98.0391 53.8828C98.0391 53.974 98.0573 54.0534 98.0938 54.1211C98.1302 54.1862 98.1875 54.2344 98.2656 54.2656C98.3438 54.2969 98.431 54.3125 98.5273 54.3125C98.6602 54.3125 98.7891 54.2943 98.9141 54.2578C99.0391 54.2214 99.1784 54.1354 99.332 54V53.1523C98.8945 53.2018 98.6016 53.2656 98.4531 53.3438C98.3047 53.4219 98.1979 53.5026 98.1328 53.5859C98.0703 53.6693 98.0391 53.7682 98.0391 53.8828Z" fill="#1C2434"/>
</svg>
