<svg width="148" height="130" viewBox="0 0 148 130" fill="none" xmlns="http://www.w3.org/2000/svg">
<path d="M75.5098 125.79L74.2928 124.97L72.5143 123.771L71.1555 122.855L70.2859 122.268L69.9816 122.061L68.9102 121.338L68.5296 121.169L68.2023 121.138L67.0715 121.463L66.2319 121.706L65.3908 121.95L64.5497 122.194L63.7101 122.436L62.9013 122.677L62.0948 122.917L61.2883 123.156L60.4819 123.397L58.7364 123.932L56.991 124.467L55.2471 125.002L53.5032 125.536L52.1953 125.957L50.8874 126.379L49.5794 126.801L48.27 127.22L46.9621 127.642L45.6542 128.062L44.3478 128.481L43.0383 128.901L42.7502 128.994V128.987L42.7433 128.893L40.4286 113.262L39.4797 110.645L38.7641 109.242L38.4614 107.971L38.1486 106.975L37.0063 105.252L36.662 103.145L25.8128 99.0486L22.9874 96.3796L21.2481 93.8139L20.035 90.7428L18.8865 89.0181L18.9458 86.058L19.9341 78.8737L19.7669 76.455L18.5483 71.2788L17.148 69.6458L17.1857 67.3758L16.6912 64.837L16.0434 62.6048L16.4185 59.9789L16.7297 59.5183L16.8122 58.3776L16.1389 56.0097L14.8842 55.9019L14.2556 55.4004L13.7958 54.6232L13.0286 54.4854L12.457 54.8944L11.8524 55.8857L11.1445 57.7713L5.96983 56.5251L6.2479 55.8141L6.09076 54.7812L6.10924 52.7661L5.71102 50.4176L4.6727 47.8218L3.64438 49.2984L3.08209 48.9679L2.99428 48.3317L1.37748 47.5013L0.408473 46.6148L0.376892 44.4025L1.04164 41.9939L0.969228 40.6729L1.68173 40.4849L2.26175 39.2687L2.9573 38.6116L4.65343 38.1125L5.05166 37.3615L5.76724 37.3107L7.46955 37.4562L9.05322 36.6536L9.09404 35.747L9.67406 34.9783L10.5468 34.1872L11.2955 33.1104L11.4842 31.9257L12.1435 30.5839L12.2991 29.705L12.6627 28.4264L12.2545 27.6045L11.5936 27.1593L10.8842 25.8506L11.0428 23.5544L10.4343 21.3198L11.3556 20.3085L11.5874 19.1985L12.5826 17.5555L12.655 17.5378L13.2235 17.2967L14.0068 16.6197L14.4074 15.9773L14.3696 15.2802L13.8882 13.6849L13.882 13.2228L14.0538 12.3955L14.0438 11.9403L13.976 11.8001L13.7642 11.5574L13.718 11.3834L13.7596 11.1908L13.9845 10.8072L14.0654 10.6192L13.8766 9.74885L13.1149 9.30902L12.3099 9.07177L11.988 8.81066L12.1682 8.61192L12.4309 8.47174L12.588 8.25837L12.2999 7.42263L12.4185 7.1538L12.6827 7.00052L13.8766 6.61308L14.211 6.60845L14.5399 6.70473L14.8341 6.86572L15.3833 7.3818L16.2961 7.83627L16.5688 8.12512L16.9885 8.68664L17.4484 9.16113L19.5905 9.78273L19.807 10.2695L19.7808 11.14L20.0966 11.7076L23.1861 14.6085L23.5204 14.8242L23.7769 14.9073L24.0319 14.8835L24.7282 14.687L25.0956 14.6817L25.4507 14.7849L25.7766 15.029L25.9799 15.3718L26.0924 15.7277L26.2395 16.0204L26.8827 16.2915L27.103 16.5087L27.5297 17.1327L28.1328 17.5686L28.6119 17.3776L29.5971 16.3246L31.9333 15.0152L33.9784 13.2967L34.2742 12.7883L34.7949 10.1247L34.9366 9.60634L35.0884 9.31441L35.3194 9.24509L36.4818 9.77888L36.9062 9.87132L37.2813 9.79352L37.564 9.52778L37.678 9.18424L37.7704 8.37622L37.9722 8.15824L38.6817 8.05194L38.9081 7.7523L38.9066 7.45189L38.7448 6.81411L38.7564 6.48444L38.8889 6.22101L39.1092 5.97452L39.5536 5.61018L39.9673 5.76038L41.2035 7.58053L41.4831 7.70608L42.4837 7.90944L42.7502 7.88094L42.7803 7.63445L42.6832 7.2678L42.4005 6.55222L42.3705 6.12626L42.5692 5.82278L42.8689 5.62404L43.1415 5.51082L43.4835 5.45228L43.71 5.54702L44.2307 5.96682L44.5796 6.0916L44.9486 6.08389L45.3137 5.9776L45.6572 5.80967L46.0092 5.71725L47.1831 5.84281L47.8425 5.68644L48.7568 5.1072L48.9879 5.01707L49.1797 5.15418L49.3615 5.60325L49.4824 6.45901L49.5879 6.84647L49.8128 7.00668L50.1418 7.02054L50.4083 7.09758L50.6401 7.28706L50.8581 7.646L50.9852 8.00573L51.16 8.79217L51.2825 9.14804L51.4974 9.49696L51.7539 9.74885L52.6667 10.2695L53.0141 10.3712L53.3576 10.355L53.6896 10.1702L53.933 9.85205L54.0871 9.51469L54.2673 9.21966L54.5893 9.02556L55.1516 9.09257L56.4495 9.51083L56.9124 9.24663L57.1204 8.59498L57.1289 7.87323L56.9933 6.40895L57.0796 5.594L57.3376 5.07099L57.5594 4.57879L57.9415 4.49945L58.5777 4.88689L58.7996 4.94004H59.5614L59.7401 5.02323L59.8656 5.14956L60.089 5.47615L60.2307 5.51466L60.6244 5.29437L60.8092 5.24199L61.8653 5.06097L61.9608 5.09025L62.0255 5.19423L62.0386 5.33365L62.037 5.46614L62.0555 5.54394L62.3729 5.7858L62.748 5.97452L63.1262 6.00687L63.4466 5.77733L63.6115 5.38064L63.7386 4.90462L63.9103 4.50176L64.21 4.33307L64.5289 4.24834L65.0911 3.9048L65.2999 4.08428L65.7212 4.52642L65.8945 4.81603L65.9408 5.1226L65.9623 5.41376L66.0617 5.66333L66.3413 5.81739L68.0505 5.85667L68.6506 6.13782L69.0904 6.7109L69.1975 7.64292L69.1097 8.05733L68.9556 8.38161L68.7538 8.64274L68.5242 8.87536L68.4149 9.17345L68.4657 9.58555L68.6028 9.98455L68.763 10.2418L69.028 10.2957L69.7336 10.2441L69.8761 10.4675L69.7736 11.3179L69.8129 11.6129L70.0594 11.8632L70.4145 11.8971L70.8297 11.7847L71.2233 11.7492L71.5114 12.0219L71.7432 12.7475L71.8672 13.0125L72.1122 13.2805L73.162 14.0832L73.7089 14.3204L77.4979 14.6585L77.8037 14.7548L78.0317 15.0568L78.1888 15.3857L78.3575 15.5883L78.5562 15.6845L78.7997 15.6961L80.1353 15.3695L80.8493 15.3526L81.4147 15.72L81.6928 16.042L82.4315 16.3424L82.6048 16.4772L82.5632 17.0479L82.2127 17.2066L81.4155 17.0787L81.0465 17.4107L81.0334 17.7389L81.2499 18.0655L82.0386 18.781L82.4885 18.5684L82.9445 18.0916L83.4259 17.6988L84.1353 17.5802L84.8648 17.6195L85.5511 17.487L86.1234 16.8477L86.7304 15.5405L86.909 15.2455L87.3543 14.7125L87.5099 14.4151L87.5723 14.0392L87.4929 13.2682L87.5029 12.8307L87.5807 12.4533L88.1662 10.9897L88.2632 10.8164L88.3888 10.6755L88.9919 10.449L89.8569 10.3805L90.5956 10.6593L90.8174 11.4696L90.8552 12.28L91.161 12.9123L91.6185 13.4053L92.1207 13.7958L92.8879 14.1764L98.7219 14.8788L100.115 14.6539L103.979 13.3406L107.843 12.0258L108.289 11.5829L108.608 10.9112L108.816 9.98763L109.025 8.00033L109.146 7.38951L109.812 3.69298L110.105 2.65927L110.568 2.04151L111.178 1.69951L111.912 1.49617L111.669 1.38909H111.676L112.014 1.37832L114.008 1.25661L114.838 0.662735L115.553 1.9175L115.703 3.11528L116.042 4.37313L117.027 5.78503L118.761 4.78291L120.709 6.34964L120.241 6.97201L119.944 8.42706L121.843 10.5245L120.848 12.6466L120.985 13.9268L121.474 14.4352L122.827 14.392L124.062 19.5575L126.275 24.28L129.023 28.582L129.349 31.3303L128.043 31.824L126.57 31.09L125.127 32.2377L124.393 34.4845L123.019 35.8641L122.368 37.7112L122.926 39.4358L121.096 39.3503L120.502 40.1237L120.704 41.0796L123.375 45.685L121.965 45.8684L120.481 46.5801L121.816 46.986L122.846 49.4594L125.881 53.1127L128.002 53.6835L129.25 53.0034L130.994 53.4347L131.339 54.993L130.977 57.0481L139.794 61.7213L144.106 68.3857L146.78 72.8332L147.358 74.0564L146.001 75.5684L128.359 88.3703L127.109 88.4312L125.503 87.6463L124.185 87.4398L122.885 87.0524L123.128 86.1574L121.067 83.0008L118.984 80.9719L117.283 80.4227L114.64 76.1708L110.66 76.1808L107.217 77.0612L104.165 81.3L102.883 84.7354L99.3682 90.0881L96.2024 89.8408L94.8452 91.1834L94.4384 93.6806L91.0562 94.4801L87.5931 97.0166L84.0698 100.657L76.3132 111.015L75.1216 115.973L75.5098 125.79Z" fill="#A9BDFF" stroke="black" stroke-opacity="0.3" stroke-width="0.5" stroke-linecap="round" stroke-linejoin="round"/>
<path d="M39.4492 31C39.2617 31 39.2005 30.9141 39.2656 30.7422L41.1797 25.7148C41.2604 25.5039 41.3828 25.3984 41.5469 25.3984H42.0938C42.2578 25.3984 42.3802 25.5039 42.4609 25.7148L44.375 30.7422C44.4401 30.9141 44.3789 31 44.1914 31H43.5703C43.3984 31 43.2786 30.9102 43.2109 30.7305L42.8125 29.6797H40.8281L40.4297 30.7305C40.362 30.9102 40.2422 31 40.0703 31H39.4492ZM41.1914 28.7109H42.4492L41.9688 27.4688C41.9115 27.3229 41.8763 27.2174 41.8633 27.1523C41.8529 27.0846 41.8411 26.9857 41.8281 26.8555H41.8125C41.7995 26.9857 41.7865 27.0846 41.7734 27.1523C41.763 27.2174 41.7292 27.3229 41.6719 27.4688L41.1914 28.7109ZM45.2109 31C45.0547 31 44.9766 30.9219 44.9766 30.7656V25.4688C44.9766 25.3125 45.0547 25.2344 45.2109 25.2344H45.8359C45.9922 25.2344 46.0703 25.3125 46.0703 25.4688V28.3398C46.0703 28.444 46.0651 28.5482 46.0547 28.6523H46.0703L47.3086 27.0586C47.3919 26.9518 47.4935 26.8984 47.6133 26.8984H48.2539C48.4935 26.8984 48.5339 26.9948 48.375 27.1875L47.1953 28.6133L48.5625 30.7109C48.6875 30.9036 48.6471 31 48.4414 31H47.7734C47.6432 31 47.5365 30.9323 47.4531 30.7969L46.5664 29.3711L46.0703 29.9688V30.7656C46.0703 30.9219 45.9922 31 45.8359 31H45.2109ZM49.1992 27.6797C49.0456 27.6797 48.9688 27.6146 48.9688 27.4844V27.0938C48.9688 26.9635 49.0456 26.8984 49.1992 26.8984H49.4648V26.7617C49.4648 26.6445 49.4922 26.5378 49.5469 26.4414L49.8477 25.9141C49.9049 25.8151 49.9727 25.7656 50.0508 25.7656H50.3242C50.4805 25.7656 50.5586 25.8438 50.5586 26V26.8984H51.1914C51.3451 26.8984 51.4219 26.9635 51.4219 27.0938V27.4844C51.4219 27.6146 51.3451 27.6797 51.1914 27.6797H50.5586V29.6172C50.5586 29.8828 50.5768 30.0742 50.6133 30.1914C50.6523 30.306 50.7513 30.3633 50.9102 30.3633C50.9909 30.3633 51.082 30.3503 51.1836 30.3242C51.2852 30.2956 51.3646 30.2682 51.4219 30.2422C51.513 30.2005 51.5729 30.2305 51.6016 30.332L51.7188 30.7773C51.7422 30.8659 51.7083 30.931 51.6172 30.9727C51.5312 31.0117 51.4128 31.0469 51.2617 31.0781C51.1133 31.112 50.9635 31.1289 50.8125 31.1289C50.4401 31.1289 50.1224 31.0521 49.8594 30.8984C49.5964 30.7448 49.4648 30.4284 49.4648 29.9492V27.6797H49.1992ZM52.2344 28.9492C52.2344 28.2852 52.4049 27.7643 52.7461 27.3867C53.0898 27.0091 53.6003 26.8203 54.2773 26.8203C54.9544 26.8203 55.4635 27.0091 55.8047 27.3867C56.1484 27.7643 56.3203 28.2852 56.3203 28.9492C56.3203 29.6133 56.1484 30.1341 55.8047 30.5117C55.4635 30.8893 54.9544 31.0781 54.2773 31.0781C53.6003 31.0781 53.0898 30.8893 52.7461 30.5117C52.4049 30.1341 52.2344 29.6133 52.2344 28.9492ZM53.3906 28.9492C53.3906 29.444 53.4661 29.7956 53.6172 30.0039C53.7708 30.2096 53.9909 30.3125 54.2773 30.3125C54.5638 30.3125 54.7826 30.2096 54.9336 30.0039C55.0872 29.7956 55.1641 29.444 55.1641 28.9492C55.1641 28.4544 55.0872 28.1042 54.9336 27.8984C54.7826 27.6901 54.5638 27.5859 54.2773 27.5859C53.9909 27.5859 53.7708 27.6901 53.6172 27.8984C53.4661 28.1042 53.3906 28.4544 53.3906 28.9492ZM57.3984 31C57.2422 31 57.1641 30.9219 57.1641 30.7656V25.4688C57.1641 25.3125 57.2422 25.2344 57.3984 25.2344H58.0234C58.1797 25.2344 58.2578 25.3125 58.2578 25.4688V27.0469C58.2578 27.151 58.2526 27.2552 58.2422 27.3594H58.2578C58.3932 27.1354 58.5443 26.9896 58.7109 26.9219C58.8776 26.8542 59.0781 26.8203 59.3125 26.8203C59.9245 26.8203 60.3542 27.0326 60.6016 27.457C60.8516 27.8789 60.9766 28.3763 60.9766 28.9492C60.9766 29.5221 60.8516 30.0208 60.6016 30.4453C60.3542 30.8672 59.9245 31.0781 59.3125 31.0781C59.0781 31.0781 58.8776 31.0443 58.7109 30.9766C58.5443 30.9089 58.3932 30.763 58.2578 30.5391H58.2422L58.2266 30.7656C58.2161 30.9219 58.1458 31 58.0156 31H57.3984ZM58.2578 29.125C58.2578 29.4766 58.3268 29.763 58.4648 29.9844C58.6055 30.2031 58.7734 30.3125 58.9688 30.3125C59.3203 30.3125 59.5495 30.1901 59.6562 29.9453C59.7656 29.6979 59.8203 29.3659 59.8203 28.9492C59.8203 28.5326 59.7656 28.2018 59.6562 27.957C59.5495 27.7096 59.3203 27.5859 58.9688 27.5859C58.7734 27.5859 58.6055 27.6966 58.4648 27.918C58.3268 28.1367 58.2578 28.4219 58.2578 28.7734V29.125ZM61.6016 28.9492C61.6016 28.2904 61.7656 27.7708 62.0938 27.3906C62.4245 27.0104 62.8906 26.8203 63.4922 26.8203C64.1901 26.8203 64.7083 27 65.0469 27.3594C65.3854 27.7188 65.5547 28.2969 65.5547 29.0938C65.5547 29.25 65.4818 29.3281 65.3359 29.3281H62.7578C62.7995 29.7604 62.9062 30.0326 63.0781 30.1445C63.25 30.2565 63.4492 30.3125 63.6758 30.3125C63.8919 30.3125 64.0573 30.2839 64.1719 30.2266C64.2865 30.1693 64.3828 30.0911 64.4609 29.9922C64.5495 29.8776 64.6589 29.8594 64.7891 29.9375L65.1797 30.1758C65.3333 30.2695 65.3555 30.3815 65.2461 30.5117C65.0872 30.7018 64.901 30.8438 64.6875 30.9375C64.474 31.0312 64.1367 31.0781 63.6758 31.0781C62.9284 31.0781 62.3958 30.888 62.0781 30.5078C61.7604 30.1276 61.6016 29.6081 61.6016 28.9492ZM62.7617 28.5469H64.4609C64.4609 28.2656 64.3906 28.0365 64.25 27.8594C64.1094 27.6797 63.8854 27.5898 63.5781 27.5898C63.3333 27.5898 63.1393 27.6758 62.9961 27.8477C62.8529 28.0169 62.7747 28.25 62.7617 28.5469Z" fill="#1C2434"/>
</svg>
