<svg width="124" height="102" viewBox="0 0 124 102" fill="none" xmlns="http://www.w3.org/2000/svg">
<path d="M118.853 36.22L118.775 36.6445L119.277 37.4355H119.279L119.281 37.4363L119.768 37.6758L121.866 37.9824L123.299 38.584L123.526 38.9722L123.588 39.704L123.553 40.4866L123.284 42.2821L122.874 43.6978L122.239 44.7462L121.347 44.9033L120.672 44.4781L119.478 43.144L118.818 42.6841L118.131 42.6125L117.383 42.802L114.714 44.1577L114.011 44.3356L113.453 44.0683L113.186 43.7587L112.967 43.6139L112.018 43.4629L111.827 43.3266L111.755 43.06L111.739 42.6017L111.656 41.9239L111.429 41.112L111.068 40.512L110.587 40.4758L110.035 40.3156L109.44 40.5852L108.316 41.3963L102.764 43.1471L101.624 43.7872L101.058 43.9959L100.417 44.0075L98.7128 44.6892L98.3454 44.703L97.2031 44.3379L96.5252 44.3502L94.2884 45.1898L93.3217 45.0874L93.0113 45.1282L92.7286 45.3662L92.4675 46.0656L92.2394 46.279L91.8905 46.3298L90.8507 46.2698L89.8524 46.6672L88.8556 46.5016L88.2387 46.5463L87.6571 46.8066L87.1279 47.3127L85.7445 48.5228L85.0952 48.8555L84.8171 49.072L84.6053 49.6659L84.9627 50.1396L86.6804 51.2318L87.3451 51.2935L89.8416 50.7527L90.2106 50.7943L90.4686 50.9237L91.1842 51.493L93.4403 52.3726L93.6652 52.5182L93.7376 52.7731L93.6614 53.0319L93.4411 53.1899L92.5337 53.4025L92.0477 53.6282L91.7619 53.9879L91.7434 54.2051L91.8081 54.3846L92.0607 54.7219L92.1517 54.9661L92.0985 55.1903L91.8836 55.6131L91.5115 57.089L91.4076 57.8877L91.4422 58.5825L92.0022 61.4448L92.0053 62.2066L91.6263 63.6047L91.527 64.3295L91.6132 64.6861L91.8181 64.9534L92.2726 65.4148L92.4328 65.7345L92.5191 66.0634L92.5522 66.4185L92.5568 66.8098V66.8121L92.7024 67.2196L92.9358 67.6671L93.4419 68.4158L95.0926 72.764L96.7432 77.096L96.7071 77.7284L96.4852 78.3245L95.768 79.6348L95.9861 79.9329L96.5098 80.0738L97.0606 80.3488L97.2423 80.6107L97.3448 80.9458L97.391 81.3155L97.4026 81.6868L97.4765 82.0465L97.797 82.6512L97.8709 83.0093L97.7931 83.4176L97.5913 83.7057L97.3132 83.8751L97.0074 83.9314L96.7178 83.8613L96.0099 83.3275L95.4299 83.2997L94.8361 83.5824L93.7469 84.4058L92.5237 84.9296L91.9367 85.314L91.755 85.8439L92.0161 86.3269L92.489 86.7167L93.4442 87.1804L94.0827 87.272L94.3754 87.4392L94.5372 87.7758L94.4548 88.164L94.1489 88.355L93.4434 88.4405L92.3873 88.8364L92.1247 89.0567L91.4584 89.3286L91.2189 89.3564L90.7297 89.2216L90.4948 89.2039L90.2622 89.3456L89.9725 89.8239L89.6637 90.9577L89.4341 91.5162L88.925 92.2957L88.8041 92.5907L88.7524 93.0028L88.8271 93.3017L88.9396 93.5959L89.0636 94.3346L89.2223 94.6265L89.5897 95.165L89.7353 95.4962L89.7569 95.7242L89.676 95.9653L89.5143 96.3358L89.5343 96.5561L89.8485 98.0558L89.9441 98.3554L90.0842 98.6273L90.2791 98.9023L90.5433 100.255L90.4324 100.658L90.2737 100.876L89.733 101.164L89.123 100.803L88.7031 100.237L88.3342 99.5894L87.8728 98.9801L86.967 98.1575L86.4347 97.368L86.2414 97.1415L85.6529 96.7471L82.5618 96.0801L81.9486 96.0569L80.8233 96.2742L79.4907 96.1902L78.7828 95.896L78.4023 95.3806L77.7691 93.864L77.3263 93.3941L76.2217 92.8727L75.7225 92.3681L75.5254 92.0207L75.3813 91.6656L75.3005 91.2805L75.2873 90.843L75.3667 90.1135L75.2627 89.9225L74.9122 89.8208L74.3615 89.9271L73.2738 90.4802L72.7447 90.4617L72.2055 90.2476L71.2827 90.1944L70.1635 89.733L68.4774 89.562L68.2378 89.438L67.7564 89.0336L67.1826 88.697L65.8123 88.2156L64.8833 88.1193L64.2686 88.1655L63.9775 88.2741L63.4714 88.6007L63.2318 88.6916L62.9376 88.6739L62.3653 88.4659L62.0957 88.4166L61.451 88.5091L60.8132 88.4744L59.3158 88.6131L58.6957 88.5083L57.9023 88.0377L57.5911 87.9183L57.2684 87.8813L56.9526 87.9267L56.827 87.9814L56.5952 88.1355L56.2378 88.298L56.0729 88.1802L55.9821 88.0754L55.9243 87.9491L55.8365 87.8366L54.896 87.6094L53.9747 87.5732L53.6836 87.6294L52.951 87.9845L52.7184 87.9791L52.4488 87.8243L52.2047 87.6225L51.9335 87.4777L51.3782 87.4808L50.9899 87.3475L50.775 87.3321L50.5617 87.3791L49.9701 87.6679L49.5126 87.8004L48.1384 87.5678L47.8912 87.5655L47.657 87.5632L47.4274 87.5039L47.2187 87.3367L46.8189 86.7713L46.6649 86.635L46.1889 86.4594L44.6052 86.1921L44.3325 86.0719L44.0598 86.1189L43.506 86.3377L42.889 86.3454L42.6109 86.3908L42.3414 86.5857L42.0455 86.9354L41.9377 87.0001L41.8584 87.007L41.6042 86.9547L41.5002 86.9793L41.4686 87.0494L41.4509 87.1349L41.3931 87.205L40.8578 87.4939L40.5913 87.557L39.9712 87.5416L39.4351 87.7812L39.144 87.8513L38.7773 87.7865L38.0532 87.4777L37.6858 87.4307L37.4262 87.5439L37.0095 87.9506L36.7584 88.0284L36.6244 87.9576L36.4688 87.6533L36.3247 87.5624L36.1576 87.5709L35.8811 87.6987L35.7324 87.7219L34.5324 87.3521H33.266L32.2446 87.1025L31.8811 87.1087L30.9683 87.4191L30.654 87.3983L29.5579 87.0764L29.0126 86.9986L28.2885 87.0563L28.2847 87.0525L27.8202 86.6196L25.1566 86.2298L26.1125 85.5304L24.954 84.5137L23.3272 83.8335L22.1241 82.8507L21.7089 82.1389L21.5217 81.666L21.4077 81.0567L21.1728 80.1801L22.054 78.2868L23.0014 76.9127L21.8259 76.2448L20.5743 76.2402L20.1329 75.6625L19.5837 75.8812L18.4591 75.6101L17.2775 75.1056L20.8354 69.0559L21.4701 67.322L21.5826 65.1668L20.4765 63.7564L19.1031 62.4061L16.7276 61.0405L13.658 60.6068L11.5914 58.6719L10.8504 56.6492L10.6008 53.9409L5.2428 48.998L4.62815 47.7001L4.39167 46.0025L3.03599 45.689L1.67339 45.6535L0.464813 43.7903L0.933162 42.0895L4.38471 41.8723L4.05736 40.9326L3.81241 39.865L3.49662 36.5936L3.85863 31.7987L5.64411 28.2223L13.7035 19.3095L22.6471 13.648L25.9038 13.8414L29.5294 13.4355L33.2275 13.6118L35.5653 14.2473L36.314 14.1479L36.428 14.3213L36.5921 14.3552L36.6614 13.9893L37.8222 14.6686L38.1033 14.9498L38.2404 14.9822L38.2982 14.7434L38.3028 14.4584L38.3213 14.322L38.3775 14.2419L38.49 14.1271L38.6286 14.0224L39.3149 13.722L39.4882 13.7366L40.1992 13.9192L40.4981 13.9246L40.7723 13.816L41.0619 13.561L41.1443 13.732L41.169 13.9307L41.1174 14.1179L40.9672 14.2527L41.1705 14.6209L41.5511 14.8959L42.8505 15.4281L43.6439 15.9049L44.0336 16.0628L43.6778 15.5521L43.0993 14.892L42.6048 14.1926L42.5008 13.5602L42.7072 13.4177L43.0061 13.6011L43.7001 14.4314L43.8272 14.5107L43.992 14.5408L44.1592 14.5269L44.5112 14.4021L45.206 14.3058L45.8129 14.5339L46.3437 15.0422L46.8066 15.7848L46.8282 15.9404L46.7881 16.0659L46.8082 16.1861L47.0053 16.324L47.1656 16.3355L48.1145 16.0936L48.2932 15.8387L48.4334 15.5221L48.6167 15.2309L48.8948 15.0168L49.2222 14.8905L50.3691 14.7772L51.3974 14.4021L51.7987 14.4414L52.0829 14.2658L53.3061 13.7204L53.4664 10.8604L53.045 3.55442L54.0903 2.99983L56.8147 3.45273L58.1673 2.38823L59.5377 1.81746L60.4288 2.75564L62.7335 0.901611L66.7358 3.1585L67.8219 4.15138L69.1722 4.36475L70.1212 5.72349L72.1277 5.95533L73.4703 5.80437L77.1522 6.49301L79.7048 9.93687L87.0632 9.58025L90.5295 10.8882L90.5888 11.7878L91.6803 12.4911L97.6799 15.4166L101.524 16.394L103.086 16.4634L104.008 16.9563L104.399 17.4632L105.966 17.4008L106.479 17.7851L106.536 18.3005L109.197 19.4951L109.794 21.0927L113.505 26.064L114.483 29.2768L115.892 31.2187L116.662 33.5457L116.458 35.5614L118.544 36.3417L118.853 36.22Z" fill="#A9BDFF" stroke="black" stroke-opacity="0.3" stroke-width="0.5" stroke-linecap="round" stroke-linejoin="round"/>
<circle cx="39.7895" cy="75.579" r="2.11842" stroke="#1C2434" stroke-width="0.5"/>
<circle cx="39.7895" cy="75.579" r="0.789474" fill="#1C2434"/>
<path d="M45.3369 77C45.1963 77 45.1504 76.9355 45.1992 76.8066L46.6348 73.0361C46.6953 72.8779 46.7871 72.7988 46.9102 72.7988H47.3203C47.4434 72.7988 47.5352 72.8779 47.5957 73.0361L49.0312 76.8066C49.0801 76.9355 49.0342 77 48.8936 77H48.4277C48.2988 77 48.209 76.9326 48.1582 76.7979L47.8594 76.0098H46.3711L46.0723 76.7979C46.0215 76.9326 45.9316 77 45.8027 77H45.3369ZM46.6436 75.2832H47.5869L47.2266 74.3516C47.1836 74.2422 47.1572 74.1631 47.1475 74.1143C47.1396 74.0635 47.1309 73.9893 47.1211 73.8916H47.1094C47.0996 73.9893 47.0898 74.0635 47.0801 74.1143C47.0723 74.1631 47.0469 74.2422 47.0039 74.3516L46.6436 75.2832ZM49.6582 77C49.541 77 49.4824 76.9414 49.4824 76.8242V73.3643C49.4824 73.2764 49.5029 73.1963 49.5439 73.124L49.7695 72.7285C49.8125 72.6543 49.8633 72.6172 49.9219 72.6172H50.127C50.2441 72.6172 50.3027 72.6758 50.3027 72.793V76.8242C50.3027 76.9414 50.2441 77 50.127 77H49.6582ZM51.2754 77C51.1582 77 51.0996 76.9414 51.0996 76.8242V74.0996C51.0996 73.9824 51.1582 73.9238 51.2754 73.9238H51.7383C51.8555 73.9238 51.9141 73.9824 51.9141 74.0996V74.2695H51.9258C51.9824 74.1445 52.0781 74.0459 52.2129 73.9736C52.3477 73.9014 52.4736 73.8652 52.5908 73.8652C52.8252 73.8652 53.0068 73.9199 53.1357 74.0293C53.2666 74.1387 53.3564 74.2607 53.4053 74.3955H53.417C53.5869 74.1748 53.7402 74.0312 53.877 73.9648C54.0156 73.8984 54.1924 73.8652 54.4072 73.8652C54.6963 73.8652 54.9395 73.9609 55.1367 74.1523C55.3359 74.3438 55.4355 74.6934 55.4355 75.2012V76.8242C55.4355 76.9414 55.377 77 55.2598 77H54.791C54.6738 77 54.6152 76.9414 54.6152 76.8242V75.4121C54.6152 74.9863 54.5859 74.7178 54.5273 74.6064C54.4707 74.4951 54.3691 74.4395 54.2227 74.4395C54.0859 74.4395 53.9609 74.5195 53.8477 74.6797C53.7344 74.8398 53.6777 75.1699 53.6777 75.6699V76.8242C53.6777 76.9414 53.6191 77 53.502 77H53.0332C52.916 77 52.8574 76.9414 52.8574 76.8242V75.4121C52.8574 74.9863 52.8281 74.7178 52.7695 74.6064C52.7129 74.4951 52.6113 74.4395 52.4648 74.4395C52.3281 74.4395 52.2031 74.5195 52.0898 74.6797C51.9766 74.8379 51.9199 75.168 51.9199 75.6699V76.8242C51.9199 76.9414 51.8613 77 51.7441 77H51.2754ZM56.0625 76.1797C56.0625 75.7891 56.249 75.5059 56.6221 75.3301C56.9951 75.1543 57.4209 75.0605 57.8994 75.0488V74.9316C57.8994 74.752 57.8545 74.625 57.7646 74.5508C57.6748 74.4766 57.5498 74.4395 57.3896 74.4395C57.2764 74.4395 57.1758 74.4561 57.0879 74.4893C57.002 74.5205 56.9268 74.5576 56.8623 74.6006C56.7998 74.6416 56.7432 74.6836 56.6924 74.7266C56.6025 74.8047 56.5283 74.8086 56.4697 74.7383L56.2266 74.4395C56.166 74.3652 56.1807 74.2891 56.2705 74.2109C56.3389 74.1504 56.418 74.0977 56.5078 74.0527C56.5996 74.0078 56.7207 73.9658 56.8711 73.9268C57.0215 73.8857 57.2168 73.8652 57.457 73.8652C57.8633 73.8652 58.1748 73.959 58.3916 74.1465C58.6104 74.334 58.7197 74.6104 58.7197 74.9756V76.8242C58.7197 76.9414 58.6611 77 58.5439 77H58.0635C57.958 77 57.9053 76.9414 57.9053 76.8242V76.7363H57.8994C57.7842 76.8477 57.6455 76.9297 57.4834 76.9824C57.3232 77.0332 57.1758 77.0586 57.041 77.0586C56.7207 77.0586 56.4775 76.9805 56.3115 76.8242C56.1455 76.666 56.0625 76.4512 56.0625 76.1797ZM56.9297 76.1621C56.9297 76.2305 56.9434 76.29 56.9707 76.3408C56.998 76.3896 57.041 76.4258 57.0996 76.4492C57.1582 76.4727 57.2236 76.4844 57.2959 76.4844C57.3955 76.4844 57.4922 76.4707 57.5859 76.4434C57.6797 76.416 57.7842 76.3516 57.8994 76.25V75.6143C57.5713 75.6514 57.3516 75.6992 57.2402 75.7578C57.1289 75.8164 57.0488 75.877 57 75.9395C56.9531 76.002 56.9297 76.0762 56.9297 76.1621ZM59.417 74.5098C59.3018 74.5098 59.2441 74.4609 59.2441 74.3633V74.0703C59.2441 73.9727 59.3018 73.9238 59.417 73.9238H59.6162V73.8213C59.6162 73.7334 59.6367 73.6533 59.6777 73.5811L59.9033 73.1855C59.9463 73.1113 59.9971 73.0742 60.0557 73.0742H60.2607C60.3779 73.0742 60.4365 73.1328 60.4365 73.25V73.9238H60.9111C61.0264 73.9238 61.084 73.9727 61.084 74.0703V74.3633C61.084 74.4609 61.0264 74.5098 60.9111 74.5098H60.4365V75.9629C60.4365 76.1621 60.4502 76.3057 60.4775 76.3936C60.5068 76.4795 60.5811 76.5225 60.7002 76.5225C60.7607 76.5225 60.8291 76.5127 60.9053 76.4932C60.9814 76.4717 61.041 76.4512 61.084 76.4316C61.1523 76.4004 61.1973 76.4229 61.2188 76.499L61.3066 76.833C61.3242 76.8994 61.2988 76.9482 61.2305 76.9795C61.166 77.0088 61.0771 77.0352 60.9639 77.0586C60.8525 77.084 60.7402 77.0967 60.627 77.0967C60.3477 77.0967 60.1094 77.0391 59.9121 76.9238C59.7148 76.8086 59.6162 76.5713 59.6162 76.2119V74.5098H59.417ZM61.667 74.1523C61.6143 74 61.6465 73.9238 61.7637 73.9238H62.2881C62.3779 73.9238 62.4365 73.9736 62.4639 74.0732L62.9062 75.7109C62.9277 75.7871 62.9463 75.8857 62.9619 76.0068C62.9795 76.126 62.9883 76.2021 62.9883 76.2354H63.0059C63.0293 76.1318 63.0459 76.0498 63.0557 75.9893C63.0674 75.9268 63.0977 75.8066 63.1465 75.6289L63.5654 74.0732C63.5928 73.9736 63.6514 73.9238 63.7412 73.9238H64.2656C64.3809 73.9238 64.4131 74 64.3623 74.1523L63.375 77.123C63.2598 77.4707 63.1182 77.7422 62.9502 77.9375C62.7822 78.1328 62.5488 78.2305 62.25 78.2305C62.0859 78.2305 61.9395 78.2168 61.8105 78.1895C61.7363 78.1738 61.708 78.123 61.7256 78.0371L61.79 77.7148C61.8076 77.6309 61.8574 77.6016 61.9395 77.627C62 77.6465 62.0566 77.6562 62.1094 77.6562C62.2676 77.6562 62.3877 77.5811 62.4697 77.4307C62.5537 77.2803 62.6094 77.1514 62.6367 77.0439L62.6455 77L61.667 74.1523Z" fill="#1C2434"/>
</svg>
