<svg width="133" height="72" viewBox="0 0 133 72" fill="none" xmlns="http://www.w3.org/2000/svg">
<path d="M1.84504 20.4856L26.9004 24.283L34.2203 26.8195L34.5646 25.2435L40.9024 24.6805L52.2793 16.7351L53.3045 16.4609L53.9893 15.8378L54.7233 15.4942L55.375 15.4588L56.7322 13.6471L58.2727 12.3492L59.7147 12.2283L61.2621 11.659L66.6348 12.3338L67.6862 12.6773L67.8449 13.3328L67.422 14.9874L69.6126 15.8254L70.7318 16.0812L71.9766 16.1174L72.5027 15.4372L77.3824 17.0656L78.2751 16.6357L78.2851 15.7114L78.7319 13.2342L80.8147 9.98293L80.7092 7.45722L82.8004 4.84446L83.5877 5.08555L88.5436 5.06474L90.0649 4.63955L90.5078 4.35225L90.3345 3.73142L90.7034 3.23305L93.4032 0.615662L94.3722 1.50224L95.989 2.3326L96.0768 2.96886L96.6391 3.29929L97.6674 1.82269L98.7058 4.4185L99.104 6.76706L99.0855 8.78208L99.2426 9.81502L98.9646 10.526L104.139 11.7723L104.847 9.88664L105.452 8.89532L106.023 8.4863L106.791 8.62416L107.25 9.40137L107.879 9.90282L109.134 10.0107L109.807 12.3785L109.724 13.5192L109.413 13.9799L109.038 16.6057L109.686 18.838L110.18 21.3768L110.143 23.6468L111.543 25.2797L112.762 30.4559L112.929 32.8746L111.941 40.0589L111.881 43.0191L113.03 44.7437L114.243 47.8147L115.982 50.3805L118.808 53.0495L129.657 57.1458L130.001 59.2525L131.143 60.9756L131.456 61.9715L131.759 63.2433L132.474 64.6459L130.949 63.9188L130.242 63.9481L129.174 63.5221L127.721 63.6238L126.916 63.0623L126.435 62.1888L125.071 62.3474L123.522 61.6203L123.452 59.6707L122.304 58.5469L121.34 59.1447L118.571 56.6752L115.357 59.3873L110.569 59.6322L99.6309 61.8868L99.1579 62.2773L98.3576 62.2165L97.2515 62.577L95.01 65.5695L93.6944 66.9075L94.5786 67.9103L91.4875 69.8222L84.5497 71.563L82.0802 70.9852L82.0779 70.9845L82.2682 70.7588L82.4184 70.6617L82.7627 70.5254L82.889 70.4137L83.3697 69.7313L83.5522 69.3823L83.8187 68.6167L84.0367 68.2185L84.4419 67.7925L84.5644 67.6107L84.6298 67.4389L84.7585 66.9953L84.8486 66.7796L85.1475 66.2373L85.2145 65.9292L85.1467 65.5626V65.6858L85.0804 65.3815L85.1552 65.1227L85.4741 64.6583L85.5934 64.3786L85.6581 64.0482L85.7868 62.6633L86.1935 60.8739V59.4759L85.796 58.4229L85.1621 57.5956L84.4604 56.8701L84.7485 56.9147L85.1667 57.2891L85.4301 57.4224V57.2721L85.1806 57.0873L85.0589 56.7745L85.0535 56.3994L85.1467 56.0312L84.8886 56.1645L84.5751 56.4811L84.2547 56.7137L83.9836 56.5943L83.9589 56.1861L84.1407 55.6423L84.5651 54.788L84.589 55.1631L84.7631 55.3611L85.008 55.378L85.233 55.2024L85.3423 54.9005L85.404 54.1556L85.5172 53.8198L85.6489 54.2296L85.7614 54.1256L85.8715 53.7998L85.994 53.544L86.128 53.4963L86.4484 53.5517L86.5755 53.544L86.7388 53.4524L86.8043 53.3823L86.8613 53.1281L86.9052 52.3339L86.6318 51.8679L86.1958 51.6468L85.7606 51.5922L85.4825 51.4774L85.3939 51.1955L85.4301 50.5461L85.1713 49.1204L84.9102 48.5873L84.8486 48.3254L84.7307 48.2014L84.1322 48.2746L83.8973 48.2623L83.6454 47.9981L83.107 47.1731L82.889 46.999L82.262 47.0129L80.9741 47.2763L80.2016 47.15H78.6294L78.289 47.0607L78.0263 46.9012L77.5433 46.359L77.2984 46.2496L76.4126 46.1078L76.1453 46.1502L76.0121 46.332L75.9574 46.5585L75.9543 47.0737L75.9011 47.2732L75.2695 48.0951L75.0346 48.2992L73.7089 48.7776L73.3292 48.8022L72.8655 48.4649L72.6837 48.4987L72.5705 48.6659L72.6013 48.944L72.693 49.0087L73.0611 49.1527L73.1805 49.2205L73.2683 49.3499L73.3615 49.5456L73.4363 49.772L73.4671 49.9985L73.3839 50.0639L71.62 49.9438L71.2757 49.7766L71.1393 49.6788L71.0507 49.5918L71.003 49.4416L70.9891 49.1566L70.9121 49.1835L70.7403 49.0449L70.2897 48.5604L70.1464 48.471L70.0486 48.3593L70.0194 48.1082L70.0987 47.9719L70.2512 47.8171L70.3629 47.6337L70.3128 47.4142L70.0355 47.3333L69.7867 47.6931L69.5002 48.4572L69.2314 48.5766L68.7885 48.5535L68.3286 48.4341L68.0097 48.2607L68.4503 47.6699L68.5913 47.5405L68.2916 47.4427L67.9512 47.5937L67.3427 47.9834L67.0484 47.9827L66.7519 47.8486L66.4761 47.6222L66.2504 47.3457L65.7135 46.9159L65.5264 46.5677L65.8091 45.6988L65.7806 45.2798L65.5872 44.9671L65.2398 44.9085L64.9671 45.135L64.8424 45.5332L64.763 45.98L64.6221 46.3582L64.3609 46.3905L64.0783 46.0323L63.7162 45.3145L63.4528 45.0503L63.11 44.8792L62.2057 44.7198L61.4247 44.4233L59.6346 44.0289L59.0623 43.6622L58.7056 43.7446L58.0755 44.1991L57.5294 44.4895L55.6877 44.9101L55.4258 45.0672L55.0206 45.6226L54.778 45.7458L54.5739 45.678L54.2604 45.3822L54.1079 45.316L53.9554 45.3822L53.8722 45.5309L53.8575 45.678L53.9169 45.7458L53.8383 45.9299L52.7175 47.854L52.4764 48.0443L52.3355 47.6946L52.3832 47.4574L52.6521 47.0476L52.7168 46.7841L52.6374 46.6478L52.461 46.7587L51.9627 47.2994L51.606 47.5036L51.2309 47.5929L50.9482 47.4789L50.7379 47.4443L50.6586 47.8587L50.6108 48.8184L50.4953 49.1373L50.3112 49.447L50.0832 49.6133L49.839 49.5001L50.0932 49.1396L50.2465 48.8292L50.2088 48.6105L49.8922 48.5288L49.4162 48.6859L49.3199 48.7437L49.1573 48.9109L49.0303 48.8662L48.9255 48.7399L48.468 48.3386L48.3239 48.263L48.2084 48.2338L48.1452 48.2369L48.0751 48.3177L47.9442 48.528L47.4959 49.8421L47.2687 50.0686L47.3341 49.8105L47.3649 49.0965L47.1778 49.2583L47.0691 49.4947L46.9898 49.7397L46.8874 49.9299L46.7895 49.9792L46.5261 50.0139L46.4113 50.0686L46.3104 50.1633L46.248 50.245L45.6519 51.3719L45.3653 51.7046L45.1165 51.6607V51.4666L45.2105 51.2139L45.2559 50.9937L45.1165 50.8997L44.9386 50.9528L44.498 51.2371L43.2501 52.5619L42.8512 53.2552L42.617 53.5479L42.3397 53.6696L41.8151 53.6072L41.621 53.6696L41.4839 53.7797L41.2659 54.0994L41.1458 54.2334L40.6543 54.446L40.5011 54.7472L40.3077 54.7533L39.9056 54.6486L39.7069 54.8365L39.6761 55.2047L39.5944 55.4651L39.2378 55.3264L39.066 55.0314L38.9513 54.9251L38.8057 54.9998V55.4381L38.7579 55.6415L38.6162 55.5475L38.3297 55.1778L38.1456 55.0391L37.9923 55.063L37.9676 55.2201L38.0162 55.7316L37.9923 55.891L37.0864 54.7164L36.8754 54.6055L36.8346 54.9906L36.9347 55.891L36.6736 55.7347L36.528 55.8533L36.4209 56.0944L36.2661 56.3039L36.1506 55.8379L35.9726 55.586L35.1377 55.2132L34.8966 55.0553L34.7425 54.7934L34.7333 54.3721L34.7356 55.0145L34.7787 55.3388L34.9721 55.5806L35.1176 56.099L35.2224 56.3047L35.0653 56.2901L34.8242 56.1814L34.6855 56.1545L34.5615 56.0882L34.5715 55.9326L34.6293 55.7524L34.637 55.6161L34.5815 55.539L34.3058 55.264L34.1725 55.1724L34.0986 55.2602L34.0701 55.4019L34.067 55.4782L33.6218 55.3919L33.1242 55.1993L32.6936 54.9051L32.4471 54.51L32.5534 55.026L33.4685 56.0751L33.6865 56.7191L33.4115 56.6035L32.8962 56.5797L32.8361 56.5935L32.6397 56.337L32.5056 56.0335L32.3423 55.8017L32.0666 55.767V55.8918L32.2984 56.1198L32.3393 56.5465L32.4225 56.9594L32.7837 57.1458L33.306 57.6981L33.3614 57.8799L33.3876 58.0917L33.3691 58.3143L33.306 58.5238L32.7313 58.0932L32.461 57.8198L32.2576 57.5471L32.0635 57.2159L31.9025 57.0087L31.6799 56.9009L31.304 56.8708L31.4604 56.9948L31.5798 57.1196L31.6584 57.3083L31.6853 57.6218L31.75 57.8144L32.2576 58.3736L32.2029 58.4083L32.0666 58.5238L31.8679 58.379L30.7664 58.0232L30.6085 58.0293L30.5338 58.1125L30.5646 58.3205L30.6755 58.4476L30.8234 58.51L30.9666 58.5246L31.1985 58.6995L31.2871 59.083L31.311 59.4659L31.3464 59.6392L31.3556 59.7547L31.3564 59.7563L28.6497 58.2034L27.6268 57.3892L27.0421 56.8023L26.7502 56.6436L26.355 56.6397L26.0115 56.7168L25.6695 56.7021L24.8168 56.0174L24.4594 55.5945L24.0696 55.2625L23.5143 55.1262L22.2302 55.1038L21.7581 54.9082L22.0877 54.4352L21.8628 54.2743L21.7935 53.9916L21.7558 53.6935L21.6271 53.4863L21.1164 53.1766L20.8453 53.0603L20.5811 53.0279L20.9154 52.5689L21.2874 51.5721L21.9984 50.9806L22.8565 50.8042L23.6714 51.0561L23.9595 51.3187L24.1744 51.6499L24.5495 52.4256L24.8915 52.582L27.0244 52.1814L27.4604 51.8294L28.2722 50.8311L23.9595 44.0697L21.8505 38.5692L21.7065 38.0747L21.5563 37.7304L21.3498 37.5825L20.8322 37.5216L20.3346 37.3414L19.9657 37.0009L19.2662 36.0296L19.2609 36.0265L16.662 31.492L15.7985 30.754L14.8495 30.3158L9.34054 30.4005L6.34881 28.9755L6.02529 28.9447L5.77419 29.1326L5.69947 29.4407L5.70794 30.6901L5.61705 31.6452L5.49612 32.0489L5.29277 32.1005L2.70851 30.2973L2.23557 29.8389L2.00217 29.5208L1.94132 29.2782L2.02066 29.0225L2.20398 28.6597L2.30027 28.531L2.39116 28.4625L2.46125 28.3778L2.48821 28.2044L2.442 28.082L1.97213 27.2932L0.988496 26.0638L0.892212 25.8235L1.09017 25.6518L2.18781 24.9701L2.76166 24.4594L2.955 24.0427L2.70235 23.7846L1.94209 23.6999L1.72025 23.4311L1.72719 23.0552L1.83194 22.7009L1.9005 22.3334L1.79343 21.9137L1.70716 21.7819L1.39597 21.4546L1.3251 21.2635L1.41292 21.1234L1.5585 21.0086L1.65093 20.8984L1.83965 20.5025L1.84504 20.4856Z" fill="#A9BDFF" stroke="black" stroke-opacity="0.3" stroke-width="0.5" stroke-linecap="round" stroke-linejoin="round"/>
<path d="M51.8703 31.7895C51.6828 31.7895 51.6216 31.7036 51.6867 31.5317L53.6008 26.5043C53.6815 26.2934 53.8039 26.1879 53.968 26.1879H54.5148C54.6789 26.1879 54.8013 26.2934 54.882 26.5043L56.7961 31.5317C56.8612 31.7036 56.8 31.7895 56.6125 31.7895H55.9914C55.8195 31.7895 55.6997 31.6996 55.632 31.52L55.2336 30.4692H53.2492L52.8508 31.52C52.7831 31.6996 52.6633 31.7895 52.4914 31.7895H51.8703ZM53.6125 29.5004H54.8703L54.3898 28.2582C54.3325 28.1124 54.2974 28.0069 54.2844 27.9418C54.2739 27.8741 54.2622 27.7752 54.2492 27.645H54.2336C54.2206 27.7752 54.2075 27.8741 54.1945 27.9418C54.1841 28.0069 54.1502 28.1124 54.093 28.2582L53.6125 29.5004ZM57.2609 28.4692C57.1073 28.4692 57.0305 28.4041 57.0305 28.2739V27.8832C57.0305 27.753 57.1073 27.6879 57.2609 27.6879H57.5266V27.5512C57.5266 27.434 57.5539 27.3273 57.6086 27.2309L57.9094 26.7036C57.9667 26.6046 58.0344 26.5551 58.1125 26.5551H58.3859C58.5422 26.5551 58.6203 26.6332 58.6203 26.7895V27.6879H59.2531C59.4068 27.6879 59.4836 27.753 59.4836 27.8832V28.2739C59.4836 28.4041 59.4068 28.4692 59.2531 28.4692H58.6203V30.4067C58.6203 30.6723 58.6385 30.8637 58.675 30.9809C58.7141 31.0955 58.813 31.1528 58.9719 31.1528C59.0526 31.1528 59.1437 31.1398 59.2453 31.1137C59.3469 31.0851 59.4263 31.0577 59.4836 31.0317C59.5747 30.99 59.6346 31.02 59.6633 31.1215L59.7805 31.5668C59.8039 31.6554 59.77 31.7205 59.6789 31.7621C59.593 31.8012 59.4745 31.8364 59.3234 31.8676C59.175 31.9015 59.0252 31.9184 58.8742 31.9184C58.5018 31.9184 58.1841 31.8416 57.9211 31.6879C57.6581 31.5343 57.5266 31.2179 57.5266 30.7387V28.4692H57.2609ZM60.2609 27.9926C60.1906 27.7895 60.2336 27.6879 60.3898 27.6879H61.0891C61.2088 27.6879 61.287 27.7543 61.3234 27.8871L61.9133 30.0707C61.9419 30.1723 61.9667 30.3038 61.9875 30.4653C62.0109 30.6241 62.0226 30.7257 62.0226 30.77H62.0461C62.0773 30.6319 62.0995 30.5226 62.1125 30.4418C62.1281 30.3585 62.1685 30.1983 62.2336 29.9614L62.7922 27.8871C62.8286 27.7543 62.9068 27.6879 63.0266 27.6879H63.7258C63.8794 27.6879 63.9224 27.7895 63.8547 27.9926L62.5383 31.9536C62.3846 32.4171 62.1958 32.7791 61.9719 33.0395C61.7479 33.2999 61.4367 33.4301 61.0383 33.4301C60.8195 33.4301 60.6242 33.4119 60.4523 33.3754C60.3534 33.3546 60.3156 33.2869 60.3391 33.1723L60.425 32.7426C60.4484 32.6306 60.5148 32.5916 60.6242 32.6254C60.7049 32.6515 60.7805 32.6645 60.8508 32.6645C61.0617 32.6645 61.2219 32.5642 61.3312 32.3637C61.4432 32.1632 61.5174 31.9913 61.5539 31.8481L61.5656 31.7895L60.2609 27.9926ZM64.6164 31.7895C64.4601 31.7895 64.382 31.7114 64.382 31.5551V27.9223C64.382 27.7661 64.4601 27.6879 64.6164 27.6879H65.2336C65.3898 27.6879 65.468 27.7661 65.468 27.9223V28.2426H65.4836C65.5513 28.0759 65.6646 27.9288 65.8234 27.8012C65.9823 27.6736 66.1698 27.6098 66.3859 27.6098C66.5344 27.6098 66.6568 27.628 66.7531 27.6645C66.8443 27.6983 66.8794 27.7608 66.8586 27.852L66.7492 28.3168C66.7258 28.421 66.6555 28.4523 66.5383 28.4106C66.4706 28.3871 66.4055 28.3754 66.343 28.3754C66.093 28.3754 65.8859 28.5252 65.7219 28.8246C65.5578 29.1241 65.4758 29.5603 65.4758 30.1332V31.5551C65.4758 31.7114 65.3976 31.7895 65.2414 31.7895H64.6164ZM67.2336 30.6957C67.2336 30.1749 67.4823 29.7973 67.9797 29.5629C68.4771 29.3286 69.0448 29.2036 69.6828 29.1879V29.0317C69.6828 28.7921 69.6229 28.6228 69.5031 28.5239C69.3833 28.4249 69.2167 28.3754 69.0031 28.3754C68.8521 28.3754 68.718 28.3976 68.6008 28.4418C68.4862 28.4835 68.3859 28.533 68.3 28.5903C68.2167 28.645 68.1411 28.7009 68.0734 28.7582C67.9536 28.8624 67.8547 28.8676 67.7766 28.7739L67.4523 28.3754C67.3716 28.2765 67.3911 28.1749 67.5109 28.0707C67.6021 27.99 67.7075 27.9197 67.8273 27.8598C67.9497 27.7999 68.1112 27.7439 68.3117 27.6918C68.5122 27.6371 68.7726 27.6098 69.093 27.6098C69.6346 27.6098 70.05 27.7348 70.3391 27.9848C70.6307 28.2348 70.7766 28.6033 70.7766 29.0903V31.5551C70.7766 31.7114 70.6984 31.7895 70.5422 31.7895H69.9016C69.7609 31.7895 69.6906 31.7114 69.6906 31.5551V31.4379H69.6828C69.5292 31.5864 69.3443 31.6957 69.1281 31.7661C68.9146 31.8338 68.718 31.8676 68.5383 31.8676C68.1112 31.8676 67.787 31.7634 67.5656 31.5551C67.3443 31.3442 67.2336 31.0577 67.2336 30.6957ZM68.3898 30.6723C68.3898 30.7634 68.4081 30.8429 68.4445 30.9106C68.481 30.9757 68.5383 31.0239 68.6164 31.0551C68.6945 31.0864 68.7818 31.102 68.8781 31.102C69.0109 31.102 69.1398 31.0838 69.2648 31.0473C69.3898 31.0108 69.5292 30.9249 69.6828 30.7895V29.9418C69.2453 29.9913 68.9523 30.0551 68.8039 30.1332C68.6555 30.2114 68.5487 30.2921 68.4836 30.3754C68.4211 30.4588 68.3898 30.5577 68.3898 30.6723ZM71.8351 30.0864V27.9223C71.8351 27.7661 71.9133 27.6879 72.0695 27.6879H72.6945C72.8508 27.6879 72.9289 27.7661 72.9289 27.9223V29.8051C72.9289 30.3728 72.968 30.7309 73.0461 30.8793C73.1242 31.0278 73.2883 31.102 73.5383 31.102C73.8039 31.102 74.0057 30.9965 74.1437 30.7856C74.2818 30.572 74.3508 30.1306 74.3508 29.4614V27.9223C74.3508 27.7661 74.4289 27.6879 74.5851 27.6879H75.2101C75.3664 27.6879 75.4445 27.7661 75.4445 27.9223V31.5551C75.4445 31.7114 75.3664 31.7895 75.2101 31.7895H74.593C74.4367 31.7895 74.3586 31.7114 74.3586 31.5551V31.3286H74.343C74.2232 31.5343 74.0708 31.6762 73.8859 31.7543C73.701 31.8299 73.4823 31.8676 73.2297 31.8676C72.8312 31.8676 72.4992 31.74 72.2336 31.4848C71.968 31.2296 71.8351 30.7634 71.8351 30.0864Z" fill="#1C2434"/>
</svg>
