<svg width="212" height="114" viewBox="0 0 212 114" fill="none" xmlns="http://www.w3.org/2000/svg">
<path d="M76.685 18.1033L76.346 16.5781L75.7722 15.7293L80.695 15.6908L83.2292 13.9577L84.6711 13.1982L86.1939 12.6621L89.2273 13.856L89.131 16.2539L88.8283 17.6296L88.524 18.5885L88.2513 20.4834L87.5866 23.0476L86.7932 25.0511L91.4734 26.5832L93.0732 26.1488L93.8666 25.5965L93.6586 24.3032L94.0684 24.6845L94.8025 24.6791L95.6128 23.3419L96.2806 21.9161L97.2974 21.7043L97.5038 22.4792L98.4474 22.2504L99.421 23.6176L99.9433 23.7986L99.773 25.0295L100.875 25.3638L102.259 25.209L105.753 24.2408L106.696 24.2993L107.032 25.1212L107.801 25.8861L106.735 27.6978L107.309 29.387L111.822 27.5306L112.655 24.0043L114.538 23.2633L115.261 23.8526L115.707 24.4018L115.899 22.2812L116.509 20.0944L117.064 19.7555L117.863 19.6769L119.266 18.8759L119.862 18.3505L119.769 17.6927L120.169 17.2914L121.698 16.9055L122.272 16.4349L123.036 16.0674L124.383 13.7497L125.906 13.0141L126.083 12.4888L126.62 12.5727L127.009 12.991L127.768 12.9132L128.163 13.4732L128.796 13.457L130.323 14.9305L129.647 16.1676L130.001 16.4657L129.794 17.9577L129.565 18.9829L129.119 19.6107L129.153 20.458L129.772 20.0482L131.292 19.7224L135.001 20.0844L135.229 17.7844L135.896 17.541L136.42 16.8793L138.131 17.5803L138.901 16.8131L138.374 16.4557L138.311 15.6161L138.713 15.1924L138.618 14.9051L138.73 14.359L139.692 13.8676L140.276 13.4655L140.811 13.4331L141.987 13.1019L142.597 12.1699L142.636 11.4466L143.721 10.124L146.102 10.6655L146.487 10.1094L147.231 9.80669L148.481 9.07648L148.235 8.34626L149.066 7.88795L151.491 7.09765L152.863 5.98461L153.617 5.07492L152.993 4.57809L151.668 4.11054L150.933 4.98943L150.156 5.3137L150.207 4.85693L149.855 3.98114L149.085 2.80802L148.865 2.25496L149.177 1.48623L149.905 1.62642L152.454 1.17196L155.072 1.53938L159.541 3.27635L159.927 4.24303L160.255 5.38148L160.383 6.40364L160.01 7.57444L159.526 11.6338L158.868 11.9611L159.042 13.5795L158.698 15.0661L160.212 16.5288L163.531 16.0921L164.612 15.7539L165.345 15.1893L165.757 15.6577L166.705 15.8841L168.277 16.5989L168.11 18.3621L169.05 19.4112L170.344 18.255L171.798 19.6823L172.317 19.7455L173.031 20.6336L173.503 21.581L173.174 21.9585L174.117 23.2348L175.278 24.1568L173.777 25.3038L172.329 25.9693L172.061 26.5547L171.482 27.1871L172.322 28.6298L173.566 29.0496L176.851 27.0292L178.26 25.8514L182.164 25.8614L182.969 24.8601L184.126 25.2052L189.452 24.2408L191.144 24.9602L192.098 23.291L192.721 23.2317L193.582 22.7911L195.121 22.6625L196.82 23.2872L197.152 20.77L197.627 18.4622L200.652 15.2617L202.593 15.3896L203.793 16.6398L206.569 17.5749L209.636 19.08L210.271 20.6613L210.099 22.7981L210.308 24.1098L211.157 24.7145L210.285 26.3999L207.188 29.4116L205.548 30.1973L204.351 30.5416L203.639 31.2826L203.518 31.8079L203.635 32.5412L203.709 33.4263L203.664 34.5347L203.292 36.7685L200.54 38.9044L197.711 40.0591L195.769 43.0385L196.637 44.512L198.206 45.3916L199.585 46.8582L199.644 47.7302L201.581 49.4094L200.644 50.3545L199.333 50.9068L199.371 53.4487L200.535 54.6703L203.653 54.2821L205.973 54.4215L206.141 56.5867L205.869 57.6851L205.776 58.7142L204.524 60.1585L202.7 61.2993L201.223 61.3794L200.765 62.1111L200.538 63.0347L199.907 63.533L200.271 64.2178L201.362 64.8556L201.709 65.6705L203.124 65.773L204.393 66.3291L203.01 66.8806L203.323 68.4443L204.976 69.4279L206.643 70.0518L204.715 71.1248L204.178 72.9288L203.222 74.4439L201.936 79.2858L202.298 79.748L202.608 80.7809L203.166 83.349L200.683 84.0538L200.718 84.838L200.435 85.9587L199.861 86.7914L199.21 87.1234L199.978 87.5886L201.739 89.5266L204.622 90.31L205.348 88.7771L209.041 88.5537L209.463 95.8597L209.302 98.7198L208.079 99.2651L207.795 99.4407L207.394 99.4015L206.365 99.7766L205.218 99.8898L204.891 100.016L204.613 100.23L204.43 100.521L204.289 100.838L204.111 101.093L203.162 101.335L203.002 101.323L202.804 101.185L202.784 101.065L202.824 100.94L202.803 100.784L202.34 100.042L201.809 99.5332L201.202 99.3052L200.507 99.4015L200.155 99.5262L199.988 99.5401L199.823 99.5101L199.696 99.4307L199.002 98.6004L198.703 98.417L198.497 98.5595L198.601 99.1919L199.096 99.8913L199.674 100.551L200.03 101.062L199.64 100.904L198.847 100.427L197.547 99.8952L197.167 99.6202L196.963 99.252L197.114 99.1172L197.165 98.9301L197.141 98.7313L197.058 98.5603L196.769 98.8153L196.494 98.9239L196.195 98.9185L195.485 98.7359L195.311 98.7213L194.625 99.0217L194.486 99.1265L194.374 99.2412L194.318 99.3214L194.299 99.4577L194.294 99.7427L194.237 99.9815L194.1 99.9491L193.818 99.668L192.658 98.9886L192.588 99.3545L192.424 99.3206L192.31 99.1473L191.562 99.2466L189.224 98.6112L185.526 98.4348L181.9 98.8407L178.643 98.6474L169.7 104.309L161.64 113.222L91.6759 113.601L65.2303 113.185L64.8405 111.194L63.4324 111.073L61.087 111.214L41.1909 106.499L38.2515 105.089L34.8677 102.05L33.6561 101.927L16.9844 95.1796L16.5592 94.7991L15.7835 95.0286L13.9433 94.8553L10.4502 93.1938L8.48984 92.9204L4.86956 90.4933L0.708557 91.1495L0.95197 90.2545L3.35751 88.372L20.9998 75.57L22.357 74.058L21.7785 72.8348L19.1049 68.3873L22.4356 65.2985L22.5426 63.1394L25.5398 61.5735L27.1535 61.0405L26.5419 59.5746L26.6805 58.447L26.5781 57.8562L28.2342 57.7907L29.8625 53.9131L34.4695 53.1459L40.788 54.0772L43.7274 53.461L45.0284 51.8573L46.8994 50.8629L49.6485 50.4862L54.4942 46.0587L56.0833 45.558L56.7712 43.4814L58.3733 42.8243L59.6034 41.1166L68.7111 32.6968L72.0171 28.4611L72.098 27.3488L71.8484 26.7511L71.9694 26.4707L72.1034 26.2173L71.9216 25.7806L71.9262 25.001L72.7581 24.6221L76.8559 23.3642L78.274 21.9076L79.1452 20.1522L77.7302 19.1801L77.1433 18.4029L76.685 18.1033Z" fill="#D9D9D9"/>
<path d="M76.685 18.1033L76.346 16.5781L75.7722 15.7293L80.695 15.6908L83.2292 13.9577L84.6711 13.1982L86.1939 12.6621L89.2273 13.856L89.131 16.2539L88.8283 17.6296L88.524 18.5885L88.2513 20.4834L87.5866 23.0476L86.7932 25.0511L91.4734 26.5832L93.0732 26.1488L93.8666 25.5965L93.6586 24.3032L94.0684 24.6845L94.8025 24.6791L95.6128 23.3419L96.2806 21.9161L97.2974 21.7043L97.5038 22.4792L98.4474 22.2504L99.421 23.6176L99.9433 23.7986L99.773 25.0295L100.875 25.3638L102.259 25.209L105.753 24.2408L106.696 24.2993L107.032 25.1212L107.801 25.8861L106.735 27.6978L107.309 29.387L111.822 27.5306L112.655 24.0043L114.538 23.2633L115.261 23.8526L115.707 24.4018L115.899 22.2812L116.509 20.0944L117.064 19.7555L117.863 19.6769L119.266 18.8759L119.862 18.3505L119.769 17.6927L120.169 17.2914L121.698 16.9055L122.272 16.4349L123.036 16.0674L124.383 13.7497L125.906 13.0141L126.083 12.4888L126.62 12.5727L127.009 12.991L127.768 12.9132L128.163 13.4732L128.796 13.457L130.323 14.9305L129.647 16.1676L130.001 16.4657L129.794 17.9577L129.565 18.9829L129.119 19.6107L129.153 20.458L129.772 20.0482L131.292 19.7224L135.001 20.0844L135.229 17.7844L135.896 17.541L136.42 16.8793L138.131 17.5803L138.901 16.8131L138.374 16.4557L138.311 15.6161L138.713 15.1924L138.618 14.9051L138.73 14.359L139.692 13.8676L140.276 13.4655L140.811 13.4331L141.987 13.1019L142.597 12.1699L142.636 11.4466L143.721 10.124L146.102 10.6655L146.487 10.1094L147.231 9.80669L148.481 9.07648L148.235 8.34626L149.066 7.88795L151.491 7.09765L152.863 5.98461L153.617 5.07492L152.993 4.57809L151.668 4.11054L150.933 4.98943L150.156 5.3137L150.207 4.85693L149.855 3.98114L149.085 2.80802L148.865 2.25496L149.177 1.48623L149.905 1.62642L152.454 1.17196L155.072 1.53938L159.541 3.27635L159.927 4.24303L160.255 5.38148L160.383 6.40364L160.01 7.57444L159.526 11.6338L158.868 11.9611L159.042 13.5795L158.698 15.0661L160.212 16.5288L163.531 16.0921L164.612 15.7539L165.345 15.1893L165.757 15.6577L166.705 15.8841L168.277 16.5989L168.11 18.3621L169.05 19.4112L170.344 18.255L171.798 19.6823L172.317 19.7455L173.031 20.6336L173.503 21.581L173.174 21.9585L174.117 23.2348L175.278 24.1568L173.777 25.3038L172.329 25.9693L172.061 26.5547L171.482 27.1871L172.322 28.6298L173.566 29.0496L176.851 27.0292L178.26 25.8514L182.164 25.8614L182.969 24.8601L184.126 25.2052L189.452 24.2408L191.144 24.9602L192.098 23.291L192.721 23.2317L193.582 22.7911L195.121 22.6625L196.82 23.2872L197.152 20.77L197.627 18.4622L200.652 15.2617L202.593 15.3896L203.793 16.6398L206.569 17.5749L209.636 19.08L210.271 20.6613L210.099 22.7981L210.308 24.1098L211.157 24.7145L210.285 26.3999L207.188 29.4116L205.548 30.1973L204.351 30.5416L203.639 31.2826L203.518 31.8079L203.635 32.5412L203.709 33.4263L203.664 34.5347L203.292 36.7685L200.54 38.9044L197.711 40.0591L195.769 43.0385L196.637 44.512L198.206 45.3916L199.585 46.8582L199.644 47.7302L201.581 49.4094L200.644 50.3545L199.333 50.9068L199.371 53.4487L200.535 54.6703L203.653 54.2821L205.973 54.4215L206.141 56.5867L205.869 57.6851L205.776 58.7142L204.524 60.1585L202.7 61.2993L201.223 61.3794L200.765 62.1111L200.538 63.0347L199.907 63.533L200.271 64.2178L201.362 64.8556L201.709 65.6705L203.124 65.773L204.393 66.3291L203.01 66.8806L203.323 68.4443L204.976 69.4279L206.643 70.0518L204.715 71.1248L204.178 72.9288L203.222 74.4439L201.936 79.2858L202.298 79.748L202.608 80.7809L203.166 83.349L200.683 84.0538L200.718 84.838L200.435 85.9587L199.861 86.7914L199.21 87.1234L199.978 87.5886L201.739 89.5266L204.622 90.31L205.348 88.7771L209.041 88.5537L209.463 95.8597L209.302 98.7198L208.079 99.2651L207.795 99.4407L207.394 99.4015L206.365 99.7766L205.218 99.8898L204.891 100.016L204.613 100.23L204.43 100.521L204.289 100.838L204.111 101.093L203.162 101.335L203.002 101.323L202.804 101.185L202.784 101.065L202.824 100.94L202.803 100.784L202.34 100.042L201.809 99.5332L201.202 99.3052L200.507 99.4015L200.155 99.5262L199.988 99.5401L199.823 99.5101L199.696 99.4307L199.002 98.6004L198.703 98.417L198.497 98.5595L198.601 99.1919L199.096 99.8913L199.674 100.551L200.03 101.062L199.64 100.904L198.847 100.427L197.547 99.8952L197.167 99.6202L196.963 99.252L197.114 99.1172L197.165 98.9301L197.141 98.7313L197.058 98.5603L196.769 98.8153L196.494 98.9239L196.195 98.9185L195.485 98.7359L195.311 98.7213L194.625 99.0217L194.486 99.1265L194.374 99.2412L194.318 99.3214L194.299 99.4577L194.294 99.7427L194.237 99.9815L194.1 99.9491L193.818 99.668L192.658 98.9886L192.588 99.3545L192.424 99.3206L192.31 99.1473L191.562 99.2466L189.224 98.6112L185.526 98.4348L181.9 98.8407L178.643 98.6474L169.7 104.309L161.64 113.222L91.6759 113.601L65.2303 113.185L64.8405 111.194L63.4324 111.073L61.087 111.214L41.1909 106.499L38.2515 105.089L34.8677 102.05L33.6561 101.927L16.9844 95.1796L16.5592 94.7991L15.7835 95.0286L13.9433 94.8553L10.4502 93.1938L8.48984 92.9204L4.86956 90.4933L0.708557 91.1495L0.95197 90.2545L3.35751 88.372L20.9998 75.57L22.357 74.058L21.7785 72.8348L19.1049 68.3873L22.4356 65.2985L22.5426 63.1394L25.5398 61.5735L27.1535 61.0405L26.5419 59.5746L26.6805 58.447L26.5781 57.8562L28.2342 57.7907L29.8625 53.9131L34.4695 53.1459L40.788 54.0772L43.7274 53.461L45.0284 51.8573L46.8994 50.8629L49.6485 50.4862L54.4942 46.0587L56.0833 45.558L56.7712 43.4814L58.3733 42.8243L59.6034 41.1166L68.7111 32.6968L72.0171 28.4611L72.098 27.3488L71.8484 26.7511L71.9694 26.4707L72.1034 26.2173L71.9216 25.7806L71.9262 25.001L72.7581 24.6221L76.8559 23.3642L78.274 21.9076L79.1452 20.1522L77.7302 19.1801L77.1433 18.4029L76.685 18.1033Z" fill="#3056D3"/>
<path d="M76.685 18.1033L76.346 16.5781L75.7722 15.7293L80.695 15.6908L83.2292 13.9577L84.6711 13.1982L86.1939 12.6621L89.2273 13.856L89.131 16.2539L88.8283 17.6296L88.524 18.5885L88.2513 20.4834L87.5866 23.0476L86.7932 25.0511L91.4734 26.5832L93.0732 26.1488L93.8666 25.5965L93.6586 24.3032L94.0684 24.6845L94.8025 24.6791L95.6128 23.3419L96.2806 21.9161L97.2974 21.7043L97.5038 22.4792L98.4474 22.2504L99.421 23.6176L99.9433 23.7986L99.773 25.0295L100.875 25.3638L102.259 25.209L105.753 24.2408L106.696 24.2993L107.032 25.1212L107.801 25.8861L106.735 27.6978L107.309 29.387L111.822 27.5306L112.655 24.0043L114.538 23.2633L115.261 23.8526L115.707 24.4018L115.899 22.2812L116.509 20.0944L117.064 19.7555L117.863 19.6769L119.266 18.8759L119.862 18.3505L119.769 17.6927L120.169 17.2914L121.698 16.9055L122.272 16.4349L123.036 16.0674L124.383 13.7497L125.906 13.0141L126.083 12.4888L126.62 12.5727L127.009 12.991L127.768 12.9132L128.163 13.4732L128.796 13.457L130.323 14.9305L129.647 16.1676L130.001 16.4657L129.794 17.9577L129.565 18.9829L129.119 19.6107L129.153 20.458L129.772 20.0482L131.292 19.7224L135.001 20.0844L135.229 17.7844L135.896 17.541L136.42 16.8793L138.131 17.5803L138.901 16.8131L138.374 16.4557L138.311 15.6161L138.713 15.1924L138.618 14.9051L138.73 14.359L139.692 13.8676L140.276 13.4655L140.811 13.4331L141.987 13.1019L142.597 12.1699L142.636 11.4466L143.721 10.124L146.102 10.6655L146.487 10.1094L147.231 9.80669L148.481 9.07648L148.235 8.34626L149.066 7.88795L151.491 7.09765L152.863 5.98461L153.617 5.07492L152.993 4.57809L151.668 4.11054L150.933 4.98943L150.156 5.3137L150.207 4.85693L149.855 3.98114L149.085 2.80802L148.865 2.25496L149.177 1.48623L149.905 1.62642L152.454 1.17196L155.072 1.53938L159.541 3.27635L159.927 4.24303L160.255 5.38148L160.383 6.40364L160.01 7.57444L159.526 11.6338L158.868 11.9611L159.042 13.5795L158.698 15.0661L160.212 16.5288L163.531 16.0921L164.612 15.7539L165.345 15.1893L165.757 15.6577L166.705 15.8841L168.277 16.5989L168.11 18.3621L169.05 19.4112L170.344 18.255L171.798 19.6823L172.317 19.7455L173.031 20.6336L173.503 21.581L173.174 21.9585L174.117 23.2348L175.278 24.1568L173.777 25.3038L172.329 25.9693L172.061 26.5547L171.482 27.1871L172.322 28.6298L173.566 29.0496L176.851 27.0292L178.26 25.8514L182.164 25.8614L182.969 24.8601L184.126 25.2052L189.452 24.2408L191.144 24.9602L192.098 23.291L192.721 23.2317L193.582 22.7911L195.121 22.6625L196.82 23.2872L197.152 20.77L197.627 18.4622L200.652 15.2617L202.593 15.3896L203.793 16.6398L206.569 17.5749L209.636 19.08L210.271 20.6613L210.099 22.7981L210.308 24.1098L211.157 24.7145L210.285 26.3999L207.188 29.4116L205.548 30.1973L204.351 30.5416L203.639 31.2826L203.518 31.8079L203.635 32.5412L203.709 33.4263L203.664 34.5347L203.292 36.7685L200.54 38.9044L197.711 40.0591L195.769 43.0385L196.637 44.512L198.206 45.3916L199.585 46.8582L199.644 47.7302L201.581 49.4094L200.644 50.3545L199.333 50.9068L199.371 53.4487L200.535 54.6703L203.653 54.2821L205.973 54.4215L206.141 56.5867L205.869 57.6851L205.776 58.7142L204.524 60.1585L202.7 61.2993L201.223 61.3794L200.765 62.1111L200.538 63.0347L199.907 63.533L200.271 64.2178L201.362 64.8556L201.709 65.6705L203.124 65.773L204.393 66.3291L203.01 66.8806L203.323 68.4443L204.976 69.4279L206.643 70.0518L204.715 71.1248L204.178 72.9288L203.222 74.4439L201.936 79.2858L202.298 79.748L202.608 80.7809L203.166 83.349L200.683 84.0538L200.718 84.838L200.435 85.9587L199.861 86.7914L199.21 87.1234L199.978 87.5886L201.739 89.5266L204.622 90.31L205.348 88.7771L209.041 88.5537L209.463 95.8597L209.302 98.7198L208.079 99.2651L207.795 99.4407L207.394 99.4015L206.365 99.7766L205.218 99.8898L204.891 100.016L204.613 100.23L204.43 100.521L204.289 100.838L204.111 101.093L203.162 101.335L203.002 101.323L202.804 101.185L202.784 101.065L202.824 100.94L202.803 100.784L202.34 100.042L201.809 99.5332L201.202 99.3052L200.507 99.4015L200.155 99.5262L199.988 99.5401L199.823 99.5101L199.696 99.4307L199.002 98.6004L198.703 98.417L198.497 98.5595L198.601 99.1919L199.096 99.8913L199.674 100.551L200.03 101.062L199.64 100.904L198.847 100.427L197.547 99.8952L197.167 99.6202L196.963 99.252L197.114 99.1172L197.165 98.9301L197.141 98.7313L197.058 98.5603L196.769 98.8153L196.494 98.9239L196.195 98.9185L195.485 98.7359L195.311 98.7213L194.625 99.0217L194.486 99.1265L194.374 99.2412L194.318 99.3214L194.299 99.4577L194.294 99.7427L194.237 99.9815L194.1 99.9491L193.818 99.668L192.658 98.9886L192.588 99.3545L192.424 99.3206L192.31 99.1473L191.562 99.2466L189.224 98.6112L185.526 98.4348L181.9 98.8407L178.643 98.6474L169.7 104.309L161.64 113.222L91.6759 113.601L65.2303 113.185L64.8405 111.194L63.4324 111.073L61.087 111.214L41.1909 106.499L38.2515 105.089L34.8677 102.05L33.6561 101.927L16.9844 95.1796L16.5592 94.7991L15.7835 95.0286L13.9433 94.8553L10.4502 93.1938L8.48984 92.9204L4.86956 90.4933L0.708557 91.1495L0.95197 90.2545L3.35751 88.372L20.9998 75.57L22.357 74.058L21.7785 72.8348L19.1049 68.3873L22.4356 65.2985L22.5426 63.1394L25.5398 61.5735L27.1535 61.0405L26.5419 59.5746L26.6805 58.447L26.5781 57.8562L28.2342 57.7907L29.8625 53.9131L34.4695 53.1459L40.788 54.0772L43.7274 53.461L45.0284 51.8573L46.8994 50.8629L49.6485 50.4862L54.4942 46.0587L56.0833 45.558L56.7712 43.4814L58.3733 42.8243L59.6034 41.1166L68.7111 32.6968L72.0171 28.4611L72.098 27.3488L71.8484 26.7511L71.9694 26.4707L72.1034 26.2173L71.9216 25.7806L71.9262 25.001L72.7581 24.6221L76.8559 23.3642L78.274 21.9076L79.1452 20.1522L77.7302 19.1801L77.1433 18.4029L76.685 18.1033Z" stroke="black" stroke-opacity="0.3" stroke-width="0.5" stroke-linecap="round" stroke-linejoin="round"/>
<path d="M99.5826 66.7369C99.4003 66.7369 99.3092 66.6392 99.3092 66.4439V61.4283C99.3092 61.2329 99.4003 61.1353 99.5826 61.1353H100.176C100.359 61.1353 100.45 61.2329 100.45 61.4283V62.9829C100.45 63.1392 100.443 63.2954 100.43 63.4517H100.458L102.356 61.3658C102.497 61.2121 102.616 61.1353 102.715 61.1353H103.501C103.805 61.1353 103.855 61.2473 103.649 61.4712L101.872 63.4165L103.774 66.4009C103.917 66.6249 103.868 66.7369 103.626 66.7369H102.895C102.76 66.7369 102.643 66.66 102.544 66.5064L101.106 64.2525L100.45 64.9908V66.4439C100.45 66.6392 100.359 66.7369 100.176 66.7369H99.5826ZM104.317 65.6431C104.317 65.1223 104.566 64.7447 105.063 64.5103C105.561 64.2759 106.128 64.1509 106.766 64.1353V63.979C106.766 63.7395 106.706 63.5702 106.587 63.4712C106.467 63.3723 106.3 63.3228 106.087 63.3228C105.936 63.3228 105.801 63.3449 105.684 63.3892C105.57 63.4309 105.469 63.4803 105.383 63.5376C105.3 63.5923 105.225 63.6483 105.157 63.7056C105.037 63.8098 104.938 63.815 104.86 63.7212L104.536 63.3228C104.455 63.2238 104.475 63.1223 104.594 63.0181C104.686 62.9374 104.791 62.8671 104.911 62.8072C105.033 62.7473 105.195 62.6913 105.395 62.6392C105.596 62.5845 105.856 62.5572 106.176 62.5572C106.718 62.5572 107.133 62.6822 107.422 62.9322C107.714 63.1822 107.86 63.5507 107.86 64.0376V66.5025C107.86 66.6587 107.782 66.7369 107.626 66.7369H106.985C106.844 66.7369 106.774 66.6587 106.774 66.5025V66.3853H106.766C106.613 66.5337 106.428 66.6431 106.212 66.7134C105.998 66.7811 105.801 66.815 105.622 66.815C105.195 66.815 104.87 66.7108 104.649 66.5025C104.428 66.2915 104.317 66.0051 104.317 65.6431ZM105.473 65.6197C105.473 65.7108 105.491 65.7902 105.528 65.8579C105.564 65.9231 105.622 65.9712 105.7 66.0025C105.778 66.0337 105.865 66.0494 105.962 66.0494C106.094 66.0494 106.223 66.0311 106.348 65.9947C106.473 65.9582 106.613 65.8723 106.766 65.7369V64.8892C106.329 64.9387 106.036 65.0025 105.887 65.0806C105.739 65.1587 105.632 65.2395 105.567 65.3228C105.505 65.4061 105.473 65.5051 105.473 65.6197ZM109.161 66.7369C109.005 66.7369 108.926 66.6587 108.926 66.5025V62.8697C108.926 62.7134 109.005 62.6353 109.161 62.6353H109.778C109.934 62.6353 110.012 62.7134 110.012 62.8697V63.19H110.028C110.096 63.0233 110.209 62.8762 110.368 62.7486C110.527 62.621 110.714 62.5572 110.93 62.5572C111.079 62.5572 111.201 62.5754 111.297 62.6119C111.389 62.6457 111.424 62.7082 111.403 62.7994L111.294 63.2642C111.27 63.3684 111.2 63.3996 111.083 63.3579C111.015 63.3345 110.95 63.3228 110.887 63.3228C110.637 63.3228 110.43 63.4725 110.266 63.772C110.102 64.0715 110.02 64.5077 110.02 65.0806V66.5025C110.02 66.6587 109.942 66.7369 109.786 66.7369H109.161ZM111.778 65.6431C111.778 65.1223 112.027 64.7447 112.524 64.5103C113.021 64.2759 113.589 64.1509 114.227 64.1353V63.979C114.227 63.7395 114.167 63.5702 114.047 63.4712C113.928 63.3723 113.761 63.3228 113.547 63.3228C113.396 63.3228 113.262 63.3449 113.145 63.3892C113.031 63.4309 112.93 63.4803 112.844 63.5376C112.761 63.5923 112.686 63.6483 112.618 63.7056C112.498 63.8098 112.399 63.815 112.321 63.7212L111.997 63.3228C111.916 63.2238 111.936 63.1223 112.055 63.0181C112.146 62.9374 112.252 62.8671 112.372 62.8072C112.494 62.7473 112.656 62.6913 112.856 62.6392C113.057 62.5845 113.317 62.5572 113.637 62.5572C114.179 62.5572 114.594 62.6822 114.883 62.9322C115.175 63.1822 115.321 63.5507 115.321 64.0376V66.5025C115.321 66.6587 115.243 66.7369 115.087 66.7369H114.446C114.305 66.7369 114.235 66.6587 114.235 66.5025V66.3853H114.227C114.074 66.5337 113.889 66.6431 113.672 66.7134C113.459 66.7811 113.262 66.815 113.083 66.815C112.656 66.815 112.331 66.7108 112.11 66.5025C111.889 66.2915 111.778 66.0051 111.778 65.6431ZM112.934 65.6197C112.934 65.7108 112.952 65.7902 112.989 65.8579C113.025 65.9231 113.083 65.9712 113.161 66.0025C113.239 66.0337 113.326 66.0494 113.422 66.0494C113.555 66.0494 113.684 66.0311 113.809 65.9947C113.934 65.9582 114.074 65.8723 114.227 65.7369V64.8892C113.79 64.9387 113.497 65.0025 113.348 65.0806C113.2 65.1587 113.093 65.2395 113.028 65.3228C112.965 65.4061 112.934 65.5051 112.934 65.6197ZM116.169 64.6861C116.169 64.1132 116.292 63.6158 116.54 63.1939C116.79 62.7694 117.221 62.5572 117.833 62.5572C118.067 62.5572 118.268 62.591 118.434 62.6587C118.601 62.7264 118.752 62.8723 118.887 63.0962H118.903L118.919 62.8697C118.929 62.7134 118.999 62.6353 119.13 62.6353H119.747C119.903 62.6353 119.981 62.7134 119.981 62.8697V66.6939C119.981 67.3319 119.809 67.772 119.465 68.0142C119.122 68.2564 118.624 68.3775 117.973 68.3775C117.697 68.3775 117.442 68.3632 117.208 68.3345C116.973 68.3059 116.736 68.2343 116.497 68.1197C116.372 68.0598 116.351 67.9465 116.434 67.7798L116.575 67.4986C116.632 67.384 116.727 67.3579 116.86 67.4204C116.967 67.4699 117.098 67.5142 117.255 67.5533C117.413 67.5923 117.614 67.6119 117.856 67.6119C118.189 67.6119 118.445 67.5494 118.622 67.4244C118.799 67.302 118.887 67.0324 118.887 66.6158V66.5494C118.887 66.4452 118.893 66.341 118.903 66.2369H118.887C118.752 66.4608 118.601 66.6066 118.434 66.6744C118.268 66.7421 118.067 66.7759 117.833 66.7759C117.221 66.7759 116.79 66.565 116.54 66.1431C116.292 65.7186 116.169 65.2329 116.169 64.6861ZM117.325 64.6861C117.325 65.0767 117.378 65.3957 117.485 65.6431C117.594 65.8879 117.825 66.0103 118.176 66.0103C118.372 66.0103 118.538 65.9009 118.676 65.6822C118.817 65.4608 118.887 65.1744 118.887 64.8228V64.5103C118.887 64.1587 118.817 63.8736 118.676 63.6548C118.538 63.4335 118.372 63.3228 118.176 63.3228C117.825 63.3228 117.594 63.4465 117.485 63.6939C117.378 63.9387 117.325 64.2694 117.325 64.6861ZM120.825 65.6431C120.825 65.1223 121.074 64.7447 121.571 64.5103C122.068 64.2759 122.636 64.1509 123.274 64.1353V63.979C123.274 63.7395 123.214 63.5702 123.094 63.4712C122.975 63.3723 122.808 63.3228 122.594 63.3228C122.443 63.3228 122.309 63.3449 122.192 63.3892C122.077 63.4309 121.977 63.4803 121.891 63.5376C121.808 63.5923 121.732 63.6483 121.665 63.7056C121.545 63.8098 121.446 63.815 121.368 63.7212L121.044 63.3228C120.963 63.2238 120.982 63.1223 121.102 63.0181C121.193 62.9374 121.299 62.8671 121.419 62.8072C121.541 62.7473 121.702 62.6913 121.903 62.6392C122.103 62.5845 122.364 62.5572 122.684 62.5572C123.226 62.5572 123.641 62.6822 123.93 62.9322C124.222 63.1822 124.368 63.5507 124.368 64.0376V66.5025C124.368 66.6587 124.29 66.7369 124.133 66.7369H123.493C123.352 66.7369 123.282 66.6587 123.282 66.5025V66.3853H123.274C123.12 66.5337 122.936 66.6431 122.719 66.7134C122.506 66.7811 122.309 66.815 122.13 66.815C121.702 66.815 121.378 66.7108 121.157 66.5025C120.936 66.2915 120.825 66.0051 120.825 65.6431ZM121.981 65.6197C121.981 65.7108 121.999 65.7902 122.036 65.8579C122.072 65.9231 122.13 65.9712 122.208 66.0025C122.286 66.0337 122.373 66.0494 122.469 66.0494C122.602 66.0494 122.731 66.0311 122.856 65.9947C122.981 65.9582 123.12 65.8723 123.274 65.7369V64.8892C122.837 64.9387 122.544 65.0025 122.395 65.0806C122.247 65.1587 122.14 65.2395 122.075 65.3228C122.012 65.4061 121.981 65.5051 121.981 65.6197ZM125.669 66.7369C125.512 66.7369 125.434 66.6587 125.434 66.5025V62.8697C125.434 62.7134 125.512 62.6353 125.669 62.6353H126.286C126.442 62.6353 126.52 62.7134 126.52 62.8697V63.0962H126.536C126.656 62.8905 126.808 62.7499 126.993 62.6744C127.178 62.5962 127.4 62.5572 127.661 62.5572C128.067 62.5572 128.403 62.6848 128.669 62.94C128.934 63.1952 129.067 63.6613 129.067 64.3384V66.5025C129.067 66.6587 128.989 66.7369 128.833 66.7369H128.208C128.051 66.7369 127.973 66.6587 127.973 66.5025V64.6197C127.973 64.052 127.934 63.6939 127.856 63.5454C127.778 63.397 127.61 63.3228 127.352 63.3228C127.079 63.3228 126.873 63.4296 126.735 63.6431C126.597 63.854 126.528 64.2941 126.528 64.9634V66.5025C126.528 66.6587 126.45 66.7369 126.294 66.7369H125.669ZM129.903 64.6861C129.903 64.1132 130.027 63.6158 130.274 63.1939C130.524 62.7694 130.955 62.5572 131.567 62.5572C131.801 62.5572 132.002 62.591 132.169 62.6587C132.335 62.7264 132.486 62.8723 132.622 63.0962H132.637C132.627 62.9921 132.622 62.8879 132.622 62.7837V61.2056C132.622 61.0494 132.7 60.9712 132.856 60.9712H133.481C133.637 60.9712 133.715 61.0494 133.715 61.2056V66.5025C133.715 66.6587 133.637 66.7369 133.481 66.7369H132.864C132.734 66.7369 132.663 66.6587 132.653 66.5025L132.637 66.2759H132.622C132.486 66.4999 132.335 66.6457 132.169 66.7134C132.002 66.7811 131.801 66.815 131.567 66.815C130.955 66.815 130.524 66.604 130.274 66.1822C130.027 65.7577 129.903 65.259 129.903 64.6861ZM131.059 64.6861C131.059 65.1027 131.113 65.4348 131.219 65.6822C131.329 65.927 131.559 66.0494 131.911 66.0494C132.106 66.0494 132.273 65.94 132.411 65.7212C132.551 65.4999 132.622 65.2134 132.622 64.8619V64.5103C132.622 64.1587 132.551 63.8736 132.411 63.6548C132.273 63.4335 132.106 63.3228 131.911 63.3228C131.559 63.3228 131.329 63.4465 131.219 63.6939C131.113 63.9387 131.059 64.2694 131.059 64.6861ZM134.524 62.94C134.454 62.7369 134.497 62.6353 134.653 62.6353H135.352C135.472 62.6353 135.55 62.7017 135.587 62.8345L136.176 65.0181C136.205 65.1197 136.23 65.2512 136.251 65.4126C136.274 65.5715 136.286 65.6731 136.286 65.7173H136.309C136.34 65.5793 136.363 65.4699 136.376 65.3892C136.391 65.3059 136.432 65.1457 136.497 64.9087L137.055 62.8345C137.092 62.7017 137.17 62.6353 137.29 62.6353H137.989C138.143 62.6353 138.186 62.7369 138.118 62.94L136.801 66.9009C136.648 67.3645 136.459 67.7264 136.235 67.9869C136.011 68.2473 135.7 68.3775 135.301 68.3775C135.083 68.3775 134.887 68.3593 134.715 68.3228C134.616 68.302 134.579 68.2343 134.602 68.1197L134.688 67.69C134.712 67.578 134.778 67.5389 134.887 67.5728C134.968 67.5988 135.044 67.6119 135.114 67.6119C135.325 67.6119 135.485 67.5116 135.594 67.3111C135.706 67.1106 135.781 66.9387 135.817 66.7954L135.829 66.7369L134.524 62.94Z" fill="white"/>
</svg>
