<svg width="117" height="148" viewBox="0 0 117 148" fill="none" xmlns="http://www.w3.org/2000/svg">
<path d="M85.7902 2.38231L85.801 2.45164L87.6158 10.5256L85.9905 11.2751L86.8486 12.4752L88.5131 13.2216L89.6162 15.1626L86.2108 16.7486L84.7019 17.7361L85.0261 19.7904L85.7533 22.0604L86.6791 22.2237L87.6474 23.6341L87.3808 26.0781L86.0999 27.4985L86.6437 29.4743L88.4407 29.844L88.9168 32.5792L88.9561 35.0533L89.751 36.5292L91.042 37.777L89.7494 38.7229L86.7046 39.1612L85.9042 40.7764L86.0945 41.6214L86.5644 42.1899L86.9672 43.2906L86.951 44.3636L86.7955 46.0952L85.7109 47.2798L85.2564 50.8747L85.1655 54.7314L84.946 59.826L83.8214 61.1493L83.0512 63.2753L82.4804 66.2562L80.3529 68.6125L77.6446 69.4883L76.6679 69.3935L76.4746 70.7584L78.7068 72.3044L79.4655 73.831L79.1944 76.2073L78.8986 77.0646L78.7284 77.9327L79.1236 78.388L78.7662 78.8748L78.1392 79.434L77.496 80.4122L78.0251 81.1902L77.9065 82.5551L80.3568 86.8024L80.5316 90.7731L82.3302 90.626L83.6027 88.7674L85.2672 88.4878L86.5867 89.4544L86.8763 90.8309L87.4155 91.2715L88.8012 91.2276L89.7471 92.6272L91.0828 93.6247L96.0772 95.3239L100.12 94.6391L101.635 95.8469L101.632 97.6016L101.007 98.6977L101.662 99.7514L103.044 100.88L104.814 99.8646L106.732 99.0913L110.358 98.5829L112.647 97.8904L113.684 97.0994L114.141 97.3967L114.728 98.1739L116.143 99.146L115.272 100.901L113.854 102.358L109.756 103.616L108.924 103.995L108.919 104.774L109.101 105.211L108.967 105.465L108.846 105.745L109.096 106.343L109.015 107.455L105.709 111.691L96.601 120.11L95.3709 121.818L93.7687 122.475L93.0808 124.552L91.4918 125.052L86.646 129.48L83.8969 129.857L82.0259 130.851L80.7249 132.455L77.7856 133.071L71.4671 132.14L66.8601 132.907L65.2317 136.784L63.5756 136.85L63.6781 137.441L63.5394 138.568L64.151 140.034L62.5373 140.567L59.5402 142.133L59.4331 144.292L56.1025 147.381L51.7897 140.717L42.9732 136.043L43.3352 133.988L42.9902 132.43L41.2463 131.999L39.9984 132.679L37.8771 132.108L34.8422 128.455L33.8124 125.981L32.4768 125.575L33.9611 124.864L35.3714 124.68L32.7001 120.075L32.4983 119.119L33.0922 118.346L34.9224 118.431L34.3639 116.707L35.0148 114.859L36.389 113.48L37.123 111.233L38.5665 110.085L40.0393 110.819L41.3449 110.326L41.0191 107.577L38.2715 103.275L36.0577 98.5529L34.823 93.3874L33.4704 93.4306L32.9813 92.9222L32.8442 91.642L33.8394 89.5199L31.9399 87.4225L32.2372 85.9674L32.7048 85.345L30.7575 83.7783L29.0236 84.7804L28.0385 83.3685L27.6995 82.1107L27.5493 80.9129L26.8338 79.6581L26.0042 80.252L24.0107 80.3737L23.6718 80.3845H23.6656L22.9246 80.0587L22.5033 79.6651L22.1644 79.0496L21.6021 77.325L21.3179 76.8651L21.2585 76.7612L20.754 76.6171L20.1409 76.2243L19.6171 76.0047L19.4207 76.0317L19.0887 76.1434L18.9015 76.1557L18.7143 76.108L18.2352 75.8368L17.8979 75.7606L16.9358 75.8368L16.6215 75.7914L16.0677 75.5911L15.7835 75.5457L15.3236 75.5742L15.178 75.5457L15.0571 75.4902L14.9724 75.427L14.9115 75.357L14.8599 75.2807L14.7967 75.1875L14.7028 75.0881L14.2429 74.7538L14.0758 74.5466L13.8755 74.1099L13.7746 73.8303L13.733 73.63L13.7199 72.8998L13.7746 72.614L13.5466 72.6071L7.88126 72.463L7.75108 72.4214L7.66866 72.2566L7.64863 72.0309L7.6055 71.8268L7.45684 71.7197L5.93786 71.4617L5.64825 71.2622L5.66135 70.7939L5.87777 70.5042L6.53098 70.1854L6.79672 69.982L6.84987 69.8064L6.83523 69.4081L6.91456 69.271L7.19263 69.0654L7.32821 68.9075L7.38752 68.7265L7.00083 68.2489L4.52287 67.6327L3.09248 66.5612L2.61954 66.3694L2.45777 66.5897L2.33685 66.9402L1.98021 67.1382L1.5404 67.0504L1.25232 66.7677L0.617613 65.2995L0.493591 64.9383L0.515171 64.5639L0.737004 64.0294V64.0278L1.10827 64.0271L3.5223 64.024L5.54426 61.8318L6.6342 60.9259L7.76031 60.4253L8.5406 60.4553L9.3178 60.6232L10.0719 60.5916L10.779 60.0186L11.339 59.0965L11.594 58.8601L12.9265 58.2854L13.2046 58.086L13.9125 57.2887L14.169 57.0646L14.7644 56.7133L15.2027 56.2581L14.3384 55.0588L14.1066 54.7307L14.0303 54.3232L13.9679 53.3811L13.8724 52.9706L13.7584 52.7534L13.5836 52.6355L12.2911 52.1918L12.0615 51.9916L11.9922 51.6141L12.0546 50.5281L12.0415 50.0782L11.9706 49.7185L11.8974 49.5683L11.7573 49.5444L11.0394 49.623L10.7998 49.6037L10.6211 49.4659L10.5433 49.2748L10.5156 49.1231L10.454 48.9952L10.2722 48.8735L10.1351 48.7464L10.0758 48.5492L10.0704 48.3089L10.0888 48.0509L10.4047 47.1073L10.9978 46.7391L11.6787 46.5789L12.2602 46.2631L12.4551 45.9781L12.7886 45.3287L13.0397 45.0291L15.4615 42.7938L14.303 41.6777L14.2914 41.6599L14.303 41.653L15.3775 41.6461L15.882 41.5028L16.3527 41.1693H16.3542L16.3573 41.1654L16.3589 41.1647L16.8203 40.771L17.3017 40.6909L17.7846 40.8473L18.256 41.1654L18.6558 41.3387L19.0902 41.4004L19.5216 41.3449L19.9021 41.1654L20.5668 40.5939L20.9011 40.4999L21.3163 40.7094L21.827 41.167L22.6589 42.0158L23.0956 42.1899L23.527 41.9172L23.7981 41.6684L24.0693 41.6052L24.6624 41.69L26.0858 41.4982L26.5981 41.6854L27.5201 42.4248L28.0323 42.4995L29.0876 42.089L29.6152 41.6992L29.9148 41.17V41.1662L30.1867 40.027L30.2199 39.5009L30.1082 38.9455L29.7623 38.3724L29.3079 38.1067L26.2999 37.4951L25.3109 37.0691L24.486 36.2788L23.916 35.4562L23.6202 35.353L22.283 36.0947L21.8232 36.1594L21.3171 36.0092L19.9468 34.9224L19.4576 34.7306L18.1282 34.7406L17.478 34.5835L16.9173 34.0543L16.6392 33.4982L16.5121 32.9127L16.5614 32.3297L16.8241 31.7797L17.4519 30.8561L17.5759 30.5388L17.6375 30.2568L17.6922 29.5366L17.9302 29.2932L18.2907 29.2085L18.6612 29.2894L18.9323 29.5359L19.2297 30.0481L19.5801 30.5372L19.9722 30.8569L20.4005 30.8654L20.7494 30.6143L21.4634 29.8471L21.8301 29.539L22.397 29.2293L22.0203 27.6849L21.8586 27.3552L21.6668 27.279L20.0931 27.2898L19.688 27.4292L19.0579 28.305L18.5649 28.3705L16.6061 27.8944L16.3419 27.7288L16.2456 27.5786L16.09 27.1966L15.9922 27.0387L15.2982 26.8214L13.354 26.6997L12.9758 26.2499L13.3178 25.6791L14.7528 26.1806L15.2435 25.7462L15.2735 25.4534L15.2604 25.16L15.272 24.8734L15.376 24.5938L15.5955 24.4613L16.1393 24.3789L16.2618 24.1155L16.4266 23.5624L16.7656 23.1365L17.1422 22.7691L17.4264 22.3855L17.4665 21.8555L17.1206 21.5436L16.6361 21.3302L16.2526 21.0837L15.9768 20.6631L15.8343 20.5414L15.5585 20.4667L14.6427 20.4444L14.3415 20.3689L14.2491 20.1239L14.2213 19.8574L14.2545 19.584L14.3407 19.3275L14.5934 18.9793L14.8907 18.8006L15.5385 18.6504L15.993 18.6289L16.6754 18.7729L16.7679 18.8838L16.8195 19.0502L16.9234 19.2851L17.1083 19.5686L17.3402 19.7912L17.5897 19.7781L17.8208 19.3467L17.8655 18.9408L17.7908 18.5349L17.5066 17.7692L17.4573 17.6321L17.3494 17.1607L18.1359 17.1022L18.4848 16.9173L18.7428 16.5021L18.9963 16.1748L19.3614 16.0962L20.4775 16.2664L20.6939 16.469L21.0952 17.3302L21.3271 17.5251L22.3623 17.7708L22.4101 18.5179L22.5179 18.7359L22.7675 18.8322L23.0286 18.7714L23.1757 18.5511L23.2505 18.2052L23.2998 17.77H24.6308L24.8156 17.9425L25.0044 18.0303L25.1846 17.9903L25.492 17.5959L25.6907 17.5751L25.901 17.6521L26.0989 17.7692L26.2044 18.2268L26.2306 18.531L26.3169 18.7498L26.5996 18.9493L27.0918 19.1018L28.6547 19.2019L28.6501 17.7746L28.6369 17.6329L28.6401 17.1815L34.3632 16.962L34.6528 17.0082L34.8292 17.2485L34.7999 17.7746H34.7968L34.1798 18.1967L33.9988 18.5087L34.0458 18.9755L34.2992 19.3737L34.9763 19.7403L35.2698 20.0723L35.4045 20.2896L35.5655 20.4821L35.7427 20.6038L35.933 20.6223L36.1556 20.5091L36.2095 20.3435L36.0909 19.6048L36.0231 19.4261V19.2404L36.1887 18.9408L36.7872 18.3061L36.5476 17.8801L36.4614 17.7685L36.2857 16.9558L36.7102 16.3211L37.3818 15.9044L37.9557 15.7488L39.1689 15.6687L39.9345 15.339L40.2033 15.3929L40.8157 15.7057L41.1947 15.7311L42.3539 15.3891L43.7381 15.5609L44.1225 15.3698L44.3351 14.9724L44.3058 14.6296L44.1756 14.2768L44.0917 13.8416L44.2835 13.458L44.7433 13.3171L45.5744 13.3487L47.1419 13.7199L47.1843 13.7299L47.6965 13.7261L48.094 13.542L48.8327 12.935L49.2216 12.7478L50.1622 12.6885L52.4468 11.641L52.9398 11.6818L53.3519 11.8975L54.5034 12.7979L54.8885 12.9034L55.0819 12.9812L55.229 12.6639L55.6804 12.4782L56.1865 12.3935L56.6224 12.1594L56.8674 11.5262L56.4245 10.9261L56.2188 10.5426L56.238 10.37L56.3474 10.2714L56.4561 10.0889L56.5747 9.98796L56.8366 10.2776L57.0022 10.3639L57.1824 10.3947L57.3426 10.37L57.4612 10.2753L57.6892 9.9764L57.8202 9.88166L58.0205 9.86779L58.6336 10.0442L58.9771 9.96871L59.6565 9.63209L60.0825 9.5358L60.3667 9.3987L60.4522 9.31089L60.6155 9.18379L60.8181 9.22077L61.1709 9.39254L62.5481 9.22848L62.716 9.15299L62.8516 8.98506L62.9564 8.8156L63.0303 8.73935L63.1967 8.76553L63.4909 8.878L63.6488 8.90419L63.9993 8.82022L64.5855 8.41507L64.7665 8.58298L65.6199 9.334L66.0613 9.59666L66.562 9.65058L67.4601 9.18765L68.3352 8.45435L69.2202 8.00451L70.1561 8.39041L71.2637 9.88936L71.464 10.1043L71.6589 10.2545L71.8653 10.3284L72.1064 10.3061L72.2042 10.246L72.3714 10.0688L72.4723 10.0396L72.8921 10.2175L73.0376 10.2113L73.4389 9.4326L72.9976 6.89532L73.2895 6.33457L73.2502 5.96946L73.231 5.86162L73.2325 5.28931L73.4575 5.00816L75.2337 4.20169L75.635 4.17781L76.4322 4.40966L76.7326 4.318L76.8328 3.80808L76.6749 2.93536L76.7434 2.6157L77.1285 2.49015L78.485 2.66423L80.4161 3.34361L80.849 3.25503L81.2164 2.85757L81.6077 2.1181L82.0075 1.52731L82.4604 1.21227L83.4841 0.807877L83.7498 1.02201L83.8723 2.60338L84.1064 2.99467L85.7902 2.38231Z" fill="#A9BDFF" stroke="black" stroke-opacity="0.3" stroke-width="0.5" stroke-linecap="round" stroke-linejoin="round"/>
<path d="M29.8984 51C29.7161 51 29.625 50.9023 29.625 50.707V45.6914C29.625 45.4961 29.7161 45.3984 29.8984 45.3984H30.4922C30.6745 45.3984 30.7656 45.4961 30.7656 45.6914V47.2461C30.7656 47.4023 30.7591 47.5586 30.7461 47.7148H30.7734L32.6719 45.6289C32.8125 45.4753 32.9323 45.3984 33.0312 45.3984H33.8164C34.1211 45.3984 34.1706 45.5104 33.9648 45.7344L32.1875 47.6797L34.0898 50.6641C34.2331 50.888 34.1836 51 33.9414 51H33.2109C33.0755 51 32.9583 50.9232 32.8594 50.7695L31.4219 48.5156L30.7656 49.2539V50.707C30.7656 50.9023 30.6745 51 30.4922 51H29.8984ZM34.6328 48.9492C34.6328 48.2852 34.8034 47.7643 35.1445 47.3867C35.4883 47.0091 35.9987 46.8203 36.6758 46.8203C37.3529 46.8203 37.862 47.0091 38.2031 47.3867C38.5469 47.7643 38.7188 48.2852 38.7188 48.9492C38.7188 49.6133 38.5469 50.1341 38.2031 50.5117C37.862 50.8893 37.3529 51.0781 36.6758 51.0781C35.9987 51.0781 35.4883 50.8893 35.1445 50.5117C34.8034 50.1341 34.6328 49.6133 34.6328 48.9492ZM35.7891 48.9492C35.7891 49.444 35.8646 49.7956 36.0156 50.0039C36.1693 50.2096 36.3893 50.3125 36.6758 50.3125C36.9622 50.3125 37.181 50.2096 37.332 50.0039C37.4857 49.7956 37.5625 49.444 37.5625 48.9492C37.5625 48.4544 37.4857 48.1042 37.332 47.8984C37.181 47.6901 36.9622 47.5859 36.6758 47.5859C36.3893 47.5859 36.1693 47.6901 36.0156 47.8984C35.8646 48.1042 35.7891 48.4544 35.7891 48.9492ZM39.4805 50.7266C39.3529 50.6354 39.3177 50.5378 39.375 50.4336L39.5742 50.0703C39.6445 49.9401 39.7539 49.9245 39.9023 50.0234C40.0508 50.1224 40.2253 50.1953 40.4258 50.2422C40.6289 50.2891 40.8138 50.3125 40.9805 50.3125C41.0977 50.3125 41.207 50.3008 41.3086 50.2773C41.4102 50.2539 41.4961 50.2083 41.5664 50.1406C41.6367 50.0729 41.6719 49.974 41.6719 49.8438C41.6719 49.7656 41.651 49.6992 41.6094 49.6445C41.5677 49.5898 41.5143 49.5482 41.4492 49.5195C41.3841 49.4909 41.3151 49.4674 41.2422 49.4492C41.1458 49.4258 41.0065 49.3867 40.8242 49.332C40.6445 49.2773 40.4714 49.2135 40.3047 49.1406C40.1667 49.0807 40.0312 48.9974 39.8984 48.8906C39.7682 48.7812 39.6719 48.6602 39.6094 48.5273C39.5495 48.3945 39.5195 48.2305 39.5195 48.0352C39.5195 47.7721 39.5951 47.5417 39.7461 47.3438C39.8997 47.1458 40.0977 47.0091 40.3398 46.9336C40.582 46.8581 40.8841 46.8203 41.2461 46.8203C41.4909 46.8203 41.7292 46.8555 41.9609 46.9258C42.1927 46.9961 42.3581 47.0625 42.457 47.125C42.6133 47.224 42.6523 47.3294 42.5742 47.4414L42.3359 47.7891C42.263 47.8932 42.1458 47.901 41.9844 47.8125C41.862 47.7448 41.7409 47.6901 41.6211 47.6484C41.5039 47.6068 41.3724 47.5859 41.2266 47.5859C41.1276 47.5859 41.0326 47.5964 40.9414 47.6172C40.8503 47.638 40.7721 47.6771 40.707 47.7344C40.6445 47.7917 40.6133 47.8672 40.6133 47.9609C40.6133 48.0599 40.6419 48.138 40.6992 48.1953C40.7591 48.25 40.8268 48.2904 40.9023 48.3164C40.9805 48.3424 41.0547 48.3672 41.125 48.3906C41.2708 48.4375 41.418 48.4831 41.5664 48.5273C41.7148 48.569 41.8659 48.6198 42.0195 48.6797C42.1523 48.7318 42.2812 48.806 42.4062 48.9023C42.5312 48.9987 42.6224 49.1211 42.6797 49.2695C42.737 49.418 42.7656 49.5872 42.7656 49.7773C42.7656 50.0299 42.6901 50.2643 42.5391 50.4805C42.388 50.6966 42.1888 50.8503 41.9414 50.9414C41.694 51.0326 41.4062 51.0781 41.0781 51.0781C40.7109 51.0781 40.3984 51.0521 40.1406 51C39.8828 50.9479 39.6628 50.8568 39.4805 50.7266ZM43.3555 47.6797C43.2018 47.6797 43.125 47.6146 43.125 47.4844V47.0938C43.125 46.9635 43.2018 46.8984 43.3555 46.8984H43.6211V46.7617C43.6211 46.6445 43.6484 46.5378 43.7031 46.4414L44.0039 45.9141C44.0612 45.8151 44.1289 45.7656 44.207 45.7656H44.4805C44.6367 45.7656 44.7148 45.8438 44.7148 46V46.8984H45.3477C45.5013 46.8984 45.5781 46.9635 45.5781 47.0938V47.4844C45.5781 47.6146 45.5013 47.6797 45.3477 47.6797H44.7148V49.6172C44.7148 49.8828 44.7331 50.0742 44.7695 50.1914C44.8086 50.306 44.9076 50.3633 45.0664 50.3633C45.1471 50.3633 45.2383 50.3503 45.3398 50.3242C45.4414 50.2956 45.5208 50.2682 45.5781 50.2422C45.6693 50.2005 45.7292 50.2305 45.7578 50.332L45.875 50.7773C45.8984 50.8659 45.8646 50.931 45.7734 50.9727C45.6875 51.0117 45.569 51.0469 45.418 51.0781C45.2695 51.112 45.1198 51.1289 44.9688 51.1289C44.5964 51.1289 44.2786 51.0521 44.0156 50.8984C43.7526 50.7448 43.6211 50.4284 43.6211 49.9492V47.6797H43.3555ZM46.3906 49.9062C46.3906 49.3854 46.6393 49.0078 47.1367 48.7734C47.6341 48.5391 48.2018 48.4141 48.8398 48.3984V48.2422C48.8398 48.0026 48.7799 47.8333 48.6602 47.7344C48.5404 47.6354 48.3737 47.5859 48.1602 47.5859C48.0091 47.5859 47.875 47.6081 47.7578 47.6523C47.6432 47.694 47.543 47.7435 47.457 47.8008C47.3737 47.8555 47.2982 47.9115 47.2305 47.9688C47.1107 48.0729 47.0117 48.0781 46.9336 47.9844L46.6094 47.5859C46.5286 47.487 46.5482 47.3854 46.668 47.2812C46.7591 47.2005 46.8646 47.1302 46.9844 47.0703C47.1068 47.0104 47.2682 46.9544 47.4688 46.9023C47.6693 46.8477 47.9297 46.8203 48.25 46.8203C48.7917 46.8203 49.207 46.9453 49.4961 47.1953C49.7878 47.4453 49.9336 47.8138 49.9336 48.3008V50.7656C49.9336 50.9219 49.8555 51 49.6992 51H49.0586C48.918 51 48.8477 50.9219 48.8477 50.7656V50.6484H48.8398C48.6862 50.7969 48.5013 50.9062 48.2852 50.9766C48.0716 51.0443 47.875 51.0781 47.6953 51.0781C47.2682 51.0781 46.944 50.974 46.7227 50.7656C46.5013 50.5547 46.3906 50.2682 46.3906 49.9062ZM47.5469 49.8828C47.5469 49.974 47.5651 50.0534 47.6016 50.1211C47.638 50.1862 47.6953 50.2344 47.7734 50.2656C47.8516 50.2969 47.9388 50.3125 48.0352 50.3125C48.168 50.3125 48.2969 50.2943 48.4219 50.2578C48.5469 50.2214 48.6862 50.1354 48.8398 50V49.1523C48.4023 49.2018 48.1094 49.2656 47.9609 49.3438C47.8125 49.4219 47.7057 49.5026 47.6406 49.5859C47.5781 49.6693 47.5469 49.7682 47.5469 49.8828ZM51.2344 51C51.0781 51 51 50.9219 51 50.7656V47.1328C51 46.9766 51.0781 46.8984 51.2344 46.8984H51.8516C52.0078 46.8984 52.0859 46.9766 52.0859 47.1328V47.3594H52.1016C52.2214 47.1536 52.3737 47.013 52.5586 46.9375C52.7435 46.8594 52.9661 46.8203 53.2266 46.8203C53.6328 46.8203 53.9688 46.9479 54.2344 47.2031C54.5 47.4583 54.6328 47.9245 54.6328 48.6016V50.7656C54.6328 50.9219 54.5547 51 54.3984 51H53.7734C53.6172 51 53.5391 50.9219 53.5391 50.7656V48.8828C53.5391 48.3151 53.5 47.957 53.4219 47.8086C53.3438 47.6602 53.1758 47.5859 52.918 47.5859C52.6445 47.5859 52.4388 47.6927 52.3008 47.9062C52.1628 48.1172 52.0938 48.5573 52.0938 49.2266V50.7656C52.0938 50.9219 52.0156 51 51.8594 51H51.2344ZM55.4688 49.9062C55.4688 49.3854 55.7174 49.0078 56.2148 48.7734C56.7122 48.5391 57.2799 48.4141 57.918 48.3984V48.2422C57.918 48.0026 57.8581 47.8333 57.7383 47.7344C57.6185 47.6354 57.4518 47.5859 57.2383 47.5859C57.0872 47.5859 56.9531 47.6081 56.8359 47.6523C56.7214 47.694 56.6211 47.7435 56.5352 47.8008C56.4518 47.8555 56.3763 47.9115 56.3086 47.9688C56.1888 48.0729 56.0898 48.0781 56.0117 47.9844L55.6875 47.5859C55.6068 47.487 55.6263 47.3854 55.7461 47.2812C55.8372 47.2005 55.9427 47.1302 56.0625 47.0703C56.1849 47.0104 56.3464 46.9544 56.5469 46.9023C56.7474 46.8477 57.0078 46.8203 57.3281 46.8203C57.8698 46.8203 58.2852 46.9453 58.5742 47.1953C58.8659 47.4453 59.0117 47.8138 59.0117 48.3008V50.7656C59.0117 50.9219 58.9336 51 58.7773 51H58.1367C57.9961 51 57.9258 50.9219 57.9258 50.7656V50.6484H57.918C57.7643 50.7969 57.5794 50.9062 57.3633 50.9766C57.1497 51.0443 56.9531 51.0781 56.7734 51.0781C56.3464 51.0781 56.0221 50.974 55.8008 50.7656C55.5794 50.5547 55.4688 50.2682 55.4688 49.9062ZM56.625 49.8828C56.625 49.974 56.6432 50.0534 56.6797 50.1211C56.7161 50.1862 56.7734 50.2344 56.8516 50.2656C56.9297 50.2969 57.0169 50.3125 57.1133 50.3125C57.2461 50.3125 57.375 50.2943 57.5 50.2578C57.625 50.2214 57.7643 50.1354 57.918 50V49.1523C57.4805 49.2018 57.1875 49.2656 57.0391 49.3438C56.8906 49.4219 56.7839 49.5026 56.7188 49.5859C56.6562 49.6693 56.625 49.7682 56.625 49.8828ZM59.8242 47.2031C59.7539 47 59.7969 46.8984 59.9531 46.8984H60.6523C60.7721 46.8984 60.8503 46.9648 60.8867 47.0977L61.4766 49.2812C61.5052 49.3828 61.5299 49.5143 61.5508 49.6758C61.5742 49.8346 61.5859 49.9362 61.5859 49.9805H61.6094C61.6406 49.8424 61.6628 49.7331 61.6758 49.6523C61.6914 49.569 61.7318 49.4089 61.7969 49.1719L62.3555 47.0977C62.3919 46.9648 62.4701 46.8984 62.5898 46.8984H63.2891C63.4427 46.8984 63.4857 47 63.418 47.2031L62.1016 51.1641C61.9479 51.6276 61.7591 51.9896 61.5352 52.25C61.3112 52.5104 61 52.6406 60.6016 52.6406C60.3828 52.6406 60.1875 52.6224 60.0156 52.5859C59.9167 52.5651 59.8789 52.4974 59.9023 52.3828L59.9883 51.9531C60.0117 51.8411 60.0781 51.8021 60.1875 51.8359C60.2682 51.862 60.3438 51.875 60.4141 51.875C60.625 51.875 60.7852 51.7747 60.8945 51.5742C61.0065 51.3737 61.0807 51.2018 61.1172 51.0586L61.1289 51L59.8242 47.2031Z" fill="#1C2434"/>
</svg>
