<svg width="130" height="109" viewBox="0 0 130 109" fill="none" xmlns="http://www.w3.org/2000/svg">
<path d="M1.5099 50.7901L1.12091 40.9722L2.31252 36.014L10.0691 25.6562L13.5923 22.0159L17.0555 19.4794L20.4378 18.6798L20.8444 16.1826L22.2017 14.84L25.3675 15.0873L28.8822 9.73467L30.1647 6.29927L33.2165 2.06048L36.6596 1.18006L40.6388 1.17004L43.2824 5.42193L44.9832 5.97114L47.066 8.00003L49.1272 11.1566L48.8846 12.0516L50.184 12.4391L51.502 12.6455L53.1087 13.4304L54.3581 13.3696L51.9526 15.2521L51.7092 16.1472L55.8702 15.4909L59.4904 17.918L61.4508 18.1915L64.944 19.853L66.7841 20.0262L67.5598 19.7967L67.985 20.1772L84.6567 26.9248L85.8683 27.048L89.2522 30.0868L92.1915 31.4971L112.088 36.2112L114.433 36.0702L115.841 36.1912L116.231 38.1823L116.418 40.1164L117.916 41.3196L118.469 43.3585L117.396 45.1479L116.496 49.8573L116.46 52.1843L117.748 53.2865L119.588 54.4227L120.665 55.7699L120.857 70.6623L122.186 71.686L122.774 71.5435L123.625 71.9294L124.436 72.5425L124.578 73.1248L125.898 74.7386L129.16 77.2003L129.168 78.4567L127.894 78.4659L126.961 79.5843L127.315 80.3276L127.459 81.6379L126.91 83.1453L125.48 82.3257L125.388 84.2945L124.391 86.0754L124.038 87.7877L122.822 88.9408L123.035 90.7987L123.449 89.2112L123.957 88.9785L123.942 89.6833L124.481 89.7219L124.572 91.056L125.543 91.8771L125.935 92.1259L125.28 92.7991L118.445 96.1297L111.679 100.609L108.698 103.264L107.461 102.776L105.355 103.835L100.996 108.09L99.9165 107.919L98.6086 107.715L98.6163 107.147L98.6579 107.017L98.698 106.887L98.8628 106.823L99.0269 106.759L99.0962 106.596L99.1671 106.434L99.2018 105.938L99.2364 105.441L99.5368 100.749L99.8372 96.0373L97.823 97.1265L95.8087 98.2133L95.6893 98.1995L95.5668 98.1856L94.671 96.3431L93.625 94.1941L92.8678 92.6358L91.6824 90.1886L91.4066 89.9445L91.1301 89.7003L89.6943 88.7998L88.2562 87.8986L87.5622 87.1661L86.8674 86.4305L85.3646 84.4756L83.8618 82.5191L83.6253 82.3088L83.3927 82.1008L83.1709 82.0654L82.9475 82.0307L82.6972 82.1262L82.4453 82.221L81.0858 82.9766L79.7008 83.7461L78.3582 84.491L76.9548 85.2682L76.7122 85.3382L76.4688 85.4083L75.7 85.3398L73.7674 85.1649L71.8348 84.9885L69.8984 84.8129L67.965 84.6365L65.8406 84.4432L63.7131 84.2514L61.5871 84.0565L59.4612 83.8632L58.1864 84.0719L56.9131 84.2791L55.6399 84.4863L54.3666 84.6935L53.0918 84.9007L51.8186 85.1072L50.5453 85.3151L49.272 85.5216L48.4848 85.6656L47.6976 85.8112L46.9104 85.9568L46.1216 86.1016L45.631 86.1917L45.138 86.2826L44.645 86.3735L44.1544 86.4644L43.002 86.6754L42.9712 86.6808L42.6901 86.5591L42.4074 86.4374L41.3606 85.2389L40.5772 84.3392L39.7923 83.438L39.0074 82.5352L38.2241 81.6333L37.4222 80.7105L36.6204 79.7869L35.817 78.8618L35.0167 77.9367L34.0384 76.8114L33.2728 75.9849L32.5087 75.1591L30.908 73.4299L30.0869 72.112L29.9513 71.6582L29.8605 70.6523L29.7711 70.1801L29.5185 69.6648L29.158 69.2596L28.2883 68.6835L27.0636 67.8716L25.3975 66.7663L23.364 65.4152L21.0316 63.8647L18.4759 62.1616L15.7661 60.3545L12.9738 58.4874L10.1716 56.6126L7.43095 54.7747L4.82205 53.0231L2.42034 51.4071L1.5099 50.7901Z" fill="#A9BDFF" stroke="black" stroke-opacity="0.3" stroke-width="0.5" stroke-linecap="round" stroke-linejoin="round"/>
<path d="M65.8984 59C65.7161 59 65.625 58.9023 65.625 58.707V53.6914C65.625 53.4961 65.7161 53.3984 65.8984 53.3984H66.4922C66.6745 53.3984 66.7656 53.4961 66.7656 53.6914V55.2461C66.7656 55.4023 66.7591 55.5586 66.7461 55.7148H66.7734L68.6719 53.6289C68.8125 53.4753 68.9323 53.3984 69.0312 53.3984H69.8164C70.1211 53.3984 70.1706 53.5104 69.9648 53.7344L68.1875 55.6797L70.0898 58.6641C70.2331 58.888 70.1836 59 69.9414 59H69.2109C69.0755 59 68.9583 58.9232 68.8594 58.7695L67.4219 56.5156L66.7656 57.2539V58.707C66.7656 58.9023 66.6745 59 66.4922 59H65.8984ZM70.418 55.2031C70.3477 55 70.3906 54.8984 70.5469 54.8984H71.2461C71.3659 54.8984 71.444 54.9648 71.4805 55.0977L72.0703 57.2812C72.099 57.3828 72.1237 57.5143 72.1445 57.6758C72.168 57.8346 72.1797 57.9362 72.1797 57.9805H72.2031C72.2344 57.8424 72.2565 57.7331 72.2695 57.6523C72.2852 57.569 72.3255 57.4089 72.3906 57.1719L72.9492 55.0977C72.9857 54.9648 73.0638 54.8984 73.1836 54.8984H73.8828C74.0365 54.8984 74.0794 55 74.0117 55.2031L72.6953 59.1641C72.5417 59.6276 72.3529 59.9896 72.1289 60.25C71.9049 60.5104 71.5938 60.6406 71.1953 60.6406C70.9766 60.6406 70.7812 60.6224 70.6094 60.5859C70.5104 60.5651 70.4727 60.4974 70.4961 60.3828L70.582 59.9531C70.6055 59.8411 70.6719 59.8021 70.7812 59.8359C70.862 59.862 70.9375 59.875 71.0078 59.875C71.2188 59.875 71.3789 59.7747 71.4883 59.5742C71.6003 59.3737 71.6745 59.2018 71.7109 59.0586L71.7227 59L70.418 55.2031ZM74.4453 59C74.2891 59 74.2109 58.9349 74.2109 58.8047V58.5078C74.2109 58.3724 74.2643 58.2318 74.3711 58.0859L76.1211 55.6797V55.6641C76.0169 55.6745 75.9128 55.6797 75.8086 55.6797H74.5391C74.3828 55.6797 74.3047 55.6146 74.3047 55.4844V55.3594C74.3047 55.0521 74.3828 54.8984 74.5391 54.8984H77.2422C77.3984 54.8984 77.4766 54.9635 77.4766 55.0938V55.3672C77.4766 55.4948 77.4206 55.6354 77.3086 55.7891L75.5469 58.2188V58.2344C75.6849 58.224 75.7891 58.2188 75.8594 58.2188H77.3359C77.4922 58.2188 77.5703 58.2839 77.5703 58.4141V58.8047C77.5703 58.9349 77.4922 59 77.3359 59H74.4453ZM78.0508 55.2031C77.9805 55 78.0234 54.8984 78.1797 54.8984H78.8789C78.9987 54.8984 79.0768 54.9648 79.1133 55.0977L79.7031 57.2812C79.7318 57.3828 79.7565 57.5143 79.7773 57.6758C79.8008 57.8346 79.8125 57.9362 79.8125 57.9805H79.8359C79.8672 57.8424 79.8893 57.7331 79.9023 57.6523C79.918 57.569 79.9583 57.4089 80.0234 57.1719L80.582 55.0977C80.6185 54.9648 80.6966 54.8984 80.8164 54.8984H81.5156C81.6693 54.8984 81.7122 55 81.6445 55.2031L80.3281 59.1641C80.1745 59.6276 79.9857 59.9896 79.7617 60.25C79.5378 60.5104 79.2266 60.6406 78.8281 60.6406C78.6094 60.6406 78.4141 60.6224 78.2422 60.5859C78.1432 60.5651 78.1055 60.4974 78.1289 60.3828L78.2148 59.9531C78.2383 59.8411 78.3047 59.8021 78.4141 59.8359C78.4948 59.862 78.5703 59.875 78.6406 59.875C78.8516 59.875 79.0117 59.7747 79.1211 59.5742C79.2331 59.3737 79.3073 59.2018 79.3438 59.0586L79.3555 59L78.0508 55.2031ZM82.4062 59C82.25 59 82.1719 58.9219 82.1719 58.7656V54.1523C82.1719 54.0352 82.1992 53.9284 82.2539 53.832L82.5547 53.3047C82.612 53.2057 82.6797 53.1562 82.7578 53.1562H83.0312C83.1875 53.1562 83.2656 53.2344 83.2656 53.3906V58.7656C83.2656 58.9219 83.1875 59 83.0312 59H82.4062ZM84.1094 56.9492C84.1094 56.2852 84.2799 55.7643 84.6211 55.3867C84.9648 55.0091 85.4753 54.8203 86.1523 54.8203C86.8294 54.8203 87.3385 55.0091 87.6797 55.3867C88.0234 55.7643 88.1953 56.2852 88.1953 56.9492C88.1953 57.6133 88.0234 58.1341 87.6797 58.5117C87.3385 58.8893 86.8294 59.0781 86.1523 59.0781C85.4753 59.0781 84.9648 58.8893 84.6211 58.5117C84.2799 58.1341 84.1094 57.6133 84.1094 56.9492ZM85.2656 56.9492C85.2656 57.444 85.3411 57.7956 85.4922 58.0039C85.6458 58.2096 85.8659 58.3125 86.1523 58.3125C86.4388 58.3125 86.6576 58.2096 86.8086 58.0039C86.9622 57.7956 87.0391 57.444 87.0391 56.9492C87.0391 56.4544 86.9622 56.1042 86.8086 55.8984C86.6576 55.6901 86.4388 55.5859 86.1523 55.5859C85.8659 55.5859 85.6458 55.6901 85.4922 55.8984C85.3411 56.1042 85.2656 56.4544 85.2656 56.9492ZM89.2734 59C89.1172 59 89.0391 58.9219 89.0391 58.7656V55.1328C89.0391 54.9766 89.1172 54.8984 89.2734 54.8984H89.8906C90.0469 54.8984 90.125 54.9766 90.125 55.1328V55.4531H90.1406C90.2083 55.2865 90.3216 55.1393 90.4805 55.0117C90.6393 54.8841 90.8268 54.8203 91.043 54.8203C91.1914 54.8203 91.3138 54.8385 91.4102 54.875C91.5013 54.9089 91.5365 54.9714 91.5156 55.0625L91.4062 55.5273C91.3828 55.6315 91.3125 55.6628 91.1953 55.6211C91.1276 55.5977 91.0625 55.5859 91 55.5859C90.75 55.5859 90.543 55.7357 90.3789 56.0352C90.2148 56.3346 90.1328 56.7708 90.1328 57.3438V58.7656C90.1328 58.9219 90.0547 59 89.8984 59H89.2734ZM91.8906 56.9492C91.8906 56.3763 92.0143 55.8789 92.2617 55.457C92.5117 55.0326 92.9427 54.8203 93.5547 54.8203C93.7891 54.8203 93.9896 54.8542 94.1562 54.9219C94.3229 54.9896 94.474 55.1354 94.6094 55.3594H94.625C94.6146 55.2552 94.6094 55.151 94.6094 55.0469V53.4688C94.6094 53.3125 94.6875 53.2344 94.8438 53.2344H95.4688C95.625 53.2344 95.7031 53.3125 95.7031 53.4688V58.7656C95.7031 58.9219 95.625 59 95.4688 59H94.8516C94.7214 59 94.651 58.9219 94.6406 58.7656L94.625 58.5391H94.6094C94.474 58.763 94.3229 58.9089 94.1562 58.9766C93.9896 59.0443 93.7891 59.0781 93.5547 59.0781C92.9427 59.0781 92.5117 58.8672 92.2617 58.4453C92.0143 58.0208 91.8906 57.5221 91.8906 56.9492ZM93.0469 56.9492C93.0469 57.3659 93.1003 57.6979 93.207 57.9453C93.3164 58.1901 93.5469 58.3125 93.8984 58.3125C94.0938 58.3125 94.2604 58.2031 94.3984 57.9844C94.5391 57.763 94.6094 57.4766 94.6094 57.125V56.7734C94.6094 56.4219 94.5391 56.1367 94.3984 55.918C94.2604 55.6966 94.0938 55.5859 93.8984 55.5859C93.5469 55.5859 93.3164 55.7096 93.207 55.957C93.1003 56.2018 93.0469 56.5326 93.0469 56.9492ZM96.5469 57.9062C96.5469 57.3854 96.7956 57.0078 97.293 56.7734C97.7904 56.5391 98.3581 56.4141 98.9961 56.3984V56.2422C98.9961 56.0026 98.9362 55.8333 98.8164 55.7344C98.6966 55.6354 98.5299 55.5859 98.3164 55.5859C98.1654 55.5859 98.0312 55.6081 97.9141 55.6523C97.7995 55.694 97.6992 55.7435 97.6133 55.8008C97.5299 55.8555 97.4544 55.9115 97.3867 55.9688C97.2669 56.0729 97.168 56.0781 97.0898 55.9844L96.7656 55.5859C96.6849 55.487 96.7044 55.3854 96.8242 55.2812C96.9154 55.2005 97.0208 55.1302 97.1406 55.0703C97.263 55.0104 97.4245 54.9544 97.625 54.9023C97.8255 54.8477 98.0859 54.8203 98.4062 54.8203C98.9479 54.8203 99.3633 54.9453 99.6523 55.1953C99.944 55.4453 100.09 55.8138 100.09 56.3008V58.7656C100.09 58.9219 100.012 59 99.8555 59H99.2148C99.0742 59 99.0039 58.9219 99.0039 58.7656V58.6484H98.9961C98.8424 58.7969 98.6576 58.9062 98.4414 58.9766C98.2279 59.0443 98.0312 59.0781 97.8516 59.0781C97.4245 59.0781 97.1003 58.974 96.8789 58.7656C96.6576 58.5547 96.5469 58.2682 96.5469 57.9062ZM97.7031 57.8828C97.7031 57.974 97.7214 58.0534 97.7578 58.1211C97.7943 58.1862 97.8516 58.2344 97.9297 58.2656C98.0078 58.2969 98.0951 58.3125 98.1914 58.3125C98.3242 58.3125 98.4531 58.2943 98.5781 58.2578C98.7031 58.2214 98.8424 58.1354 98.9961 58V57.1523C98.5586 57.2018 98.2656 57.2656 98.1172 57.3438C97.9688 57.4219 97.862 57.5026 97.7969 57.5859C97.7344 57.6693 97.7031 57.7682 97.7031 57.8828Z" fill="#1C2434"/>
</svg>
