<svg width="93" height="102" viewBox="0 0 93 102" fill="none" xmlns="http://www.w3.org/2000/svg">
<path d="M32.1638 92.3996L32.1377 92.0329L32.247 91.6155L32.7824 90.2528L32.9087 89.5419L32.8186 88.8024L32.673 88.4104L32.4928 88.1046L32.3595 87.9667L32.2201 87.8535L32.1099 87.7025L32.0645 87.4537L32.1585 86.8151L32.1515 86.6287L32.0683 86.4539L31.6663 85.9786L31.8211 85.7129L31.9482 85.3639L32.0344 84.9865L32.0637 84.6407L32.1446 84.3402L32.3433 84.1916L32.5906 84.0922L32.8178 83.9305L33.5018 82.6125L34.2559 81.5804L34.3468 81.4217L34.4177 81.2445L34.4469 81.0258L34.4308 80.6245L34.4446 80.4188L34.497 80.2671L34.9106 79.8534L35.0277 79.6716L35.0716 79.5168L35.0924 79.1948L35.1232 79.0393L35.3551 78.2867L35.4945 77.5942L35.4976 76.9133L35.3135 76.1923L34.9592 75.3835L34.688 74.9506L34.0903 74.5678L33.9301 74.1465L33.9247 73.7421L34.0733 73.5988L34.172 73.7991L34.2775 74.1966L34.4354 74.5863L34.6934 74.7612L34.8221 74.8097L35.3135 75.1494L35.3828 75.2873L35.4052 75.4321L35.4298 75.533L35.5022 75.5376L35.6971 76.2254L35.8365 76.5613L35.9698 76.7084L36.123 76.5559L36.2786 76.1715L36.3988 75.7171L36.4465 75.3489L36.331 74.517L36.0036 73.9601L35.496 73.6597L34.8351 73.5996L34.7774 73.1282L34.0687 72.6776L32.6268 72.1523L31.2449 72.0352L31.0439 72.0483L30.8713 72.0922L30.7057 72.1723L30.5309 72.294L30.4538 72.4034L30.3013 72.7315L30.2366 72.8224L29.8654 72.6722L28.9349 71.3951L28.4173 70.9984L28.0868 70.9707L26.8706 71.1609L25.9401 71.5176L25.4294 71.8788L25.1182 71.9867L24.834 71.8465L24.0159 70.8705L23.8203 70.5747L23.5137 69.9716L23.3004 69.6389L23.1632 69.3439L23.0192 68.6367L22.8736 68.2639L22.2104 67.5122L22.0286 67.1239L21.8484 67.0585L21.652 67.0246L21.5318 66.9522L21.4617 66.708L21.5048 66.5478L21.5865 66.3968L21.6343 66.1726L21.5819 65.813L21.4193 65.4316L21.1867 65.2098L20.646 65.4833L19.9612 65.4432L19.6339 65.5233L19.5237 65.6304L19.4359 65.7598L19.3396 65.8676L19.1979 65.9138L19.0207 65.8699L18.6995 65.6835L18.5247 65.6404L17.2345 65.9138H15.9489L15.7671 65.7205L15.8172 65.283L16.3217 63.7294L16.4673 62.9237L16.5613 60.411L16.4935 60.029L16.0536 59.1493L15.9889 58.9714L15.9628 58.7888L15.9443 58.3552L15.9104 58.1865L15.697 57.9238L15.1447 57.5194L15.0346 57.1975L14.9884 56.9217L14.8713 56.8886L14.7157 56.9587L14.5593 56.9941L14.3822 56.9548L14.2789 56.914L14.081 56.743L13.7066 56.2223L12.4241 53.5256L12.3094 53.1867L12.2631 52.8501L12.2223 52.6652L12.1291 52.4996L12.0313 52.3594L11.9766 52.2508L11.9674 52.0605L12.0013 51.643L11.9758 51.459L11.8665 51.2487L11.4482 50.8666L11.3573 50.7041L11.2448 50.3467L11.0338 50.0116L10.862 49.638L10.728 49.4701L10.584 49.3854L10.2697 49.2906L10.158 49.1928L10.0455 48.934L10.0579 48.7638L10.1203 48.5959L10.158 48.3409L10.1072 46.7264L10.0455 46.3266L9.96697 46.0185L9.61033 45.5186L9.04727 45.1135L7.86182 44.5612L2.95366 43.65L2.31896 43.3565L2.02009 43.1593L1.70659 42.8766L1.45934 42.5207L1.35689 42.1002L1.45009 41.2236L1.46011 40.7992L1.35689 40.431L1.46011 40.2862L1.32069 39.9334L1.24597 39.2972L1.27986 38.6555L1.46011 38.2881L1.69041 38.8535L1.88915 38.5993L2.03087 38.0555L2.07632 37.7551L2.22961 37.6534L2.26504 37.4146L2.26735 37.145L2.31819 36.9424L2.48765 36.8053L2.61243 36.8531L2.73413 36.9825L2.88972 37.0872L5.09193 37.5194L5.75667 37.4878L6.41063 37.2475H6.75495L6.90129 37.554L7.11466 37.6172L8.33862 37.6218L8.54967 37.8437L8.70604 37.9245L8.86625 37.8213L8.96485 37.6218L9.01569 37.4747L9.08732 37.3838L9.25062 37.3538L9.97622 37.3823L10.3251 37.4593L10.6317 37.6218L11.127 38.084L11.5476 38.6147L11.6816 38.6994L12.0221 38.6432L12.1653 38.6879L12.2562 38.8435L12.22 38.9713L12.1099 39.0576L11.9751 39.0876L12.2023 39.4135L12.5666 39.6669L13.6989 40.1999L14.1002 40.2723L14.5093 40.2561L14.9306 40.1521L15.2441 39.9804L15.9882 39.2217L16.0221 39.1716L16.0459 39.1023L16.0868 39.0276L16.1784 38.9544L16.2747 38.9282L16.6144 38.9544L16.8255 38.9213L17.2106 38.8003L17.424 38.8088L17.3161 39.4335L17.7167 39.5567L18.6718 39.3526L19.6061 39.7924L19.9181 39.7524L20.1076 39.5082L20.0352 39.2386L19.8357 38.9898L19.6323 38.8088L18.7912 38.352L18.2258 37.8267L17.8984 37.7859L17.2329 38.0077L16.5559 38.0932L16.1723 37.7397L15.7001 36.2846L15.3704 35.6946L14.9036 35.2671L13.786 34.5353L13.6427 34.3944L13.5472 34.265L13.4393 34.171L12.9394 34.1048L12.7908 34.0416L12.7292 33.9207L12.5759 33.7597L11.6901 33.1851L11.5745 32.8608L11.5406 32.4132L11.6177 32.0166L11.831 31.8448L11.9558 31.7762L12.0128 31.6145L12.0151 31.4312L11.9743 31.2964L11.8156 31.1908L11.6246 31.1762L11.4621 31.1215L11.3951 30.8935L11.5314 30.5985L11.8503 30.389L12.2185 30.2642L12.4942 30.2218L12.8462 30.2727L13.0088 30.2419L13.2067 30.0878L13.303 29.9576L13.464 29.6857L13.5949 29.5502L14.1958 29.1281L14.5354 28.9594L14.842 28.8923L15.0793 29.051L15.3311 29.3838L15.6038 29.6711L15.9081 29.6988L16.0305 29.4454L15.935 29.0657L15.7371 28.6759L15.5568 28.4024L15.4952 28.1937L15.5553 27.9588L15.6485 27.7285L15.6986 27.5344L15.6778 27.4003L15.563 27.0969L15.5083 26.9959L15.6038 26.7263L15.771 26.389L16.1985 25.7373L16.2816 25.4323L16.4164 25.1088L17.6443 23.6206L17.7683 23.304L17.816 22.8596L17.9023 22.4852L18.101 22.6639L18.4746 23.3279L18.9938 23.579L19.6886 23.5752L20.3756 23.3811L20.864 23.0575L21.293 22.5777L21.4193 22.4937L21.7329 22.5122L21.8692 22.4436L22.0772 22.0955L22.2381 21.7042L22.4207 21.3583L22.6834 21.1519L22.8513 21.3406L23.0061 21.6087L23.1163 21.9037L23.1609 22.1787L24.3602 22.382L24.5813 22.4683L24.9564 22.8488L25.2214 22.9343L25.4679 22.8488L25.9185 22.4683L26.1796 22.382L26.4954 22.4252L27.0623 22.6116L27.3705 22.6524L31.6824 22.1001L32.2786 22.275L33.3039 22.1101L33.9647 22.2719L36.3164 23.3187L37.7113 23.5397L38.4077 23.9025L38.752 24.0134L40.0429 23.8663L40.4096 23.9387L41.1752 24.2314L41.5226 24.2715L41.8153 24.1675L42.3969 23.8194L42.7243 23.7431L42.8098 23.7023L42.9769 23.512L43.0562 23.4619L43.4013 23.5644L43.4375 23.596L43.5315 23.5328L43.6578 23.4173L43.7433 23.2578L43.7225 23.0568L43.4668 22.8858L42.0064 22.6031L41.8893 22.4922L41.8076 22.3574L41.7137 22.2457L41.5766 22.164L41.1529 22.1101L40.5097 21.9145L38.752 21.0287L38.4092 20.9485L38.2783 20.8761L38.0202 20.5272L37.9201 20.4178L37.7884 20.357L37.2792 20.2823L36.5952 19.9695L36.3611 19.7947L36.4304 19.542L36.3557 19.371L36.2702 19.2278L36.3079 19.0552L36.4204 18.8442L36.425 18.6978L36.3865 18.5576L36.3618 18.3705L36.3834 17.9014L36.462 17.537L36.6222 17.2998L36.8848 17.2166L37.1128 17.0641L37.2754 16.709L37.5049 15.9795L38.041 15.0329L38.0849 14.9805L38.0872 14.9813L40.5567 15.559L47.4945 13.8182L50.5856 11.9063L49.7014 10.9035L51.017 9.5655L53.2585 6.57299L54.3646 6.21251L55.1649 6.27335L55.6378 5.88283L66.5764 3.62825L71.3644 3.38331L74.578 0.671188L77.3471 3.14067L78.3107 2.54294L79.4592 3.66675L79.5285 5.61631L81.0776 6.34345L82.4417 6.18477L82.9231 7.05826L83.7281 7.61979L85.1808 7.5181L86.2492 7.94407L86.9555 7.9148L88.4814 8.64194L89.4304 11.2593L91.745 26.8904L91.752 26.9844V26.9906L90.7321 27.3179L89.4258 27.7377L88.1178 28.1575L86.8099 28.5773L85.4989 28.9979L84.1925 29.4169L82.8846 29.8352L81.5775 30.2549L81.5744 30.2557L81.5713 30.2565L81.5698 30.2573L81.5667 30.258L81.5651 30.2604H81.5621L81.5605 30.2611L81.559 30.2619L81.5574 30.2627L81.5559 30.2634L81.5544 30.2657L81.5528 30.268L81.5513 30.2688L81.5497 30.2696L81.5482 30.2719L81.5467 30.2727L81.5451 30.275L81.5436 30.2773V30.2796V30.2827L81.542 30.285V30.2873L81.5405 30.2896L81.5389 30.2919V30.2942V30.2966V30.2989V30.3027V30.3058V30.3081V30.3104V30.3127V30.315L81.542 34.8196L81.5436 39.3064L81.5467 43.774L81.5482 48.2261L81.5513 52.659L81.5528 57.075L81.5559 61.474L81.5574 65.8561L81.5605 70.222L81.5621 74.5717L81.5651 78.9044L81.5667 83.2218L81.5698 87.5238L81.5713 91.8096L81.5744 96.0792L81.5775 100.336L80.6239 100.245L80.1563 100.284L78.91 100.891L77.6137 101.078L76.7918 101.396L75.0309 101.498L74.598 101.352L74.2075 101.128L73.9179 100.907L73.683 100.591L73.2924 99.6532L73.1237 99.3382L72.9034 99.0886L72.0292 98.487L71.5416 98.058L71.1118 97.5358L70.226 95.9644L69.3202 94.353L68.6885 93.4995L67.2366 91.533L67.091 91.1964L67.017 90.8213L67.0371 90.4192L67.0948 90.0934L67.0979 89.7776L66.9593 89.4109L66.6273 88.9827L64.2718 86.8113L62.6157 85.7059L61.2107 84.767L58.8599 83.1972L56.6939 81.7475L55.6802 81.3801L54.6273 81.2338L51.2843 81.8415L49.1468 82.2289L46.6904 82.6765L45.7676 82.8737L42.6896 84.0969L41.8993 84.5698L39.7171 85.3424L36.73 87.8303V87.8334L36.7254 87.8357L34.8706 89.6906L32.7408 91.8157L32.1638 92.3996Z" fill="#A9BDFF" stroke="black" stroke-opacity="0.3" stroke-width="0.5" stroke-linecap="round" stroke-linejoin="round"/>
<path d="M38.4492 52C38.2617 52 38.2005 51.9141 38.2656 51.7422L40.1797 46.7148C40.2604 46.5039 40.3828 46.3984 40.5469 46.3984H41.0938C41.2578 46.3984 41.3802 46.5039 41.4609 46.7148L43.375 51.7422C43.4401 51.9141 43.3789 52 43.1914 52H42.5703C42.3984 52 42.2786 51.9102 42.2109 51.7305L41.8125 50.6797H39.8281L39.4297 51.7305C39.362 51.9102 39.2422 52 39.0703 52H38.4492ZM40.1914 49.7109H41.4492L40.9688 48.4688C40.9115 48.3229 40.8763 48.2174 40.8633 48.1523C40.8529 48.0846 40.8411 47.9857 40.8281 47.8555H40.8125C40.7995 47.9857 40.7865 48.0846 40.7734 48.1523C40.763 48.2174 40.7292 48.3229 40.6719 48.4688L40.1914 49.7109ZM44.2109 52C44.0547 52 43.9766 51.9219 43.9766 51.7656V46.4688C43.9766 46.3125 44.0547 46.2344 44.2109 46.2344H44.8359C44.9922 46.2344 45.0703 46.3125 45.0703 46.4688V49.3398C45.0703 49.444 45.0651 49.5482 45.0547 49.6523H45.0703L46.3086 48.0586C46.3919 47.9518 46.4935 47.8984 46.6133 47.8984H47.2539C47.4935 47.8984 47.5339 47.9948 47.375 48.1875L46.1953 49.6133L47.5625 51.7109C47.6875 51.9036 47.6471 52 47.4414 52H46.7734C46.6432 52 46.5365 51.9323 46.4531 51.7969L45.5664 50.3711L45.0703 50.9688V51.7656C45.0703 51.9219 44.9922 52 44.8359 52H44.2109ZM48.1992 48.6797C48.0456 48.6797 47.9688 48.6146 47.9688 48.4844V48.0938C47.9688 47.9635 48.0456 47.8984 48.1992 47.8984H48.4648V47.7617C48.4648 47.6445 48.4922 47.5378 48.5469 47.4414L48.8477 46.9141C48.9049 46.8151 48.9727 46.7656 49.0508 46.7656H49.3242C49.4805 46.7656 49.5586 46.8438 49.5586 47V47.8984H50.1914C50.3451 47.8984 50.4219 47.9635 50.4219 48.0938V48.4844C50.4219 48.6146 50.3451 48.6797 50.1914 48.6797H49.5586V50.6172C49.5586 50.8828 49.5768 51.0742 49.6133 51.1914C49.6523 51.306 49.7513 51.3633 49.9102 51.3633C49.9909 51.3633 50.082 51.3503 50.1836 51.3242C50.2852 51.2956 50.3646 51.2682 50.4219 51.2422C50.513 51.2005 50.5729 51.2305 50.6016 51.332L50.7188 51.7773C50.7422 51.8659 50.7083 51.931 50.6172 51.9727C50.5312 52.0117 50.4128 52.0469 50.2617 52.0781C50.1133 52.112 49.9635 52.1289 49.8125 52.1289C49.4401 52.1289 49.1224 52.0521 48.8594 51.8984C48.5964 51.7448 48.4648 51.4284 48.4648 50.9492V48.6797H48.1992ZM51.2344 50.9062C51.2344 50.3854 51.4831 50.0078 51.9805 49.7734C52.4779 49.5391 53.0456 49.4141 53.6836 49.3984V49.2422C53.6836 49.0026 53.6237 48.8333 53.5039 48.7344C53.3841 48.6354 53.2174 48.5859 53.0039 48.5859C52.8529 48.5859 52.7188 48.6081 52.6016 48.6523C52.487 48.694 52.3867 48.7435 52.3008 48.8008C52.2174 48.8555 52.1419 48.9115 52.0742 48.9688C51.9544 49.0729 51.8555 49.0781 51.7773 48.9844L51.4531 48.5859C51.3724 48.487 51.3919 48.3854 51.5117 48.2812C51.6029 48.2005 51.7083 48.1302 51.8281 48.0703C51.9505 48.0104 52.112 47.9544 52.3125 47.9023C52.513 47.8477 52.7734 47.8203 53.0938 47.8203C53.6354 47.8203 54.0508 47.9453 54.3398 48.1953C54.6315 48.4453 54.7773 48.8138 54.7773 49.3008V51.7656C54.7773 51.9219 54.6992 52 54.543 52H53.9023C53.7617 52 53.6914 51.9219 53.6914 51.7656V51.6484H53.6836C53.5299 51.7969 53.3451 51.9062 53.1289 51.9766C52.9154 52.0443 52.7188 52.0781 52.5391 52.0781C52.112 52.0781 51.7878 51.974 51.5664 51.7656C51.3451 51.5547 51.2344 51.2682 51.2344 50.9062ZM52.3906 50.8828C52.3906 50.974 52.4089 51.0534 52.4453 51.1211C52.4818 51.1862 52.5391 51.2344 52.6172 51.2656C52.6953 51.2969 52.7826 51.3125 52.8789 51.3125C53.0117 51.3125 53.1406 51.2943 53.2656 51.2578C53.3906 51.2214 53.5299 51.1354 53.6836 51V50.1523C53.2461 50.2018 52.9531 50.2656 52.8047 50.3438C52.6562 50.4219 52.5495 50.5026 52.4844 50.5859C52.4219 50.6693 52.3906 50.7682 52.3906 50.8828ZM55.8359 50.2969V48.1328C55.8359 47.9766 55.9141 47.8984 56.0703 47.8984H56.6953C56.8516 47.8984 56.9297 47.9766 56.9297 48.1328V50.0156C56.9297 50.5833 56.9688 50.9414 57.0469 51.0898C57.125 51.2383 57.2891 51.3125 57.5391 51.3125C57.8047 51.3125 58.0065 51.207 58.1445 50.9961C58.2826 50.7826 58.3516 50.3411 58.3516 49.6719V48.1328C58.3516 47.9766 58.4297 47.8984 58.5859 47.8984H59.2109C59.3672 47.8984 59.4453 47.9766 59.4453 48.1328V51.7656C59.4453 51.9219 59.3672 52 59.2109 52H58.5938C58.4375 52 58.3594 51.9219 58.3594 51.7656V51.5391H58.3438C58.224 51.7448 58.0716 51.8867 57.8867 51.9648C57.7018 52.0404 57.4831 52.0781 57.2305 52.0781C56.832 52.0781 56.5 51.9505 56.2344 51.6953C55.9688 51.4401 55.8359 50.974 55.8359 50.2969Z" fill="#1C2434"/>
</svg>
