<svg width="83" height="103" viewBox="0 0 83 103" fill="none" xmlns="http://www.w3.org/2000/svg">
<path d="M60.8811 27.3949L62.0273 28.679L63.5562 31.093L64.4983 32.7545L66.0072 35.4111L67.5162 38.0616L69.0267 40.7044L70.5364 43.3395L72.5106 47.033L74.4864 50.7141L76.4637 54.3806L78.4379 58.034V58.0355H78.4394H78.441L79.9306 60.8555L81.4188 63.67L82.0882 64.9317L82.0859 64.9325L81.8101 64.988L81.3341 66.7981L79.3553 67.7186L79.3568 68.2809L79.0918 69.3338L78.4155 69.997L77.6422 70.5416L77.1793 70.2574L75.2844 70.4969L74.6674 71.8357L75.2875 72.0444L75.155 72.9826L74.4656 73.6412L70.7822 75.6254L69.9179 75.7956L69.5374 75.2572L68.9358 75.4606L68.59 76.163L67.0456 77.1113L66.528 77.0858L65.7939 77.7413L65.683 77.9763L65.4812 78.1896L65.3849 78.2374L65.448 78.6102L65.6876 78.8813L65.8709 79.174L65.7654 79.6115L66.0997 79.828L66.4432 79.9181L66.7128 80.1777L66.8207 80.9017L66.8607 81.0211L66.9555 81.1367L67.0641 81.2245L67.1503 81.2584L67.2643 81.2799L67.2805 81.3423L67.2674 81.4417L67.2974 81.5727L67.661 82.4223L67.8297 82.7096L68.0362 82.8567L68.5022 82.8898L68.6755 83.0177L68.8257 83.2303L68.9412 83.3258L69.8524 84.4673L73.4958 86.8174L73.9965 89.7691L73.9041 92.016L74.5703 92.4481L75.3344 94.4778L74.548 96.4597L73.2501 98.7304L70.4848 101.52L66.1436 100.383L63.1365 99.1248L61.3248 97.5827L60.1594 97.7137L59.3097 97.109L59.101 95.7972L59.2728 93.6605L58.6381 92.0791L55.5716 90.574L52.7956 89.6389L51.5955 88.3888L49.6544 88.2609L46.6288 91.4614L46.1543 93.7691L45.8223 96.2864L44.1231 95.6617L42.5841 95.7903L41.7229 96.2309L41.0998 96.2902L40.1462 97.9594L38.4547 97.2399L33.1283 98.2043L31.9713 97.8592L31.1664 98.8606L27.2619 98.8506L25.853 100.028L22.5686 102.049L21.3239 101.629L20.4843 100.186L21.0627 99.5538L21.3308 98.9684L22.7789 98.3029L24.2802 97.156L23.1194 96.234L22.1758 94.9576L22.5047 94.5802L22.0333 93.6328L21.3192 92.7447L20.8001 92.6815L19.3466 91.2542L18.0526 92.4104L17.1121 91.3613L17.2792 89.5981L15.707 88.8833L14.7596 88.6568L14.3468 88.1885L13.6142 88.7531L12.5328 89.0913L9.21448 89.528L7.70012 88.0653L8.04365 86.5786L7.87031 84.9603L8.52812 84.6329L9.01265 80.5736L9.38467 79.4028L9.25759 78.3807L8.92868 77.2422L8.54355 76.2755L4.07368 74.5385L5.0188 73.4232L5.65198 72.247L6.00552 71.1201L7.35119 70.1357L9.44244 69.2699L10.7435 69.0103L11.8857 68.2763L10.3799 67.4436L8.78313 66.8882L8.42799 66.0648L7.48212 66.0309L5.78136 66.3475L5.73359 64.1522L6.68721 61.7736L8.07755 60.7114L8.79695 59.9781L8.45497 47.2286L8.02978 45.41L7.61691 44.9502L6.63174 43.9804L4.75228 43.3834L4.38332 41.4762L4.83164 41.5579L6.32131 42.4745L6.77734 43.3203L7.34964 41.8729L7.65236 40.7707L8.10679 40.1105L8.50659 38.3543L7.43205 37.0272L5.84374 37.4169L4.81697 39.3626L3.10929 38.9644L3.34037 36.9963L3.66236 36.0528L2.95138 35.7462L1.66193 36.3555L2.12027 35.6676L3.31728 33.4777L3.91116 31.9726L4.83855 30.5338L4.02977 30.0809L3.60844 30.1887L3.24023 29.8544L2.62477 30.2642L1.84298 31.2339L0.892464 32.0189L0.335541 30.7679L0.433376 28.9848L1.24676 28.3724L2.14956 28.2068L0.404087 24.6273L0.399479 24.5673L1.41699 23.542H1.41855V23.5397L1.73744 23.2023L1.85836 23.0182L1.97392 22.7679L2.10099 22.3527L2.14876 22.1193L2.23964 21.9907L2.48923 21.8913L2.59473 21.8806L2.92904 21.9383L3.05151 21.8829L3.08616 21.7196L3.09928 21.5101L3.19556 21.1442L3.19867 20.9562L3.22175 20.806L3.31803 20.7506L4.38792 20.7929L4.62134 20.8569L5.10276 21.1373L5.31921 21.0594L6.28821 20.2676L6.72647 20.1028L7.18095 20.0943L7.73938 20.196L8.67217 20.3185L8.874 20.4448L8.9433 20.8168L8.92177 21.2674L8.94025 21.6495L9.13667 21.8143L9.56647 21.8397L9.72053 21.7357L9.97854 21.1634L10.1287 21.0679L11.0492 21.091L11.1802 21.148L11.3473 21.4461L11.4352 21.7766L11.5615 22.0346L11.838 22.1178L11.7371 22.6562L11.828 23.0075L12.3356 23.5374L12.3371 23.542H12.3387L13.0743 24.1559L13.4856 24.2476L13.7752 23.8887L14.4415 21.7296L14.4215 21.5501L14.2698 21.3522L14.0187 21.1049L13.9377 20.947L14.0618 19.7615L14.1842 19.2955L14.3938 19.0236L16.6684 19.1245L16.8124 18.9689L17.0589 17.8567L17.1991 17.5316L17.3177 17.3768L17.481 17.3267L18.1881 17.2782L18.3221 17.1357L18.4407 16.7999L18.5933 16.1151L18.7027 15.7839L18.8398 15.5875L19.3173 15.4265L20.4658 15.458L20.9603 15.5851L22.0333 16.1628L22.4115 16.1289L24.2232 14.7802L25.8947 13.5378L28.0784 11.9094L27.0555 10.1786L28.0113 9.45379L28.502 9.20499L28.9965 9.16339L30.4385 9.34826L30.9576 9.24504L31.6671 8.90612L32.5152 8.50096L34.0957 7.74302L36.5606 6.56142L38.541 5.61244L38.3753 5.0617L38.3453 4.66347L38.4477 4.29605L38.6827 3.84545L38.9738 3.44953L39.245 3.32475L42.0203 4.06113L42.6257 3.90476L43.5123 3.23693L43.8166 3.1137L44.0299 3.10137L44.4566 3.15452L44.67 3.12217L44.9195 2.86874L44.9804 2.45511L44.9866 1.97908L45.0713 1.53386L45.364 1.19495L45.7623 1.10483L46.5425 1.18031L46.8899 1.12332L47.8705 0.603383L48.1485 0.519417L48.4774 0.539445L48.6808 0.76129L48.5845 1.28815L48.3349 1.52309L47.2057 1.82581L46.9546 1.99989L46.6457 2.29412L46.4832 2.62534L46.6665 2.91419L47.3605 3.12909L47.617 3.36635L47.7426 3.92402L47.6664 4.53099L47.4314 4.99084L47.1418 5.39523L46.8938 5.83121L46.7251 6.52753L46.6164 6.7771L46.4593 6.98276L46.1104 7.31089L45.9718 7.5335L45.2508 8.40853L44.4027 8.37772L42.6257 7.69603L41.7345 7.65675L41.4695 7.74995L41.2331 7.92789L41.2015 8.0827L42.6265 10.593L42.7112 10.8749L42.8876 11.7715L43.3128 12.5056L44.5029 13.4677L46.2175 14.8518L48.8048 16.937L51.3921 19.019L53.9795 21.0957L56.5668 23.1684L58.4825 24.6998L60.1724 26.5977L60.8811 27.3949Z" fill="#A9BDFF" stroke="black" stroke-opacity="0.3" stroke-width="0.5" stroke-linecap="round" stroke-linejoin="round"/>
<path d="M21.2143 52.8947C21.032 52.8947 20.9408 52.7971 20.9408 52.6018V47.5861C20.9408 47.3908 21.032 47.2932 21.2143 47.2932H22.6752C23.6127 47.2932 24.2624 47.4455 24.6244 47.7502C24.989 48.0549 25.1713 48.4872 25.1713 49.0471C25.1713 49.607 24.989 50.0393 24.6244 50.344C24.2624 50.6486 23.6127 50.801 22.6752 50.801H22.0815V52.6018C22.0815 52.7971 21.9903 52.8947 21.808 52.8947H21.2143ZM22.0815 49.8479H22.6713C23.1921 49.8479 23.5463 49.7867 23.7338 49.6643C23.9213 49.5393 24.015 49.3335 24.015 49.0471C24.015 48.7606 23.9213 48.5562 23.7338 48.4338C23.5463 48.3088 23.1921 48.2463 22.6713 48.2463H22.0815V49.8479ZM25.8158 51.801C25.8158 51.2802 26.0645 50.9026 26.5619 50.6682C27.0593 50.4338 27.627 50.3088 28.265 50.2932V50.1369C28.265 49.8973 28.2051 49.7281 28.0854 49.6291C27.9656 49.5302 27.7989 49.4807 27.5854 49.4807C27.4343 49.4807 27.3002 49.5028 27.183 49.5471C27.0684 49.5888 26.9682 49.6382 26.8822 49.6955C26.7989 49.7502 26.7234 49.8062 26.6557 49.8635C26.5359 49.9677 26.4369 49.9729 26.3588 49.8791L26.0346 49.4807C25.9538 49.3817 25.9734 49.2802 26.0932 49.176C26.1843 49.0953 26.2898 49.0249 26.4096 48.9651C26.532 48.9052 26.6934 48.8492 26.894 48.7971C27.0945 48.7424 27.3549 48.7151 27.6752 48.7151C28.2169 48.7151 28.6322 48.8401 28.9213 49.0901C29.213 49.3401 29.3588 49.7085 29.3588 50.1955V52.6604C29.3588 52.8166 29.2807 52.8947 29.1244 52.8947H28.4838C28.3432 52.8947 28.2729 52.8166 28.2729 52.6604V52.5432H28.265C28.1114 52.6916 27.9265 52.801 27.7104 52.8713C27.4968 52.939 27.3002 52.9729 27.1205 52.9729C26.6934 52.9729 26.3692 52.8687 26.1479 52.6604C25.9265 52.4494 25.8158 52.163 25.8158 51.801ZM26.9721 51.7776C26.9721 51.8687 26.9903 51.9481 27.0268 52.0158C27.0632 52.0809 27.1205 52.1291 27.1986 52.1604C27.2768 52.1916 27.364 52.2072 27.4604 52.2072C27.5932 52.2072 27.7221 52.189 27.8471 52.1526C27.9721 52.1161 28.1114 52.0302 28.265 51.8947V51.0471C27.8275 51.0966 27.5346 51.1604 27.3861 51.2385C27.2377 51.3166 27.1309 51.3973 27.0658 51.4807C27.0033 51.564 26.9721 51.663 26.9721 51.7776ZM30.1557 49.0979C30.0906 48.8947 30.1335 48.7932 30.2846 48.7932H30.9838C31.1062 48.7932 31.1843 48.8596 31.2182 48.9924L31.8236 51.2815C31.8575 51.4091 31.8848 51.5354 31.9057 51.6604C31.9291 51.7854 31.9434 51.8869 31.9486 51.9651H31.9721C31.9773 51.8869 31.9903 51.7854 32.0111 51.6604C32.0346 51.5354 32.0632 51.4091 32.0971 51.2815L32.7025 48.9924C32.7364 48.8596 32.8145 48.7932 32.9369 48.7932H33.6361C33.7872 48.7932 33.8301 48.8947 33.765 49.0979L32.6322 52.633C32.5775 52.8075 32.4825 52.8947 32.3471 52.8947H31.5736C31.4382 52.8947 31.3432 52.8075 31.2885 52.633L30.1557 49.0979ZM34.5971 52.8947C34.4408 52.8947 34.3627 52.8166 34.3627 52.6604V48.0471C34.3627 47.9299 34.39 47.8231 34.4447 47.7268L34.7455 47.1994C34.8028 47.1005 34.8705 47.051 34.9486 47.051H35.2221C35.3783 47.051 35.4565 47.1291 35.4565 47.2854V52.6604C35.4565 52.8166 35.3783 52.8947 35.2221 52.8947H34.5971ZM36.3002 50.844C36.3002 50.1799 36.4708 49.6591 36.8119 49.2815C37.1557 48.9039 37.6661 48.7151 38.3432 48.7151C39.0203 48.7151 39.5294 48.9039 39.8705 49.2815C40.2143 49.6591 40.3861 50.1799 40.3861 50.844C40.3861 51.508 40.2143 52.0289 39.8705 52.4065C39.5294 52.7841 39.0203 52.9729 38.3432 52.9729C37.6661 52.9729 37.1557 52.7841 36.8119 52.4065C36.4708 52.0289 36.3002 51.508 36.3002 50.844ZM37.4565 50.844C37.4565 51.3388 37.532 51.6903 37.683 51.8986C37.8367 52.1044 38.0567 52.2072 38.3432 52.2072C38.6296 52.2072 38.8484 52.1044 38.9994 51.8986C39.1531 51.6903 39.2299 51.3388 39.2299 50.844C39.2299 50.3492 39.1531 49.9989 38.9994 49.7932C38.8484 49.5848 38.6296 49.4807 38.3432 49.4807C38.0567 49.4807 37.8367 49.5848 37.683 49.7932C37.532 49.9989 37.4565 50.3492 37.4565 50.844ZM41.0111 50.844C41.0111 50.271 41.1348 49.7736 41.3822 49.3518C41.6322 48.9273 42.0632 48.7151 42.6752 48.7151C42.9096 48.7151 43.1101 48.7489 43.2768 48.8166C43.4434 48.8843 43.5945 49.0302 43.7299 49.2541H43.7455C43.7351 49.1499 43.7299 49.0458 43.7299 48.9416V47.3635C43.7299 47.2072 43.808 47.1291 43.9643 47.1291H44.5893C44.7455 47.1291 44.8236 47.2072 44.8236 47.3635V52.6604C44.8236 52.8166 44.7455 52.8947 44.5893 52.8947H43.9721C43.8419 52.8947 43.7716 52.8166 43.7611 52.6604L43.7455 52.4338H43.7299C43.5945 52.6578 43.4434 52.8036 43.2768 52.8713C43.1101 52.939 42.9096 52.9729 42.6752 52.9729C42.0632 52.9729 41.6322 52.7619 41.3822 52.3401C41.1348 51.9156 41.0111 51.4169 41.0111 50.844ZM42.1674 50.844C42.1674 51.2606 42.2208 51.5927 42.3275 51.8401C42.4369 52.0848 42.6674 52.2072 43.019 52.2072C43.2143 52.2072 43.3809 52.0979 43.519 51.8791C43.6596 51.6578 43.7299 51.3713 43.7299 51.0197V50.6682C43.7299 50.3166 43.6596 50.0315 43.519 49.8127C43.3809 49.5914 43.2143 49.4807 43.019 49.4807C42.6674 49.4807 42.4369 49.6044 42.3275 49.8518C42.2208 50.0966 42.1674 50.4273 42.1674 50.844ZM45.6674 51.801C45.6674 51.2802 45.9161 50.9026 46.4135 50.6682C46.9109 50.4338 47.4786 50.3088 48.1166 50.2932V50.1369C48.1166 49.8973 48.0567 49.7281 47.9369 49.6291C47.8171 49.5302 47.6505 49.4807 47.4369 49.4807C47.2859 49.4807 47.1518 49.5028 47.0346 49.5471C46.92 49.5888 46.8197 49.6382 46.7338 49.6955C46.6505 49.7502 46.5749 49.8062 46.5072 49.8635C46.3874 49.9677 46.2885 49.9729 46.2104 49.8791L45.8861 49.4807C45.8054 49.3817 45.8249 49.2802 45.9447 49.176C46.0359 49.0953 46.1413 49.0249 46.2611 48.9651C46.3835 48.9052 46.545 48.8492 46.7455 48.7971C46.946 48.7424 47.2065 48.7151 47.5268 48.7151C48.0684 48.7151 48.4838 48.8401 48.7729 49.0901C49.0645 49.3401 49.2104 49.7085 49.2104 50.1955V52.6604C49.2104 52.8166 49.1322 52.8947 48.976 52.8947H48.3354C48.1947 52.8947 48.1244 52.8166 48.1244 52.6604V52.5432H48.1166C47.963 52.6916 47.7781 52.801 47.5619 52.8713C47.3484 52.939 47.1518 52.9729 46.9721 52.9729C46.545 52.9729 46.2208 52.8687 45.9994 52.6604C45.7781 52.4494 45.6674 52.163 45.6674 51.801ZM46.8236 51.7776C46.8236 51.8687 46.8419 51.9481 46.8783 52.0158C46.9148 52.0809 46.9721 52.1291 47.0502 52.1604C47.1283 52.1916 47.2156 52.2072 47.3119 52.2072C47.4447 52.2072 47.5736 52.189 47.6986 52.1526C47.8236 52.1161 47.963 52.0302 48.1166 51.8947V51.0471C47.6791 51.0966 47.3861 51.1604 47.2377 51.2385C47.0893 51.3166 46.9825 51.3973 46.9174 51.4807C46.8549 51.564 46.8236 51.663 46.8236 51.7776ZM50.5111 52.8947C50.3549 52.8947 50.2768 52.8166 50.2768 52.6604V49.0276C50.2768 48.8713 50.3549 48.7932 50.5111 48.7932H51.1283C51.2846 48.7932 51.3627 48.8713 51.3627 49.0276V49.3479H51.3783C51.446 49.1812 51.5593 49.0341 51.7182 48.9065C51.877 48.7789 52.0645 48.7151 52.2807 48.7151C52.4291 48.7151 52.5515 48.7333 52.6479 48.7697C52.739 48.8036 52.7742 48.8661 52.7533 48.9572L52.644 49.4221C52.6205 49.5263 52.5502 49.5575 52.433 49.5158C52.3653 49.4924 52.3002 49.4807 52.2377 49.4807C51.9877 49.4807 51.7807 49.6304 51.6166 49.9299C51.4525 50.2294 51.3705 50.6656 51.3705 51.2385V52.6604C51.3705 52.8166 51.2924 52.8947 51.1361 52.8947H50.5111Z" fill="#1C2434"/>
</svg>
