<svg width="113" height="78" viewBox="0 0 113 78" fill="none" xmlns="http://www.w3.org/2000/svg">
<path d="M62.7849 4.65878L63.7654 5.05548L64.0774 5.04623L64.4001 4.95919L64.709 4.77972L64.9732 4.48624L65.5355 4.078L66.3096 3.98172L67.0961 4.13115L67.693 4.44619L67.4727 4.7543L67.2548 5.14714L67.1592 5.56231L67.3133 5.9359L68.2723 7.21994L69.6426 9.04702L69.8806 9.71869L69.8906 10.0168L69.8806 10.3172L69.8852 10.3611V10.4505L69.8806 10.4944L69.8275 11.166L69.7704 11.4911L69.6888 11.8023L69.5995 12.2575L69.8428 12.9015L69.7312 13.1918L69.5733 13.4745L69.4662 13.8912L69.4446 14.3303L69.5471 14.6792L70.0593 15.2808L70.1602 15.6143L70.1171 16.2752L70.2827 17.0786L70.855 17.6856L71.5559 18.0723L72.1098 18.2171L72.7152 18.2094L72.9994 18.2903L73.2521 18.5267L73.7266 19.2924L73.8922 19.79L73.8953 20.3323L73.7196 20.665L73.41 20.8529L72.6967 21.0655L72.2577 21.4807L72.1691 22.1462L72.2669 23.8562L72.2345 24.0072L72.2245 24.1412L72.2476 24.2475L72.5273 24.5695L72.585 24.8507L72.5134 25.6633L72.5519 25.8089L72.6559 25.889L72.8985 25.9745L72.9617 26.0823L72.9632 26.2703L72.9293 26.6808L72.9316 27.0082L72.8585 28.0265L72.0743 28.1844L71.8201 28.1805L71.5498 28.0866L71.0329 27.7931L70.7487 27.6945L70.2449 27.6698L69.9191 27.8624L69.7905 28.3408L69.8783 29.1726L70.7387 29.2327L70.9243 29.3375L70.9967 29.7203L70.9844 30.2849L70.9174 30.8349L70.8111 31.1769L71.3472 31.455L71.5575 31.6737L71.7747 32.0265L72.2029 32.8946L72.4479 33.1734L72.7414 33.1834L73.2405 32.8337L73.6272 32.3708L74.3328 31.1052L74.6717 30.8187L75.0784 30.8988L75.5228 31.1091L75.9611 31.2139L76.3871 31.1977L76.5211 31.2878L76.6505 31.5212L76.7329 31.8332L76.8554 32.9909L77.1627 32.9454L77.8637 32.5795L78.2011 32.5264L78.3497 32.605L78.6355 32.8946L78.7795 32.994L79.0222 33.0502L79.2301 33.0155L79.6962 32.766L80.0882 32.454L80.2076 32.1151L80.1367 31.0629L80.1814 30.5853L80.3201 30.1486L80.5434 29.8312L80.8377 29.7072L83.5668 29.9853L83.9242 30.09L84.1868 30.2318L84.4133 30.4852L85.2267 32.0712L85.541 32.4617L85.9508 32.6003L86.3174 32.5449L86.6317 32.3646L86.8104 31.9841L86.7672 31.3317L86.5246 30.9173L86.1379 30.7632L85.7081 30.6947L85.3399 30.5299L85.0834 30.3096L85.0649 30.1755L85.0696 29.8666L85.0957 29.6256L85.1589 29.3483L85.2413 29.0817L85.5294 28.4471L85.5903 28.1828L85.4747 27.9633L85.1474 27.666L84.689 27.3602L84.5304 27.1384L84.4973 26.7655L84.7553 26.5961L86.2712 26.8295L86.731 27.1022L87.2487 27.666L87.68 28.3762L87.8849 29.091L88.042 29.3475L88.6798 29.5678L88.857 29.9714L88.7992 30.2757L88.3186 31.3556L89.5672 31.8493L90.8913 32.3723L90.9113 32.4471L90.8782 32.5449L90.8042 32.6558L90.664 32.9824L90.4892 33.0486L90.2874 33.007L90.0563 33.0117L90.0016 33.0918L89.8992 33.3899L89.8429 33.4661L89.712 33.4638L89.2891 33.3059L89.152 33.386L89.1304 33.6525L89.1736 33.9637L89.2244 34.1794L89.4794 34.5715L89.8036 34.8642L89.9923 35.2108L89.8406 35.7677V35.7723L89.4963 36.6212L89.3523 37.0987L89.3553 37.4815L89.6234 37.7612L90.0586 37.8736L90.5069 37.8297L90.8027 37.6395L91.3796 36.9347L91.7401 36.283L91.9203 36.1297L92.1337 36.1482L93.5518 36.7621L93.9207 36.5934L93.846 35.7662L93.578 35.0768L93.3068 34.5815L92.9664 34.3119L92.4834 34.2957L91.2587 34.5568L91.1709 34.3843L91.2502 33.9599L91.3958 33.4977L91.5098 33.2166L92.1476 32.5364L92.8616 32.3862L94.7195 32.5996L96.5081 32.806L97.2968 32.7005L97.5033 32.8014L97.665 33.1195L97.7374 33.5378L97.7821 34.4582L98.4368 34.7841L98.5986 35.1014L98.7257 35.7708L98.9822 36.0843L100.768 36.4979L103.135 37.0471L103.325 36.987L103.4 36.8037L103.427 36.531L103.469 36.2923L103.588 36.2044L104.024 36.2376L104.155 36.2838L104.33 36.444L104.652 36.8368L104.828 36.8823L105.167 36.7798L105.335 36.6304L105.385 36.3292L105.362 35.7715V35.7692L105.479 35.3356L106.297 35.1284L106.542 34.7671L106.492 34.4767L106.367 34.2202L106.319 34.0207L106.501 33.9006L107.238 33.728L107.463 33.7896L107.481 33.8744L107.525 34.3673L107.665 34.4421L108.443 34.2164L107.836 37.9352L107.637 38.5661L107.341 38.8796L106.959 38.9597L104.879 38.5484L104.47 38.5761L104.134 38.7702L103.843 39.1292L103.567 39.6483L104.217 40.1136L102.955 40.6058L102.729 40.8992L102.385 43.0059L101.788 43.1153L101.523 43.2609L101.313 43.552L101.183 44.0057L101.246 44.3162L101.719 44.8692L101.325 45.6657L103.567 46.8858L102.952 48.31L103.842 48.9963L104.025 48.937L104.396 48.5627L104.401 48.6227L106.146 52.2022L105.244 52.3678L104.43 52.9802L104.332 54.7633L104.889 56.0142L105.84 55.2293L106.622 54.2596L107.237 53.8498L107.605 54.1841L108.027 54.0763L108.836 54.5292L107.908 55.968L107.314 57.4731L106.117 59.663L105.659 60.3509L106.948 59.7416L107.659 60.0482L107.337 60.9917L107.106 62.9598L108.814 63.358L109.841 61.4123L111.429 61.0225L112.504 62.3497L112.104 64.1059L111.649 64.7661L111.347 65.8683L110.774 67.3157L110.318 66.4699L108.829 65.5533L108.38 65.4716L108.749 67.3788L110.629 67.9758L111.614 68.9455L107.28 68.6182L104.755 66.6448L98.9691 64.632L97.5857 64.488L97.2861 61.6873L96.6922 60.3185L96.6459 59.1169L95.8718 58.037L95.4243 58.56L94.664 58.6478L92.9348 59.1431L91.4551 58.8781L90.329 59.16L87.4874 61.1389L83.09 61.0164L81.1774 60.3347L80.4002 58.7279L81.1442 57.5394L81.2567 55.2317L81.7127 54.429L81.1042 53.4038L79.6807 51.854L78.6886 50.1694L75.301 52.0073L74.5723 52.2738L73.7604 52.1621L73.3029 51.7993L71.5667 51.378L71.5505 50.0762L71.4296 49.8051L71.0314 49.3853L67.5051 49.4824L65.6241 49.8113L65.0834 51.4458L64.035 51.8794L63.7192 53.4408L62.7387 52.9208L61.8875 51.4889L60.5041 50.4899L58.6678 50.6293L57.8228 50.5623L58.2957 49.5779L58.8526 48.7421L59.0429 47.8525L58.4921 47.5043L57.0502 47.4974L56.3061 47.3241L55.8201 47.6784L55.7608 46.1371L55.257 44.2076L54.8056 43.5228L53.9776 42.9566L51.5705 43.0583L49.292 44.4671L48.836 45.2258L48.6589 45.8074L49.3568 46.4845L49.2143 47.3156L48.3808 47.3726L47.9094 45.5994L47.4118 45.2867L46.8826 44.5981L45.4938 43.4188L44.8322 44.0504L43.9926 44.6243L42.8634 44.5303L42.7756 44.0882L42.3011 43.9657L41.3821 44.1929L40.9801 44.4602L40.3554 44.4617L40.6758 45.6279L40.8776 46.04L40.0904 46.3027L38.5945 46.5569L38.7994 47.4388L39.153 47.7246L38.2441 48.0381L37.7881 48.595L37.4707 49.0895L36.4624 49.6795L37.3883 51.5991L38.3604 52.6936L39.8054 53.3568L40.4355 55.0761L41.2104 56.4094L40.7852 58.9205L39.7153 59.8648L40.1166 63.3996L40.2475 63.6407L38.5499 64.4503L37.5808 65.3738L36.3623 65.9877L35.8038 66.9151L35.6621 67.4913L35.193 67.9357L34.7517 68.7229L34.1085 68.676L31.2685 70.1187L30.3858 70.2127L30.4466 71.2679L31.4749 72.6274L30.0453 74.2966L28.9893 74.5955L29.0139 75.2009L28.7012 75.8811L27.3702 75.4505L24.1512 73.4054L22.3803 72.8654L20.8806 73.1697L20.7004 76.5273L17.8388 76.7777L16.4454 77.1351L11.7699 76.2331L10.0722 76.1768L9.37124 74.5693L6.12763 74.6725L4.75425 75.137L3.7113 73.4886L1.16401 72.726L1.25491 68.8693L1.70937 65.2744L2.7939 64.0898L2.94949 62.3582L2.96567 61.2852L2.56283 60.1845L2.09295 59.616L1.90269 58.7711L2.703 57.1558L5.74788 56.7175L7.0404 55.7716L5.74943 54.5238L4.9545 53.0479L4.91523 50.5738L4.43919 47.8386L2.64217 47.4689L2.09834 45.4931L3.37932 44.0728L3.64581 41.6287L2.67759 40.2183L1.75173 40.055L1.02459 37.785L0.700317 35.7307L2.20926 34.7432L5.61462 33.1572L4.51161 31.2162L2.84705 30.4698L1.98896 29.2697L3.61424 28.5202L1.79949 20.4462L1.78871 20.3769L6.65527 18.6007L7.5403 18.4613L9.32272 18.5344L10.197 18.3996L10.5058 18.2078L11.0366 17.6355L11.3347 17.4599L14.0637 17.3274L14.4943 17.225L15.3147 16.752L15.7545 16.6434L16.8074 16.6581L17.3566 16.5186L17.7225 16.1381L18.009 15.5589L18.3426 15.163L18.7246 15.0027L19.6544 15.2654L20.5625 15.0728L23.0705 15.1491L24.1273 14.8094L24.9569 14.0854L25.5099 13.1325L25.7865 12.769L26.1978 12.4832L26.6923 12.3253L27.1237 12.3569L28.4709 12.9908L30.653 12.6727L30.898 12.4054L30.9997 11.7884L31.3093 11.6451L31.431 11.4194L31.4896 11.1006L31.612 10.6723L31.877 10.4928L32.266 10.4628L32.5818 10.3295L32.6365 9.83809L31.5196 9.13791L30.995 8.55944L31.2246 7.85849L30.9142 7.53883L30.8079 7.45949L31.6975 6.9565L31.9972 6.88564L32.202 6.96344L32.3808 7.09978L32.6026 7.19451L32.8807 7.18065L33.5932 6.86022L33.9336 6.86869L34.9966 7.15831L35.9286 6.81554L36.2506 6.79937L36.6196 6.89642L36.7829 6.84713L36.93 6.60603L36.9631 6.36263L36.8884 5.89199L36.8999 5.68787L37.1264 5.39979L37.7757 4.95149L37.8774 4.57483L37.8373 4.05643L37.8582 3.63124L37.9498 3.23687L38.1131 2.81553L38.4189 3.00425L38.5822 3.03043L39.8154 3.23071L40.142 3.39631L40.4316 3.66822L40.9392 4.52014L41.2134 4.87369L41.5323 5.02004L41.8805 4.81823L42.0238 4.50473L42.0569 4.08648L41.9729 3.15291L41.6255 2.92799L41.3459 2.80782L41.1441 2.5598L40.987 1.72329L40.9292 1.54073V1.36819L41.0501 1.17563L41.2758 1.02003L41.4969 1L44.0011 1.89968L44.3531 2.3811L44.5865 3.13596L44.8876 3.66591L45.4468 3.47488L46.6192 2.30176L46.9581 2.21164L48.95 3.08666L51.693 3.46333L53.4854 4.4901L53.8782 4.86907L55.0121 6.45582L55.4118 6.73312L56.5241 6.85329L57.0633 7.05587L58.9944 8.3607L59.2262 8.39691L59.4727 8.16506L59.9287 7.38708L60.2168 7.14907L61.4446 6.72542L61.5817 6.58678L61.621 6.39883L61.6279 6.19163L61.6603 5.99983L61.8267 5.61777L62.4005 4.70346L62.6647 4.60333L62.7849 4.65878Z" fill="#A9BDFF" stroke="black" stroke-opacity="0.3" stroke-width="0.5" stroke-linecap="round" stroke-linejoin="round"/>
<path d="M32.0563 27.9474C31.874 27.9474 31.7829 27.8497 31.7829 27.6544V22.6388C31.7829 22.4435 31.874 22.3458 32.0563 22.3458H33.5173C34.4548 22.3458 35.1045 22.4982 35.4665 22.8028C35.8311 23.1075 36.0134 23.5398 36.0134 24.0997C36.0134 24.6596 35.8311 25.0919 35.4665 25.3966C35.1045 25.7013 34.4548 25.8536 33.5173 25.8536H32.9235V27.6544C32.9235 27.8497 32.8324 27.9474 32.6501 27.9474H32.0563ZM32.9235 24.9005H33.5134C34.0342 24.9005 34.3884 24.8393 34.5759 24.7169C34.7634 24.5919 34.8571 24.3862 34.8571 24.0997C34.8571 23.8133 34.7634 23.6088 34.5759 23.4864C34.3884 23.3614 34.0342 23.2989 33.5134 23.2989H32.9235V24.9005ZM36.6579 25.8966C36.6579 25.2377 36.822 24.7182 37.1501 24.338C37.4808 23.9578 37.947 23.7677 38.5485 23.7677C39.2464 23.7677 39.7647 23.9474 40.1032 24.3067C40.4418 24.6661 40.611 25.2442 40.611 26.0411C40.611 26.1974 40.5381 26.2755 40.3923 26.2755H37.8141C37.8558 26.7078 37.9626 26.9799 38.1345 27.0919C38.3063 27.2039 38.5056 27.2599 38.7321 27.2599C38.9483 27.2599 39.1136 27.2312 39.2282 27.1739C39.3428 27.1166 39.4391 27.0385 39.5173 26.9396C39.6058 26.825 39.7152 26.8067 39.8454 26.8849L40.236 27.1232C40.3897 27.2169 40.4118 27.3289 40.3024 27.4591C40.1436 27.6492 39.9574 27.7911 39.7438 27.8849C39.5303 27.9786 39.1931 28.0255 38.7321 28.0255C37.9847 28.0255 37.4522 27.8354 37.1345 27.4552C36.8168 27.075 36.6579 26.5554 36.6579 25.8966ZM37.8181 25.4942H39.5173C39.5173 25.213 39.447 24.9838 39.3063 24.8067C39.1657 24.6271 38.9418 24.5372 38.6345 24.5372C38.3897 24.5372 38.1957 24.6232 38.0524 24.795C37.9092 24.9643 37.8311 25.1974 37.8181 25.4942ZM41.3259 24.6271C41.1722 24.6271 41.0954 24.562 41.0954 24.4317V24.0411C41.0954 23.9109 41.1722 23.8458 41.3259 23.8458H41.5915V23.7091C41.5915 23.5919 41.6188 23.4851 41.6735 23.3888L41.9743 22.8614C42.0316 22.7625 42.0993 22.713 42.1774 22.713H42.4509C42.6071 22.713 42.6852 22.7911 42.6852 22.9474V23.8458H43.3181C43.4717 23.8458 43.5485 23.9109 43.5485 24.0411V24.4317C43.5485 24.562 43.4717 24.6271 43.3181 24.6271H42.6852V26.5646C42.6852 26.8302 42.7035 27.0216 42.7399 27.1388C42.779 27.2534 42.878 27.3107 43.0368 27.3107C43.1175 27.3107 43.2087 27.2976 43.3102 27.2716C43.4118 27.2429 43.4912 27.2156 43.5485 27.1896C43.6397 27.1479 43.6996 27.1778 43.7282 27.2794L43.8454 27.7247C43.8688 27.8133 43.835 27.8784 43.7438 27.92C43.6579 27.9591 43.5394 27.9942 43.3884 28.0255C43.2399 28.0594 43.0902 28.0763 42.9391 28.0763C42.5668 28.0763 42.249 27.9995 41.986 27.8458C41.723 27.6922 41.5915 27.3758 41.5915 26.8966V24.6271H41.3259ZM44.8141 27.9474C44.6579 27.9474 44.5798 27.8692 44.5798 27.713V24.0802C44.5798 23.9239 44.6579 23.8458 44.8141 23.8458H45.4313C45.5876 23.8458 45.6657 23.9239 45.6657 24.0802V24.4005H45.6813C45.749 24.2338 45.8623 24.0867 46.0212 23.9591C46.18 23.8315 46.3675 23.7677 46.5837 23.7677C46.7321 23.7677 46.8545 23.7859 46.9509 23.8224C47.042 23.8562 47.0772 23.9187 47.0563 24.0099L46.947 24.4747C46.9235 24.5789 46.8532 24.6101 46.736 24.5685C46.6683 24.545 46.6032 24.5333 46.5407 24.5333C46.2907 24.5333 46.0837 24.683 45.9196 24.9825C45.7556 25.282 45.6735 25.7182 45.6735 26.2911V27.713C45.6735 27.8692 45.5954 27.9474 45.4391 27.9474H44.8141ZM47.4313 25.8966C47.4313 25.2325 47.6019 24.7117 47.9431 24.3341C48.2868 23.9565 48.7972 23.7677 49.4743 23.7677C50.1514 23.7677 50.6605 23.9565 51.0016 24.3341C51.3454 24.7117 51.5173 25.2325 51.5173 25.8966C51.5173 26.5607 51.3454 27.0815 51.0016 27.4591C50.6605 27.8367 50.1514 28.0255 49.4743 28.0255C48.7972 28.0255 48.2868 27.8367 47.9431 27.4591C47.6019 27.0815 47.4313 26.5607 47.4313 25.8966ZM48.5876 25.8966C48.5876 26.3914 48.6631 26.7429 48.8141 26.9513C48.9678 27.157 49.1878 27.2599 49.4743 27.2599C49.7608 27.2599 49.9795 27.157 50.1306 26.9513C50.2842 26.7429 50.361 26.3914 50.361 25.8966C50.361 25.4018 50.2842 25.0515 50.1306 24.8458C49.9795 24.6375 49.7608 24.5333 49.4743 24.5333C49.1878 24.5333 48.9678 24.6375 48.8141 24.8458C48.6631 25.0515 48.5876 25.4018 48.5876 25.8966ZM52.5954 29.5099C52.4391 29.5099 52.361 29.4317 52.361 29.2755V24.0802C52.361 23.9239 52.4391 23.8458 52.5954 23.8458H53.2126C53.3428 23.8458 53.4131 23.9239 53.4235 24.0802L53.4391 24.3067H53.4548C53.5902 24.0828 53.7412 23.937 53.9079 23.8692C54.0746 23.8015 54.2751 23.7677 54.5095 23.7677C55.1214 23.7677 55.5511 23.9799 55.7985 24.4044C56.0485 24.8263 56.1735 25.3237 56.1735 25.8966C56.1735 26.4695 56.0485 26.9682 55.7985 27.3927C55.5511 27.8146 55.1214 28.0255 54.5095 28.0255C54.2751 28.0255 54.0746 27.9916 53.9079 27.9239C53.7412 27.8562 53.5902 27.7104 53.4548 27.4864H53.4391C53.4496 27.5906 53.4548 27.6948 53.4548 27.7989V29.2755C53.4548 29.4317 53.3766 29.5099 53.2204 29.5099H52.5954ZM53.4548 26.0724C53.4548 26.4239 53.5238 26.7104 53.6618 26.9317C53.8024 27.1505 53.9704 27.2599 54.1657 27.2599C54.5173 27.2599 54.7464 27.1375 54.8532 26.8927C54.9626 26.6453 55.0173 26.3133 55.0173 25.8966C55.0173 25.4799 54.9626 25.1492 54.8532 24.9044C54.7464 24.657 54.5173 24.5333 54.1657 24.5333C53.9704 24.5333 53.8024 24.644 53.6618 24.8653C53.5238 25.0841 53.4548 25.3692 53.4548 25.7208V26.0724ZM56.7985 26.8536C56.7985 26.3328 57.0472 25.9552 57.5446 25.7208C58.042 25.4864 58.6097 25.3614 59.2477 25.3458V25.1896C59.2477 24.95 59.1878 24.7807 59.0681 24.6817C58.9483 24.5828 58.7816 24.5333 58.5681 24.5333C58.417 24.5333 58.2829 24.5554 58.1657 24.5997C58.0511 24.6414 57.9509 24.6909 57.8649 24.7482C57.7816 24.8028 57.7061 24.8588 57.6384 24.9161C57.5186 25.0203 57.4196 25.0255 57.3415 24.9317L57.0173 24.5333C56.9365 24.4344 56.9561 24.3328 57.0759 24.2286C57.167 24.1479 57.2725 24.0776 57.3923 24.0177C57.5147 23.9578 57.6761 23.9018 57.8766 23.8497C58.0772 23.795 58.3376 23.7677 58.6579 23.7677C59.1996 23.7677 59.6149 23.8927 59.904 24.1427C60.1957 24.3927 60.3415 24.7612 60.3415 25.2482V27.713C60.3415 27.8692 60.2634 27.9474 60.1071 27.9474H59.4665C59.3259 27.9474 59.2556 27.8692 59.2556 27.713V27.5958H59.2477C59.0941 27.7442 58.9092 27.8536 58.6931 27.9239C58.4795 27.9916 58.2829 28.0255 58.1032 28.0255C57.6761 28.0255 57.3519 27.9213 57.1306 27.713C56.9092 27.5021 56.7985 27.2156 56.7985 26.8536ZM57.9548 26.8302C57.9548 26.9213 57.973 27.0008 58.0095 27.0685C58.0459 27.1336 58.1032 27.1817 58.1813 27.213C58.2595 27.2442 58.3467 27.2599 58.4431 27.2599C58.5759 27.2599 58.7048 27.2416 58.8298 27.2052C58.9548 27.1687 59.0941 27.0828 59.2477 26.9474V26.0997C58.8102 26.1492 58.5173 26.213 58.3688 26.2911C58.2204 26.3692 58.1136 26.45 58.0485 26.5333C57.986 26.6166 57.9548 26.7156 57.9548 26.8302ZM61.1384 24.1505C61.0733 23.9474 61.1162 23.8458 61.2673 23.8458H61.9665C62.0889 23.8458 62.167 23.9122 62.2009 24.045L62.8063 26.3341C62.8402 26.4617 62.8675 26.588 62.8884 26.713C62.9118 26.838 62.9261 26.9396 62.9313 27.0177H62.9548C62.96 26.9396 62.973 26.838 62.9938 26.713C63.0173 26.588 63.0459 26.4617 63.0798 26.3341L63.6852 24.045C63.7191 23.9122 63.7972 23.8458 63.9196 23.8458H64.6188C64.7699 23.8458 64.8128 23.9474 64.7477 24.1505L63.6149 27.6857C63.5602 27.8601 63.4652 27.9474 63.3298 27.9474H62.5563C62.4209 27.9474 62.3259 27.8601 62.2712 27.6857L61.1384 24.1505ZM65.5798 27.9474C65.4235 27.9474 65.3454 27.8692 65.3454 27.713V23.0997C65.3454 22.9825 65.3727 22.8758 65.4274 22.7794L65.7282 22.2521C65.7855 22.1531 65.8532 22.1036 65.9313 22.1036H66.2048C66.361 22.1036 66.4391 22.1817 66.4391 22.338V27.713C66.4391 27.8692 66.361 27.9474 66.2048 27.9474H65.5798Z" fill="#1C2434"/>
</svg>
