<svg width="70" height="105" viewBox="0 0 70 105" fill="none" xmlns="http://www.w3.org/2000/svg">
<path d="M68.6498 71.3594L68.3147 71.6799L68.1453 71.971L68.2215 72.2529L68.7754 72.8068L69.0657 72.9616L69.4725 73.0594L68.9995 73.4461L68.5266 73.8335L68.2639 73.9691L68.0012 74.1031L67.737 74.1416L67.4728 74.1802L67.1501 74.09L66.8258 73.9999L66.6602 74.0069L66.493 74.0138L66.3937 74.1478L66.2928 74.2834L66.2366 74.4567L66.1803 74.6316L66.1048 74.7571L66.0309 74.8827L65.8368 75.1168L65.6404 75.351L65.4763 75.6568L65.3138 75.9618L65.1867 76.3038L65.0573 76.6458L64.9086 76.9208L64.7607 77.1973L64.5412 77.3013L64.3247 77.4061L64.1583 77.3822L63.9935 77.3598L63.8479 77.3005L63.7001 77.242L63.5938 77.1326L63.4859 77.0232L63.4366 76.8484L63.3873 76.6728L63.3365 76.5495L63.2841 76.4278L63.1732 76.303L63.0615 76.1767L62.9344 76.0858L62.8058 75.9941L62.7018 75.9749L62.5993 75.9549L61.92 76.2499L61.2383 76.5449L60.9378 76.8037L60.6405 77.0625L60.4672 77.4453L60.2939 77.8266L60.2446 77.9907L60.1922 78.154L60.1044 78.2549L60.0158 78.3542L59.9019 78.4143L59.7863 78.4744L59.6607 78.5191L59.5336 78.5645L59.4127 78.6323L59.2933 78.7017L59.1932 78.8049L59.0923 78.9088L58.6209 79.7277L58.1464 80.5472L57.9692 80.7529L57.7936 80.9601L57.2121 81.3899L56.6328 81.8174L56.2423 81.9599L55.8517 82.1047L55.7431 82.1917L55.6353 82.2796L55.5398 82.4236L55.4443 82.5676L55.2317 82.8172L55.0191 83.0683L54.7302 83.1923L54.4391 83.3156L53.6619 83.3441L52.8847 83.3741L51.9434 83.636L51.0021 83.8979L50.8827 83.9919L50.7649 84.0851L50.5646 84.3169L50.3667 84.5488L49.658 85.1103L48.9478 85.6695L48.5504 85.7951L48.1529 85.9222L47.968 86.0577L47.7816 86.1933L47.6923 86.4359L47.6006 86.6786L47.6276 86.7772L47.6522 86.875L47.7678 87.0876L47.8849 87.3025L47.8933 87.3988L47.9018 87.495L47.8194 87.5413L47.7385 87.5906L47.3218 87.5151L46.9081 87.438L46.8018 87.4666L46.6986 87.495L46.429 87.6684L46.1602 87.8409L46.0585 87.8563L45.9561 87.8709L45.7497 87.797L45.5424 87.7215L45.4308 87.7446L45.3168 87.7693L44.9363 88.0096L44.5573 88.2514L44.3855 88.4201L44.2153 88.5881L44.1444 88.7806L44.0736 88.9732L43.9449 88.9216L43.8147 88.8708L43.6838 88.9108L43.5529 88.9516L43.2309 89.1095L42.9089 89.2682L42.8511 89.3152L42.7934 89.3637L42.7618 89.4292L42.7294 89.4947L42.7487 89.5709L42.7664 89.6472L42.8303 89.7288L42.895 89.8112L42.9297 89.8359L42.9621 89.8598L42.9813 89.8929L43.0013 89.9268L43.0198 90.0346L43.0398 90.144L43.046 90.2973L43.0522 90.449L42.9428 91.3287L42.8342 92.2084L42.778 92.3154L42.7233 92.4217L42.6031 92.5388L42.4845 92.6559L42.2465 92.8207L42.0054 92.9848L41.7535 93.1072L41.5032 93.2312L41.2028 93.2706L40.9039 93.3098L40.7599 93.3568L40.6166 93.4046L40.5249 93.524L40.4371 93.6441L40.263 93.943L40.0889 94.2434L39.6106 94.4537L39.1307 94.664L38.9366 94.8804L38.7471 95.0969L38.4906 95.834L38.2349 96.5719L38.0955 96.7445L37.9538 96.9185L37.5247 97.1073L37.3976 97.1627L37.0964 97.2944L36.9016 97.4277L36.7082 97.5609L36.632 97.7759L36.5557 97.9923L36.5241 97.9723L36.4941 97.9515L36.4279 97.926L36.3631 97.9006L36.3308 97.8837L36.3015 97.866L36.2985 97.9677L36.2969 98.0685L36.3139 98.2742L36.3323 98.4806L36.3239 98.57L36.3146 98.6586L36.2707 98.7618L36.2245 98.8666L36.1783 98.8997L36.1352 98.9336L36.0959 98.9813L36.0573 99.0268L36.0304 99.1685L36.0057 99.3102L36.0751 100.079L36.1467 100.847L36.1922 101.022L36.2384 101.192L36.2961 101.266L36.3539 101.339L36.4201 101.377L36.4879 101.415L36.6651 101.456L36.84 101.498L36.8338 101.612L36.8269 101.727L36.853 101.844L36.8777 101.962L36.9239 102.074L36.9717 102.188L37.0317 102.29L37.0918 102.392L37.0772 102.454L37.0641 102.515L36.8939 102.795L36.7244 103.072L36.8577 103.144L36.9932 103.215L36.9516 103.335L36.9077 103.455L36.7583 103.543L36.6112 103.631L36.4248 103.604L36.2376 103.576L35.9603 103.438L35.6815 103.3L35.6006 103.286L35.5205 103.272L35.455 103.316L35.3903 103.36L35.351 103.44L35.3117 103.519L35.2617 103.583L35.2077 103.648L35.1022 103.642L34.9967 103.637L34.9104 103.724L34.8249 103.811L34.8018 103.857L34.7787 103.903L33.1342 103.041L32.0535 102.474L31.4896 102.177L31.0198 101.807L30.5522 101.438L29.9145 100.807L29.2759 100.174L29.0633 100.055L28.8515 99.9349L28.5757 99.8764L28.2992 99.8163L28.2537 99.7832L28.2075 99.7508L28.2299 99.6784L28.2514 99.606L28.3146 99.549L28.377 99.492L28.6219 99.3819L28.8669 99.2709L28.9832 99.1777L29.0979 99.0869L29.2012 98.9713L29.3044 98.855L29.383 98.7341L29.4584 98.6131L29.5647 98.3743L29.6733 98.1348L29.7758 97.8336L29.8798 97.5332L29.9491 97.2236L30.0169 96.9147L30.02 96.6528L30.0215 96.3894L29.9638 96.2815L29.9067 96.1737L29.8744 96.1298L29.8397 96.0859L29.7827 96.0551L29.7257 96.0235L29.7866 95.9942L29.8451 95.9649L30.0076 95.8471L30.1679 95.7292L30.1494 95.7115L30.1286 95.6923L30.0616 95.6707L29.9953 95.6484L30.0123 95.5629L30.03 95.4781L30.0277 95.4581L30.0261 95.4373L30 95.2417L29.9722 95.0452L29.822 95.0606L29.6733 95.0745L29.5763 95.2809L29.48 95.4874L29.4068 95.3903L29.3306 95.2925L29.2443 95.2779L29.1588 95.2655L29.071 95.3064L28.9816 95.3495L28.8977 95.4188L28.8145 95.4874L28.7205 95.3356L28.6296 95.1839L28.5734 94.8265L28.5187 94.4698L28.4478 94.3058L28.377 94.1417L28.0681 93.7381L27.7608 93.3329L27.7115 93.2305L27.6622 93.1273L27.646 93.1149L27.6283 93.1026L27.5451 92.84L27.4596 92.5765L27.2816 92.6913L27.1053 92.8061L26.7016 93.0741L26.298 93.3414L26.164 93.3614L26.03 93.3807L25.8767 93.3275L25.7242 93.2729L25.4315 93.1203L25.1372 92.9671L24.9785 92.9231L24.8191 92.8785L23.0344 92.984L21.2243 93.0942L20.0904 93.1627L18.3103 93.2682L16.8183 93.3584L14.7833 93.4808L13.4214 93.5609L11.8008 93.658L11.2261 93.5093L10.9997 93.45L10.6515 93.3591L10.3419 92.9794L10.0276 92.5996L9.43219 89.8752L8.83369 87.1438L8.38769 84.8492L7.94325 82.5515L7.69984 80.1952L7.45798 77.8335L7.42333 77.8143L7.38866 77.7943L7.34091 77.7835L7.29392 77.7719L7.24153 77.7696L7.18838 77.7673L7.13756 77.7742L7.08441 77.782L5.39904 77.7742L3.8747 77.7689L2.34339 77.7627L0.663435 77.7558L0.602576 77.7095L0.543269 77.661L0.527096 77.5601L0.512451 77.4592L0.562521 73.8081L0.605656 70.7132L1.91357 70.9173L2.9935 71.0891L7.35246 66.8333L9.45838 65.775L10.6947 66.2626L13.6756 63.6074L20.4417 59.1283L27.277 55.7977L27.9318 55.1244L27.5397 54.8756L26.5692 54.0545L26.4783 52.7204L25.9391 52.6819L25.9537 51.9771L25.4461 52.2097L25.0325 53.7973L24.8191 51.9394L26.0346 50.7863L26.3882 49.074L27.3849 47.2931L27.4773 45.3243L28.9069 46.1439L29.4561 44.6364L29.3121 43.3262L28.9585 42.5829L29.8906 41.4645L31.1654 41.4552L31.1569 40.1989L27.8948 37.7371L26.5753 36.1234L26.4328 35.5411L25.6225 34.928L24.7714 34.542L24.1829 34.6845L22.8541 33.6609L22.6624 18.7685L21.5847 17.4213L19.7446 16.2851L18.4567 15.1828L18.4929 12.8559L19.3926 8.14642L20.4655 6.35708L19.9133 4.31817L18.4151 3.11502L18.2279 1.18086L44.6736 1.59681L46.4344 4.47995L49.4932 12.5061L53.5186 26.7816L55.0052 36.3768L55.0877 37.8434L54.6317 38.5251L51.254 48.6649L50.0123 50.3896L49.6996 50.9796L50.4298 51.2708L50.9421 51.7668L50.8712 52.5787L51.6992 53.8158L52.2947 54.1138L53.7659 54.6284L54.9344 54.6985L55.5937 54.9003L56.5612 55.4688L57.6865 55.867L57.9754 57.0755L58.4383 57.6078L59.0037 57.5223L59.3719 57.9298L59.0646 58.5621L59.8217 59.1668L59.6399 59.6814L59.975 60.3592L59.8217 61.7395L59.985 63.3964L60.7568 64.5163L61.7651 64.7929L62.3475 65.0324L63.2818 65.8582L63.8849 66.6824L64.2716 67.3486L64.9425 67.5974L66.3644 69.2181L67.3873 69.6294L67.4551 70.1786L67.8071 70.4135L67.8618 70.6477L68.5959 71.3463L68.6405 71.3533L68.6498 71.3594Z" fill="#A9BDFF" stroke="black" stroke-opacity="0.3" stroke-width="0.5" stroke-linecap="round" stroke-linejoin="round"/>
<path d="M21.6914 75.582C21.5299 75.4596 21.4909 75.3359 21.5742 75.2109L21.875 74.7578C21.974 74.6094 22.1185 74.6016 22.3086 74.7344C22.4544 74.8359 22.6445 74.9414 22.8789 75.0508C23.1159 75.1576 23.3646 75.2109 23.625 75.2109C23.8073 75.2109 23.9831 75.1901 24.1523 75.1484C24.3216 75.1068 24.4505 75.026 24.5391 74.9062C24.6276 74.7865 24.6719 74.6445 24.6719 74.4805C24.6719 74.3633 24.6523 74.2604 24.6133 74.1719C24.5742 74.0833 24.5104 74.0104 24.4219 73.9531C24.3333 73.8958 24.2422 73.8477 24.1484 73.8086C23.9844 73.7409 23.7773 73.6745 23.5273 73.6094C23.2799 73.5417 23.0352 73.4609 22.793 73.3672C22.5768 73.2839 22.3789 73.1693 22.1992 73.0234C22.0195 72.8776 21.8802 72.7135 21.7812 72.5312C21.6823 72.349 21.6328 72.1055 21.6328 71.8008C21.6328 71.4388 21.75 71.1289 21.9844 70.8711C22.2188 70.6133 22.4883 70.4479 22.793 70.375C23.0977 70.3021 23.4049 70.2656 23.7148 70.2656C24.0221 70.2656 24.3385 70.3125 24.6641 70.4062C24.9922 70.5 25.2396 70.6172 25.4062 70.7578C25.5703 70.8958 25.6107 71.0208 25.5273 71.1328L25.2109 71.5586C25.1042 71.7044 24.9609 71.7161 24.7812 71.5938C24.6667 71.5156 24.5091 71.4284 24.3086 71.332C24.1107 71.2357 23.9036 71.1875 23.6875 71.1875C23.5339 71.1875 23.3919 71.2005 23.2617 71.2266C23.1341 71.2526 23.0208 71.3151 22.9219 71.4141C22.8229 71.513 22.7734 71.6354 22.7734 71.7812C22.7734 71.9219 22.8099 72.0365 22.8828 72.125C22.9557 72.2109 23.0365 72.276 23.125 72.3203C23.2135 72.362 23.3034 72.3971 23.3945 72.4258C23.6758 72.5169 23.9271 72.5977 24.1484 72.668C24.3698 72.7357 24.5742 72.8112 24.7617 72.8945C25.0221 73.0117 25.2214 73.1289 25.3594 73.2461C25.4974 73.3633 25.6107 73.5234 25.6992 73.7266C25.7904 73.9297 25.8359 74.1719 25.8359 74.4531C25.8359 74.8698 25.7031 75.2148 25.4375 75.4883C25.1719 75.7591 24.8763 75.9336 24.5508 76.0117C24.2279 76.0924 23.9128 76.1328 23.6055 76.1328C23.1523 76.1328 22.7839 76.0885 22.5 76C22.2161 75.9141 21.9466 75.7747 21.6914 75.582ZM26.875 76C26.7188 76 26.6406 75.9219 26.6406 75.7656V70.4688C26.6406 70.3125 26.7188 70.2344 26.875 70.2344H27.5C27.6562 70.2344 27.7344 70.3125 27.7344 70.4688V72.0469C27.7344 72.151 27.7292 72.2552 27.7188 72.3594H27.7422C27.862 72.1536 28.0143 72.013 28.1992 71.9375C28.3841 71.8594 28.6068 71.8203 28.8672 71.8203C29.2734 71.8203 29.6094 71.9479 29.875 72.2031C30.1406 72.4583 30.2734 72.9245 30.2734 73.6016V75.7656C30.2734 75.9219 30.1953 76 30.0391 76H29.4141C29.2578 76 29.1797 75.9219 29.1797 75.7656V73.8828C29.1797 73.3151 29.1406 72.957 29.0625 72.8086C28.9844 72.6602 28.8164 72.5859 28.5586 72.5859C28.2852 72.5859 28.0794 72.6927 27.9414 72.9062C27.8034 73.1172 27.7344 73.5573 27.7344 74.2266V75.7656C27.7344 75.9219 27.6562 76 27.5 76H26.875ZM31.0742 72.2031C31.0039 72 31.0469 71.8984 31.2031 71.8984H31.9023C32.0221 71.8984 32.1003 71.9648 32.1367 72.0977L32.7266 74.2812C32.7552 74.3828 32.7799 74.5143 32.8008 74.6758C32.8242 74.8346 32.8359 74.9362 32.8359 74.9805H32.8594C32.8906 74.8424 32.9128 74.7331 32.9258 74.6523C32.9414 74.569 32.9818 74.4089 33.0469 74.1719L33.6055 72.0977C33.6419 71.9648 33.7201 71.8984 33.8398 71.8984H34.5391C34.6927 71.8984 34.7357 72 34.668 72.2031L33.3516 76.1641C33.1979 76.6276 33.0091 76.9896 32.7852 77.25C32.5612 77.5104 32.25 77.6406 31.8516 77.6406C31.6328 77.6406 31.4375 77.6224 31.2656 77.5859C31.1667 77.5651 31.1289 77.4974 31.1523 77.3828L31.2383 76.9531C31.2617 76.8411 31.3281 76.8021 31.4375 76.8359C31.5182 76.862 31.5938 76.875 31.6641 76.875C31.875 76.875 32.0352 76.7747 32.1445 76.5742C32.2565 76.3737 32.3307 76.2018 32.3672 76.0586L32.3789 76L31.0742 72.2031ZM35.4297 76C35.2734 76 35.1953 75.9219 35.1953 75.7656V72.1328C35.1953 71.9766 35.2734 71.8984 35.4297 71.8984H36.0469C36.2031 71.8984 36.2812 71.9766 36.2812 72.1328V72.3594H36.2969C36.3724 72.1927 36.5 72.0612 36.6797 71.9648C36.8594 71.8685 37.0273 71.8203 37.1836 71.8203C37.4961 71.8203 37.7383 71.8932 37.9102 72.0391C38.0846 72.1849 38.2044 72.3477 38.2695 72.5273H38.2852C38.5117 72.2331 38.7161 72.0417 38.8984 71.9531C39.0833 71.8646 39.319 71.8203 39.6055 71.8203C39.9909 71.8203 40.3151 71.9479 40.5781 72.2031C40.8438 72.4583 40.9766 72.9245 40.9766 73.6016V75.7656C40.9766 75.9219 40.8984 76 40.7422 76H40.1172C39.9609 76 39.8828 75.9219 39.8828 75.7656V73.8828C39.8828 73.3151 39.8438 72.957 39.7656 72.8086C39.6901 72.6602 39.5547 72.5859 39.3594 72.5859C39.1771 72.5859 39.0104 72.6927 38.8594 72.9062C38.7083 73.1198 38.6328 73.5599 38.6328 74.2266V75.7656C38.6328 75.9219 38.5547 76 38.3984 76H37.7734C37.6172 76 37.5391 75.9219 37.5391 75.7656V73.8828C37.5391 73.3151 37.5 72.957 37.4219 72.8086C37.3464 72.6602 37.2109 72.5859 37.0156 72.5859C36.8333 72.5859 36.6667 72.6927 36.5156 72.9062C36.3646 73.1172 36.2891 73.5573 36.2891 74.2266V75.7656C36.2891 75.9219 36.2109 76 36.0547 76H35.4297ZM42.2656 76C42.1094 76 42.0312 75.9219 42.0312 75.7656V70.4688C42.0312 70.3125 42.1094 70.2344 42.2656 70.2344H42.8906C43.0469 70.2344 43.125 70.3125 43.125 70.4688V73.3398C43.125 73.444 43.1198 73.5482 43.1094 73.6523H43.125L44.3633 72.0586C44.4466 71.9518 44.5482 71.8984 44.668 71.8984H45.3086C45.5482 71.8984 45.5885 71.9948 45.4297 72.1875L44.25 73.6133L45.6172 75.7109C45.7422 75.9036 45.7018 76 45.4961 76H44.8281C44.6979 76 44.5911 75.9323 44.5078 75.7969L43.6211 74.3711L43.125 74.9688V75.7656C43.125 75.9219 43.0469 76 42.8906 76H42.2656ZM46.1719 73.9492C46.1719 73.2904 46.3359 72.7708 46.6641 72.3906C46.9948 72.0104 47.4609 71.8203 48.0625 71.8203C48.7604 71.8203 49.2786 72 49.6172 72.3594C49.9557 72.7188 50.125 73.2969 50.125 74.0938C50.125 74.25 50.0521 74.3281 49.9062 74.3281H47.3281C47.3698 74.7604 47.4766 75.0326 47.6484 75.1445C47.8203 75.2565 48.0195 75.3125 48.2461 75.3125C48.4622 75.3125 48.6276 75.2839 48.7422 75.2266C48.8568 75.1693 48.9531 75.0911 49.0312 74.9922C49.1198 74.8776 49.2292 74.8594 49.3594 74.9375L49.75 75.1758C49.9036 75.2695 49.9258 75.3815 49.8164 75.5117C49.6576 75.7018 49.4714 75.8438 49.2578 75.9375C49.0443 76.0312 48.707 76.0781 48.2461 76.0781C47.4987 76.0781 46.9661 75.888 46.6484 75.5078C46.3307 75.1276 46.1719 74.6081 46.1719 73.9492ZM47.332 73.5469H49.0312C49.0312 73.2656 48.9609 73.0365 48.8203 72.8594C48.6797 72.6797 48.4557 72.5898 48.1484 72.5898C47.9036 72.5898 47.7096 72.6758 47.5664 72.8477C47.4232 73.0169 47.3451 73.25 47.332 73.5469ZM51.2109 76C51.0547 76 50.9766 75.9219 50.9766 75.7656V72.1328C50.9766 71.9766 51.0547 71.8984 51.2109 71.8984H51.8281C51.9844 71.8984 52.0625 71.9766 52.0625 72.1328V72.3594H52.0781C52.1979 72.1536 52.3503 72.013 52.5352 71.9375C52.7201 71.8594 52.9427 71.8203 53.2031 71.8203C53.6094 71.8203 53.9453 71.9479 54.2109 72.2031C54.4766 72.4583 54.6094 72.9245 54.6094 73.6016V75.7656C54.6094 75.9219 54.5312 76 54.375 76H53.75C53.5938 76 53.5156 75.9219 53.5156 75.7656V73.8828C53.5156 73.3151 53.4766 72.957 53.3984 72.8086C53.3203 72.6602 53.1523 72.5859 52.8945 72.5859C52.6211 72.5859 52.4154 72.6927 52.2773 72.9062C52.1393 73.1172 52.0703 73.5573 52.0703 74.2266V75.7656C52.0703 75.9219 51.9922 76 51.8359 76H51.2109ZM55.5273 72.6797C55.3737 72.6797 55.2969 72.6146 55.2969 72.4844V72.0938C55.2969 71.9635 55.3737 71.8984 55.5273 71.8984H55.793V71.7617C55.793 71.6445 55.8203 71.5378 55.875 71.4414L56.1758 70.9141C56.2331 70.8151 56.3008 70.7656 56.3789 70.7656H56.6523C56.8086 70.7656 56.8867 70.8438 56.8867 71V71.8984H57.5195C57.6732 71.8984 57.75 71.9635 57.75 72.0938V72.4844C57.75 72.6146 57.6732 72.6797 57.5195 72.6797H56.8867V74.6172C56.8867 74.8828 56.9049 75.0742 56.9414 75.1914C56.9805 75.306 57.0794 75.3633 57.2383 75.3633C57.319 75.3633 57.4102 75.3503 57.5117 75.3242C57.6133 75.2956 57.6927 75.2682 57.75 75.2422C57.8411 75.2005 57.901 75.2305 57.9297 75.332L58.0469 75.7773C58.0703 75.8659 58.0365 75.931 57.9453 75.9727C57.8594 76.0117 57.7409 76.0469 57.5898 76.0781C57.4414 76.112 57.2917 76.1289 57.1406 76.1289C56.7682 76.1289 56.4505 76.0521 56.1875 75.8984C55.9245 75.7448 55.793 75.4284 55.793 74.9492V72.6797H55.5273Z" fill="#1C2434"/>
</svg>
