<svg width="151" height="131" viewBox="0 0 151 131" fill="none" xmlns="http://www.w3.org/2000/svg">
<path d="M150 57.7237L148.282 57.2253L147.742 56.9265L147.105 56.7778L145.139 57.572L144.736 57.5281L143.91 57.2654L143.521 57.297L143.223 57.5412L142.916 58.293L142.675 58.6373L142.133 59.1064L141.901 59.3698L141.678 59.738L141.488 60.1709L141.425 60.5036L141.455 60.8672L141.546 61.3871L141.878 62.1027L142.323 62.5302L142.543 62.94L142.197 63.6063L141.938 63.9182L141.842 64.1146L141.861 64.3642L142.019 65.2616L142.021 65.5512L141.916 65.8015L140.862 67.262L140.194 67.9159L139.977 68.1902L139.809 68.526L139.553 69.247L139.413 69.5096L139.152 69.7222L137.536 70.38L136.186 70.2853L135.817 70.4386L135.523 70.7197L134.971 71.3983L134.207 71.7996L131.611 71.5624L128.509 72.023L128.003 72.3897L127.601 73.0444L125.755 77.5905L125.412 79.8936L125.207 80.677L124.95 81.2254L124.798 81.6814L124.764 82.1875L125.881 88.3196L125.886 89.0044L125.666 90.3886L125.73 91.0202V91.0233L125.948 91.6356L126.927 93.2571L127.046 93.6784L126.978 94.0797L126.883 94.4541L126.924 94.803L127.047 95.1789V95.5032L126.899 96.1802L126.843 96.6016L126.777 96.9043L126.605 97.0807L125.967 97.1516L125.63 97.2594L125.341 97.4727L125.206 97.8148L125.166 98.1999L125.087 98.5126L124.963 98.7915L124.784 99.0772L124.661 99.4408L124.629 99.8213L124.53 100.068L123.601 100.042L121.81 100.322L121.006 100.22L120.723 100.277L120.434 100.438L120.245 100.651L119.908 101.269L119.609 101.573L118.649 102.282L118.245 102.742L118.065 102.859L117.438 103.008L117.234 103.123L117.005 103.35L116.69 103.958L116.4 104.17L115.342 104.403L114.322 104.831L113.938 104.898L113.662 104.765L113.603 104.483L113.727 104.176L113.924 103.853L114.078 103.521L114.106 102.798L113.827 102.191L113.374 101.733L112.877 101.456L112.214 101.407L110.888 101.742L110.256 101.631L109.504 101.267L109.282 101.244L109.051 101.266L109.041 101.269L107.327 101.124L105.837 101.264L105.832 101.266L105.824 101.267L105.82 101.269L104.929 101.791L104.589 101.852L103.606 101.65L102.296 101.658L96.9816 99.7566L94.5938 98.1652L94.0461 97.9002L92.7598 97.6145L92.4802 97.4419L91.7607 96.8034L91.4264 96.6794L91.0459 96.6362L90.6623 96.6609L90.3173 96.7395L89.9622 96.9189L89.8512 97.1508L89.8743 97.9734L89.8327 98.213L89.681 98.6482L89.6379 98.8754L89.6548 99.0842L89.7503 99.4808L89.7388 99.7019L89.5254 100.47L89.4607 100.87L89.5007 101.269L89.5708 101.623L89.5493 101.967L89.4615 102.298L87.4164 106.57L86.1393 111.412L85.587 112.606L85.4954 112.955L85.3282 114.051L85.1194 114.684L84.1913 116.212L83.639 117.392L83.2708 118.698L82.908 121.471L82.5321 123.3L82.3488 123.87L81.9536 124.824L80.903 126.644L80.3985 128.615L79.9602 129.655L79.8554 130.217L79.8493 130.219L79.5404 130.339L77.4537 129.559L77.6586 127.543L76.8883 125.216L75.4795 123.274L74.5013 120.062L70.7901 115.09L70.1931 113.493L67.5318 112.298L67.4756 111.783L66.9619 111.398L65.3951 111.461L65.0046 110.954L64.0818 110.461L62.5197 110.392L58.6761 109.414L52.6764 106.489L51.5849 105.785L51.5257 104.886L48.0594 103.578L40.7011 103.935L38.1484 100.491L34.4664 99.8021L33.1239 99.953L31.1173 99.7212L30.1684 98.3624L28.8181 98.1491L27.732 97.1562L23.7297 94.8993L21.425 96.7533L20.5338 95.8151L19.1635 96.3859L17.8109 97.4504L15.0865 96.9975L14.0412 97.5521L10.3478 97.7755L9.62217 99.3083L6.73907 98.5249L4.97822 96.5869L4.2095 96.1217L4.86111 95.7897L5.43496 94.9571L5.71765 93.8363L5.683 93.0522L8.16635 92.3474L7.60792 89.7793L7.29749 88.7464L6.93549 88.2842L8.22183 83.4423L9.17771 81.9271L9.71535 80.1232L11.6434 79.0502L9.97571 78.4263L8.32272 77.4426L8.00998 75.879L9.3934 75.3275L8.12399 74.7714L6.70902 74.6689L6.36159 73.854L5.27093 73.2162L4.90732 72.5314L5.53745 72.033L5.76541 71.1072L6.22375 70.3754L7.70035 70.2953L9.52514 69.1545L10.7768 67.7103L10.8693 66.6812L11.1419 65.5828L10.9732 63.4175L8.65393 63.2781L5.53589 63.6663L4.37203 62.4447L4.33348 59.9028L5.6445 59.3505L6.5819 58.4054L4.6447 56.7262L4.58537 55.8543L3.20661 54.3877L1.63753 53.508L0.76947 52.0345L2.71207 49.0551L5.5405 47.9005L8.29268 45.7645L8.66474 43.5307L8.7094 42.4223L8.63545 41.5373L8.51839 40.804L8.63931 40.2786L9.3518 39.5376L10.5488 39.1933L12.1887 38.4076L15.2852 35.3959L16.1579 33.7105L17.3233 33.5796L19.135 35.1217L22.1421 36.3795L26.4834 37.5172L29.2486 34.7273L30.5465 32.4565L31.333 30.4746L30.5689 28.445L29.9026 28.0129L29.995 25.766L29.4944 22.8143L25.851 20.4642L24.9398 19.3227L24.8242 19.2271L24.674 19.0146L24.5007 18.8867L24.0347 18.8536L23.8283 18.7064L23.6596 18.4191L23.296 17.5695L23.266 17.4386L23.2791 17.3392L23.2629 17.2768L23.1489 17.2553L23.0626 17.2214L22.954 17.1336L22.8593 17.018L22.8192 16.8986L22.7114 16.1746L22.4418 15.915L22.0983 15.8249L21.7639 15.6084L21.8695 15.1709L21.6861 14.8782L21.4466 14.6071L21.3834 14.2343L21.4797 14.1865L21.6815 13.9731L21.7924 13.7382L22.5265 13.0827L23.0441 13.1081L24.5885 12.1599L24.9344 11.4574L25.5359 11.2541L25.9165 11.7925L26.7807 11.6223L30.4641 9.63806L31.1535 8.97948L31.286 8.04129L30.666 7.83254L31.2829 6.49381L33.1778 6.25425L33.6407 6.53849L34.4141 5.99391L35.0904 5.3307L35.3554 4.27775L35.3538 3.71544L37.3326 2.79497L37.8087 0.984832L38.0844 0.92938L38.0867 0.928604L38.9063 2.47222L40.396 5.26985L41.6439 7.95116L42.8902 10.6248L44.1387 13.2899L45.3851 15.9489L46.0313 17.3246L46.7754 18.9067L47.1705 20.0644L47.3277 20.4126L47.6566 20.8986L48.0918 21.3662L48.5616 21.6743L48.9945 21.6905L48.2289 20.4442L48.0094 19.7679L48.4823 19.4844L48.7288 19.6107L49.2117 20.163L49.4567 20.3086L49.7856 20.2609L49.9505 20.0375L50.1407 19.3188L50.324 18.9699L50.522 18.8228L51.0712 18.5824L51.1952 18.463L51.397 18.1834L51.5241 18.0879L51.6959 18.0548L52.2659 18.1218L52.8213 18.0086L53.4167 17.6882L53.9212 17.1497L54.2054 16.3864L54.257 16.0506L54.2832 15.6539L54.2763 15.2572L54.2285 14.9198L54.0976 14.5978L53.7124 14.1857L53.5237 13.903L53.476 13.6288L53.4829 13.2183L53.5638 12.4934L53.6832 12.0683L53.8565 11.7786L54.103 11.6161L54.4388 11.5784L55.6273 11.7463L56.1565 11.603L56.3414 11.0407L56.3645 10.6895L56.4669 10.3583L56.6194 10.0602L56.7951 9.80906L57.0678 9.56642L57.322 9.52482L59.1898 10.4368L59.5519 10.5146L59.719 10.3567L59.8523 10.1071L60.1088 9.90688L60.433 9.93538L60.5517 10.2335L60.5802 11.0076L60.6911 11.4366L60.8559 11.6677L61.4136 11.992L62.0568 12.2963L62.3741 12.3825L62.7269 12.4164L63.1205 11.9966L63.3231 11.8849L63.6004 11.9173L63.8693 12.0937L63.9617 12.3663L63.9239 12.7399L63.8015 13.216L62.871 15.5445L62.502 16.894L62.4666 17.2067L62.5613 17.3978L62.8355 17.5395L63.2045 17.6273L63.9647 17.5926L65.62 17.0527L67.3416 17.1312L67.3478 17.9292L67.5557 18.6649L67.8823 19.3257L68.2536 19.8973L67.9547 20.3456L67.6952 20.9009L67.5927 21.4663L67.7645 21.9447L68.1712 22.1734L71.156 22.0487L71.4787 21.8507L71.877 21.199L72.1334 20.9726L72.4031 20.9849L72.9253 21.3477L73.2257 21.3947L74.2386 21.2083L74.9411 21.3184L75.5689 21.5287L75.8793 21.7382L76.7243 22.4962L77.037 22.6618L77.7595 22.8051L78.1269 22.7735L78.4774 22.6471L78.7262 22.413L79.0012 22.0825L79.2723 21.8461L79.5149 21.8938L79.7275 22.0178L79.9055 21.9408L80.0803 21.7906L80.286 21.6951L80.4647 21.7352L80.6057 21.8399L80.7613 21.9146L81.3998 21.7767L81.7071 21.9362L82.3426 22.5324L84.1343 21.3223L85.0902 20.8663L85.443 20.3995L85.4707 18.8559L85.8396 18.4199L86.3711 18.289L87.4819 18.6186L89.3205 18.8351L89.9568 18.6171L90.4644 18.0571L90.858 17.2753L91.1576 16.3887L91.2947 16.3463L91.4349 16.3317L91.5766 16.344L91.9356 16.4811L92.1636 16.5073L92.3916 16.4742L92.6165 16.3887L94.1755 16.173L95.713 16.3887L96.1043 17.0149L96.313 17.2568L96.6111 17.4324L98.1655 17.7282L98.4852 17.8876L99.2932 18.6156L99.6036 18.8274L99.8801 18.8844L100.516 18.889L100.827 18.9722L101.106 19.1409L101.354 19.3997L101.793 20.1684L101.976 20.3756L102.523 20.6236L102.922 21.0704L102.91 22.4461L103.275 23.1386L104.848 24.2747L105.032 24.4065L105.468 25.0165L105.599 25.4394L105.636 25.7775L105.723 26.0733L106.207 26.6117L106.342 26.9738L106.374 27.3743L106.079 28.5551L106.289 29.2414L106.659 29.8969L106.952 30.6187L106.987 31.1147L106.954 31.6069L106.956 32.066L107.1 32.4643L107.265 32.6014L107.68 32.7231L107.859 32.8278L107.966 32.9772L108.137 33.3416L108.235 33.4756L108.757 33.5118L109.266 33.0982L109.761 32.7978L110.25 33.1798L110.652 33.6689L111.086 33.9655L111.554 34.0834L112.067 34.0418L112.569 34.0964L112.914 34.42L113.23 34.8321L113.662 35.1448L113.911 35.1717L114.401 35.1078L114.644 35.2288L114.796 35.4236L115.139 36.2278L115.314 36.3556L115.554 36.2686L115.804 36.1038L116.002 36.0106L116.313 36.0468L117.227 36.4781L117.38 36.6561L117.846 37.3909L117.961 37.6628L117.921 38.0187L117.697 38.1542L117.073 38.2636H117.072L117.038 38.2829L116.935 38.3129L116.877 39.5507L116.932 40.1207L117.227 40.3996L118.021 40.5952L118.351 40.8463L118.553 41.3447L118.625 42.1281L118.706 42.4277L118.936 42.8121L119.845 43.8504L120.15 44.4735L120.288 46.1797L120.687 46.8221L121.238 47.1271L121.792 46.943L122.037 46.742L122.34 46.5548L122.649 46.4269L122.926 46.3938L123.25 46.524L123.86 46.9792L124.205 47.0948L124.729 47.0462L124.982 46.9654L125.233 46.8336L125.673 46.4454L125.901 46.3176L126.148 46.3638L126.337 46.5925L126.531 47.2149L126.725 47.4845L126.964 47.5808L127.197 47.5276L127.695 47.3104L127.997 47.3112L128.239 47.4429L128.446 47.6748L128.654 47.9798L128.861 48.0938L129.116 47.9975L129.58 47.644L129.858 47.52L130.125 47.503L130.693 47.5985L130.715 47.7811L130.572 48.6607L130.566 49.0297L130.773 49.2754L131.007 49.3355L131.245 49.2438L131.465 49.0312H131.467L131.908 48.5421L132.507 48.3141L133.08 48.445L133.431 49.0274L133.997 49.6628L134.513 48.9604L134.961 47.805L135.32 47.084L136.121 46.5124L136.99 46.1958L137.918 45.3216L138.158 45.2107L138.246 45.0797L138.263 44.8787L138.217 44.6422L138.12 44.4042L138.776 44.006L138.841 43.9482L139.023 43.7348L139.137 43.6663L139.229 43.6732L139.313 43.6925L139.41 43.6655L139.686 43.2919L139.832 42.8429L140.039 42.5278L140.489 42.5633L141.082 42.9006L141.295 42.9107L141.722 42.8074L141.967 42.7982L142.114 42.8914L142.123 43.1263L142.025 43.3782L141.898 43.6216L141.817 43.8311L141.857 44.0946L142.009 44.3326L142.35 44.6915L142.067 44.9819L141.801 45.1883L141.516 45.2985L140.841 45.3532L140.553 45.5812L140.051 46.2998L139.839 46.6942L139.781 47.0093L139.886 47.3035L140.155 47.637L140.489 47.862L140.79 47.8627L141.423 47.711L141.745 47.7934L142.72 48.4027L143.026 48.6815L143.006 49.0335L142.886 49.4587L142.882 49.9502L143.092 50.3076L143.447 50.5648L144.159 50.9199L144.544 51.2319L144.513 51.436L144.302 51.6625L144.154 52.0476L144.265 52.3303L144.548 52.6384L145.481 53.3894L145.654 53.5681L145.715 53.7376L145.719 54.0387L145.822 54.246L145.991 54.3784L146.183 54.4601L146.54 54.5032L147.719 54.3938L148.135 54.4832L148.521 54.6542L149.272 55.1803L149.494 55.6224L149.781 57.1222L150 57.7237Z" fill="#A9BDFF" stroke="black" stroke-opacity="0.3" stroke-width="0.5" stroke-linecap="round" stroke-linejoin="round"/>
<path d="M62.3359 51.1992C62.3359 50.3008 62.5677 49.5872 63.0312 49.0586C63.4948 48.5299 64.1562 48.2656 65.0156 48.2656C65.875 48.2656 66.5365 48.5299 67 49.0586C67.4635 49.5872 67.6953 50.3008 67.6953 51.1992C67.6953 52.0977 67.4635 52.8112 67 53.3398C66.5365 53.8685 65.875 54.1328 65.0156 54.1328C64.1562 54.1328 63.4948 53.8685 63.0312 53.3398C62.5677 52.8112 62.3359 52.0977 62.3359 51.1992ZM63.5547 51.1992C63.5547 51.8503 63.6706 52.349 63.9023 52.6953C64.1367 53.0391 64.5078 53.2109 65.0156 53.2109C65.5234 53.2109 65.8932 53.0391 66.125 52.6953C66.3594 52.349 66.4766 51.8503 66.4766 51.1992C66.4766 50.5482 66.3594 50.0508 66.125 49.707C65.8932 49.3607 65.5234 49.1875 65.0156 49.1875C64.5078 49.1875 64.1367 49.3607 63.9023 49.707C63.6706 50.0508 63.5547 50.5482 63.5547 51.1992ZM68.4805 53.7266C68.3529 53.6354 68.3177 53.5378 68.375 53.4336L68.5742 53.0703C68.6445 52.9401 68.7539 52.9245 68.9023 53.0234C69.0508 53.1224 69.2253 53.1953 69.4258 53.2422C69.6289 53.2891 69.8138 53.3125 69.9805 53.3125C70.0977 53.3125 70.207 53.3008 70.3086 53.2773C70.4102 53.2539 70.4961 53.2083 70.5664 53.1406C70.6367 53.0729 70.6719 52.974 70.6719 52.8438C70.6719 52.7656 70.651 52.6992 70.6094 52.6445C70.5677 52.5898 70.5143 52.5482 70.4492 52.5195C70.3841 52.4909 70.3151 52.4674 70.2422 52.4492C70.1458 52.4258 70.0065 52.3867 69.8242 52.332C69.6445 52.2773 69.4714 52.2135 69.3047 52.1406C69.1667 52.0807 69.0312 51.9974 68.8984 51.8906C68.7682 51.7812 68.6719 51.6602 68.6094 51.5273C68.5495 51.3945 68.5195 51.2305 68.5195 51.0352C68.5195 50.7721 68.5951 50.5417 68.7461 50.3438C68.8997 50.1458 69.0977 50.0091 69.3398 49.9336C69.582 49.8581 69.8841 49.8203 70.2461 49.8203C70.4909 49.8203 70.7292 49.8555 70.9609 49.9258C71.1927 49.9961 71.3581 50.0625 71.457 50.125C71.6133 50.224 71.6523 50.3294 71.5742 50.4414L71.3359 50.7891C71.263 50.8932 71.1458 50.901 70.9844 50.8125C70.862 50.7448 70.7409 50.6901 70.6211 50.6484C70.5039 50.6068 70.3724 50.5859 70.2266 50.5859C70.1276 50.5859 70.0326 50.5964 69.9414 50.6172C69.8503 50.638 69.7721 50.6771 69.707 50.7344C69.6445 50.7917 69.6133 50.8672 69.6133 50.9609C69.6133 51.0599 69.6419 51.138 69.6992 51.1953C69.7591 51.25 69.8268 51.2904 69.9023 51.3164C69.9805 51.3424 70.0547 51.3672 70.125 51.3906C70.2708 51.4375 70.418 51.4831 70.5664 51.5273C70.7148 51.569 70.8659 51.6198 71.0195 51.6797C71.1523 51.7318 71.2812 51.806 71.4062 51.9023C71.5312 51.9987 71.6224 52.1211 71.6797 52.2695C71.737 52.418 71.7656 52.5872 71.7656 52.7773C71.7656 53.0299 71.6901 53.2643 71.5391 53.4805C71.388 53.6966 71.1888 53.8503 70.9414 53.9414C70.694 54.0326 70.4062 54.0781 70.0781 54.0781C69.7109 54.0781 69.3984 54.0521 69.1406 54C68.8828 53.9479 68.6628 53.8568 68.4805 53.7266ZM72.7266 54C72.5703 54 72.4922 53.9219 72.4922 53.7656V48.4688C72.4922 48.3125 72.5703 48.2344 72.7266 48.2344H73.3516C73.5078 48.2344 73.5859 48.3125 73.5859 48.4688V51.3398C73.5859 51.444 73.5807 51.5482 73.5703 51.6523H73.5859L74.8242 50.0586C74.9076 49.9518 75.0091 49.8984 75.1289 49.8984H75.7695C76.0091 49.8984 76.0495 49.9948 75.8906 50.1875L74.7109 51.6133L76.0781 53.7109C76.2031 53.9036 76.1628 54 75.957 54H75.2891C75.1589 54 75.0521 53.9323 74.9688 53.7969L74.082 52.3711L73.5859 52.9688V53.7656C73.5859 53.9219 73.5078 54 73.3516 54H72.7266ZM76.6328 51.9492C76.6328 51.2904 76.7969 50.7708 77.125 50.3906C77.4557 50.0104 77.9219 49.8203 78.5234 49.8203C79.2214 49.8203 79.7396 50 80.0781 50.3594C80.4167 50.7188 80.5859 51.2969 80.5859 52.0938C80.5859 52.25 80.513 52.3281 80.3672 52.3281H77.7891C77.8307 52.7604 77.9375 53.0326 78.1094 53.1445C78.2812 53.2565 78.4805 53.3125 78.707 53.3125C78.9232 53.3125 79.0885 53.2839 79.2031 53.2266C79.3177 53.1693 79.4141 53.0911 79.4922 52.9922C79.5807 52.8776 79.6901 52.8594 79.8203 52.9375L80.2109 53.1758C80.3646 53.2695 80.3867 53.3815 80.2773 53.5117C80.1185 53.7018 79.9323 53.8438 79.7188 53.9375C79.5052 54.0312 79.168 54.0781 78.707 54.0781C77.9596 54.0781 77.4271 53.888 77.1094 53.5078C76.7917 53.1276 76.6328 52.6081 76.6328 51.9492ZM77.793 51.5469H79.4922C79.4922 51.2656 79.4219 51.0365 79.2812 50.8594C79.1406 50.6797 78.9167 50.5898 78.6094 50.5898C78.3646 50.5898 78.1706 50.6758 78.0273 50.8477C77.8841 51.0169 77.806 51.25 77.793 51.5469ZM81.6719 54C81.5156 54 81.4375 53.9219 81.4375 53.7656V50.1328C81.4375 49.9766 81.5156 49.8984 81.6719 49.8984H82.2891C82.4453 49.8984 82.5234 49.9766 82.5234 50.1328V50.3594H82.5391C82.6146 50.1927 82.7422 50.0612 82.9219 49.9648C83.1016 49.8685 83.2695 49.8203 83.4258 49.8203C83.7383 49.8203 83.9805 49.8932 84.1523 50.0391C84.3268 50.1849 84.4466 50.3477 84.5117 50.5273H84.5273C84.7539 50.2331 84.9583 50.0417 85.1406 49.9531C85.3255 49.8646 85.5612 49.8203 85.8477 49.8203C86.2331 49.8203 86.5573 49.9479 86.8203 50.2031C87.0859 50.4583 87.2188 50.9245 87.2188 51.6016V53.7656C87.2188 53.9219 87.1406 54 86.9844 54H86.3594C86.2031 54 86.125 53.9219 86.125 53.7656V51.8828C86.125 51.3151 86.0859 50.957 86.0078 50.8086C85.9323 50.6602 85.7969 50.5859 85.6016 50.5859C85.4193 50.5859 85.2526 50.6927 85.1016 50.9062C84.9505 51.1198 84.875 51.5599 84.875 52.2266V53.7656C84.875 53.9219 84.7969 54 84.6406 54H84.0156C83.8594 54 83.7812 53.9219 83.7812 53.7656V51.8828C83.7812 51.3151 83.7422 50.957 83.6641 50.8086C83.5885 50.6602 83.4531 50.5859 83.2578 50.5859C83.0755 50.5859 82.9089 50.6927 82.7578 50.9062C82.6068 51.1172 82.5312 51.5573 82.5312 52.2266V53.7656C82.5312 53.9219 82.4531 54 82.2969 54H81.6719ZM88.0547 51.9492C88.0547 51.2904 88.2188 50.7708 88.5469 50.3906C88.8776 50.0104 89.3438 49.8203 89.9453 49.8203C90.6432 49.8203 91.1615 50 91.5 50.3594C91.8385 50.7188 92.0078 51.2969 92.0078 52.0938C92.0078 52.25 91.9349 52.3281 91.7891 52.3281H89.2109C89.2526 52.7604 89.3594 53.0326 89.5312 53.1445C89.7031 53.2565 89.9023 53.3125 90.1289 53.3125C90.3451 53.3125 90.5104 53.2839 90.625 53.2266C90.7396 53.1693 90.8359 53.0911 90.9141 52.9922C91.0026 52.8776 91.112 52.8594 91.2422 52.9375L91.6328 53.1758C91.7865 53.2695 91.8086 53.3815 91.6992 53.5117C91.5404 53.7018 91.3542 53.8438 91.1406 53.9375C90.9271 54.0312 90.5898 54.0781 90.1289 54.0781C89.3815 54.0781 88.849 53.888 88.5312 53.5078C88.2135 53.1276 88.0547 52.6081 88.0547 51.9492ZM89.2148 51.5469H90.9141C90.9141 51.2656 90.8438 51.0365 90.7031 50.8594C90.5625 50.6797 90.3385 50.5898 90.0312 50.5898C89.7865 50.5898 89.5924 50.6758 89.4492 50.8477C89.306 51.0169 89.2279 51.25 89.2148 51.5469ZM93.0938 54C92.9375 54 92.8594 53.9219 92.8594 53.7656V50.1328C92.8594 49.9766 92.9375 49.8984 93.0938 49.8984H93.7109C93.8672 49.8984 93.9453 49.9766 93.9453 50.1328V50.3594H93.9609C94.0807 50.1536 94.2331 50.013 94.418 49.9375C94.6029 49.8594 94.8255 49.8203 95.0859 49.8203C95.4922 49.8203 95.8281 49.9479 96.0938 50.2031C96.3594 50.4583 96.4922 50.9245 96.4922 51.6016V53.7656C96.4922 53.9219 96.4141 54 96.2578 54H95.6328C95.4766 54 95.3984 53.9219 95.3984 53.7656V51.8828C95.3984 51.3151 95.3594 50.957 95.2812 50.8086C95.2031 50.6602 95.0352 50.5859 94.7773 50.5859C94.5039 50.5859 94.2982 50.6927 94.1602 50.9062C94.0221 51.1172 93.9531 51.5573 93.9531 52.2266V53.7656C93.9531 53.9219 93.875 54 93.7188 54H93.0938Z" fill="#1C2434"/>
</svg>
