<svg width="94" height="72" viewBox="0 0 94 72" fill="none" xmlns="http://www.w3.org/2000/svg">
<path d="M61.1598 69.7981L61.166 69.8097L61.1598 70.1486L60.7662 70.2218L59.9366 69.8829L58.6634 69.6641L58.4985 69.4215L58.4839 69.0147L58.5286 68.4394L58.3168 68.1875L57.9948 68.0681L56.9965 67.9972L56.7485 67.9294L56.5205 67.7962L56.2409 67.5813L55.7156 67.3617L55.0955 67.3409L53.3054 67.6406L52.8309 67.6229L52.3595 67.4904L51.8881 67.2693L51.5322 66.942L51.0493 66.0461L50.7188 65.6725L50.2844 65.433L48.3025 64.9523L47.2973 64.9662L46.8082 64.8715L45.1567 63.7584L44.2347 63.3864L42.4446 63.3101L42.2312 63.3687L41.8291 63.5612L41.6189 63.589L41.1706 63.4595L39.5553 62.5614L38.6957 62.3442L38.4646 62.2441L38.2466 62.0977L38.0302 62.003L37.8022 62.05L37.3177 62.2256L36.3371 62.2757L35.8788 62.4243L34.3444 63.4126L34.1033 63.458L33.9285 63.3887L33.3777 62.9188L33.236 62.8449L33.0889 62.858L32.8578 62.9597L32.1846 62.7317L31.8464 62.7448L31.5999 62.9681L31.4513 63.2477L31.2664 63.5166L31.05 63.7299L30.8019 63.8401L30.5046 63.7815L30.1726 63.6244L29.863 63.5266L29.625 63.6483L29.3238 64.2006L29.1505 64.4409L28.924 64.5918L28.3979 64.7682L28.2793 64.957L28.2431 65.356L28.2662 66.1016L28.1923 66.382L27.9727 66.6076L26.7673 66.7979L26.2442 67.1191L26.3767 67.827L26.5169 68.008L27.003 68.4386V68.4409L27.0045 68.4432H27.0076L27.1254 68.6558L27.0962 68.8784L26.9645 69.0656L26.7734 69.1711L26.5462 69.1496L25.8822 68.7197L25.6704 68.92L25.4701 69.2374L25.3099 69.6079L25.2236 69.9722L25.2498 70.1756L25.3276 70.3019L25.3623 70.4328L25.2629 70.6516L24.8116 71.2062L24.6506 71.3595L24.6405 71.3579L24.5959 71.351L23.8618 70.6523L23.8071 70.4182L23.4551 70.1832L23.3873 69.634L22.3644 69.2227L20.9425 67.6021L20.2716 67.3533L19.8849 66.687L19.2818 65.8628L18.3474 65.0371L17.7651 64.7975L16.7568 64.521L15.985 63.401L15.8217 61.7442L15.975 60.3638L15.6399 59.686L15.8217 59.1715L15.0646 58.5668L15.3719 57.9344L15.0037 57.5269L14.4383 57.6124L13.9754 57.0802L13.6865 55.8716L12.5612 55.4734L11.5937 54.9049L10.9344 54.7031L9.76587 54.633L8.29465 54.1185L7.69922 53.8204L6.87117 52.5833L6.94204 51.7715L6.42981 51.2754L5.69959 50.9843L6.01233 50.3942L7.254 48.6696L10.6316 38.5298L11.0877 37.8481L11.0052 36.3815L9.5186 26.7862L5.49318 12.5108L2.43443 4.48457L0.673584 1.60146L70.638 1.22249L68.8525 4.79886L68.4905 9.59377L68.8063 12.8651L69.0512 13.9327L69.3786 14.8725L65.9271 15.0897L65.4587 16.7904L66.6673 18.6537L68.0299 18.6891L69.3856 19.0026L69.622 20.7003L70.2367 21.9982L75.5947 26.9411L75.8443 29.6493L76.5853 31.6721L78.6519 33.607L81.7215 34.0406L84.097 35.4063L85.4703 36.7566L86.5765 38.167L86.464 40.3222L85.8293 42.0561L82.2714 48.1058L83.453 48.6103L84.5776 48.8814L85.1268 48.6627L85.5682 49.2404L86.8198 49.245L87.9953 49.9128L87.0479 51.287L86.1667 53.1803L86.4016 54.0569L86.5156 54.6662L86.7028 55.1391L87.118 55.8508L88.3211 56.8337L89.9479 57.5138L91.1064 58.5306L90.1505 59.23L92.8141 59.6198L93.2786 60.0527L93.2824 60.0565L93.1445 60.0673L92.9342 60.122L92.7741 60.2676L92.3227 61.4838L92.174 61.7288L91.842 62.0738L91.4438 62.3604L91.0371 62.536L90.6782 62.5514L89.7785 62.174L89.5004 62.1393L88.9512 62.1978L85.8054 61.7834L84.8764 61.7942L84.5129 61.7095L83.6695 61.1996L83.3359 60.9385L82.9439 60.7051L82.0958 60.4432L81.6976 60.2521L81.3024 59.9032L80.107 59.3147L78.5148 59.0451L78.0288 58.8572L76.5968 57.7488L76.3981 57.5169L76.0492 56.9107L75.8558 56.6658L75.5916 56.5163L75.0193 56.36L74.5248 56.0264L73.9363 55.9656L73.6567 55.8185L72.9342 55.2177L72.5329 55.0151L72.0715 54.9088L71.6763 54.7455L70.9654 54.0962L70.5618 53.8689L70.9423 54.3958L71.0894 54.7239L71.0516 54.9966L70.8206 55.1268L68.6222 55.3925L68.3657 55.3078L67.8619 54.824L67.5824 54.7239L67.1595 55.0521L66.6935 56.3631L66.1712 56.6458L65.5927 56.6226L65.3517 56.6719L62.9592 57.6671L62.2975 58.0515L62.078 58.2487L61.9208 58.5267L61.3917 60.0688L61.1044 60.578L60.9904 60.8514L60.9411 61.1765L60.9757 61.4954L61.1475 62.1293L61.186 62.4744L61.1367 62.7648L60.7647 63.5828L60.0245 65.2497L59.8688 65.9198L59.8311 66.6315L59.9366 67.2639L60.1515 67.8547L61.1598 69.7981Z" fill="#A9BDFF" stroke="black" stroke-opacity="0.3" stroke-width="0.5" stroke-linecap="round" stroke-linejoin="round"/>
<path d="M29.4258 50.3984C29.2305 50.3984 29.1328 50.3138 29.1328 50.1445V49.6523C29.1328 49.4831 29.2305 49.3984 29.4258 49.3984H33.4414C33.6367 49.3984 33.7344 49.4831 33.7344 49.6523V50.1445C33.7344 50.3138 33.6367 50.3984 33.4414 50.3984H32.0039V54.7852C32.0039 54.9284 31.9388 55 31.8086 55H31.0586C30.9284 55 30.8633 54.9284 30.8633 54.7852V50.3984H29.4258ZM33.1484 53.9062C33.1484 53.3854 33.3971 53.0078 33.8945 52.7734C34.3919 52.5391 34.9596 52.4141 35.5977 52.3984V52.2422C35.5977 52.0026 35.5378 51.8333 35.418 51.7344C35.2982 51.6354 35.1315 51.5859 34.918 51.5859C34.7669 51.5859 34.6328 51.6081 34.5156 51.6523C34.401 51.694 34.3008 51.7435 34.2148 51.8008C34.1315 51.8555 34.056 51.9115 33.9883 51.9688C33.8685 52.0729 33.7695 52.0781 33.6914 51.9844L33.3672 51.5859C33.2865 51.487 33.306 51.3854 33.4258 51.2812C33.5169 51.2005 33.6224 51.1302 33.7422 51.0703C33.8646 51.0104 34.026 50.9544 34.2266 50.9023C34.4271 50.8477 34.6875 50.8203 35.0078 50.8203C35.5495 50.8203 35.9648 50.9453 36.2539 51.1953C36.5456 51.4453 36.6914 51.8138 36.6914 52.3008V54.7656C36.6914 54.9219 36.6133 55 36.457 55H35.8164C35.6758 55 35.6055 54.9219 35.6055 54.7656V54.6484H35.5977C35.444 54.7969 35.2591 54.9062 35.043 54.9766C34.8294 55.0443 34.6328 55.0781 34.4531 55.0781C34.026 55.0781 33.7018 54.974 33.4805 54.7656C33.2591 54.5547 33.1484 54.2682 33.1484 53.9062ZM34.3047 53.8828C34.3047 53.974 34.3229 54.0534 34.3594 54.1211C34.3958 54.1862 34.4531 54.2344 34.5312 54.2656C34.6094 54.2969 34.6966 54.3125 34.793 54.3125C34.9258 54.3125 35.0547 54.2943 35.1797 54.2578C35.3047 54.2214 35.444 54.1354 35.5977 54V53.1523C35.1602 53.2018 34.8672 53.2656 34.7188 53.3438C34.5703 53.4219 34.4635 53.5026 34.3984 53.5859C34.3359 53.6693 34.3047 53.7682 34.3047 53.8828ZM37.9922 55C37.8359 55 37.7578 54.9219 37.7578 54.7656V51.1328C37.7578 50.9766 37.8359 50.8984 37.9922 50.8984H38.6094C38.7656 50.8984 38.8438 50.9766 38.8438 51.1328V51.4531H38.8594C38.9271 51.2865 39.0404 51.1393 39.1992 51.0117C39.3581 50.8841 39.5456 50.8203 39.7617 50.8203C39.9102 50.8203 40.0326 50.8385 40.1289 50.875C40.2201 50.9089 40.2552 50.9714 40.2344 51.0625L40.125 51.5273C40.1016 51.6315 40.0312 51.6628 39.9141 51.6211C39.8464 51.5977 39.7812 51.5859 39.7188 51.5859C39.4688 51.5859 39.2617 51.7357 39.0977 52.0352C38.9336 52.3346 38.8516 52.7708 38.8516 53.3438V54.7656C38.8516 54.9219 38.7734 55 38.6172 55H37.9922ZM40.6094 53.9062C40.6094 53.3854 40.8581 53.0078 41.3555 52.7734C41.8529 52.5391 42.4206 52.4141 43.0586 52.3984V52.2422C43.0586 52.0026 42.9987 51.8333 42.8789 51.7344C42.7591 51.6354 42.5924 51.5859 42.3789 51.5859C42.2279 51.5859 42.0938 51.6081 41.9766 51.6523C41.862 51.694 41.7617 51.7435 41.6758 51.8008C41.5924 51.8555 41.5169 51.9115 41.4492 51.9688C41.3294 52.0729 41.2305 52.0781 41.1523 51.9844L40.8281 51.5859C40.7474 51.487 40.7669 51.3854 40.8867 51.2812C40.9779 51.2005 41.0833 51.1302 41.2031 51.0703C41.3255 51.0104 41.487 50.9544 41.6875 50.9023C41.888 50.8477 42.1484 50.8203 42.4688 50.8203C43.0104 50.8203 43.4258 50.9453 43.7148 51.1953C44.0065 51.4453 44.1523 51.8138 44.1523 52.3008V54.7656C44.1523 54.9219 44.0742 55 43.918 55H43.2773C43.1367 55 43.0664 54.9219 43.0664 54.7656V54.6484H43.0586C42.9049 54.7969 42.7201 54.9062 42.5039 54.9766C42.2904 55.0443 42.0938 55.0781 41.9141 55.0781C41.487 55.0781 41.1628 54.974 40.9414 54.7656C40.7201 54.5547 40.6094 54.2682 40.6094 53.9062ZM41.7656 53.8828C41.7656 53.974 41.7839 54.0534 41.8203 54.1211C41.8568 54.1862 41.9141 54.2344 41.9922 54.2656C42.0703 54.2969 42.1576 54.3125 42.2539 54.3125C42.3867 54.3125 42.5156 54.2943 42.6406 54.2578C42.7656 54.2214 42.9049 54.1354 43.0586 54V53.1523C42.6211 53.2018 42.3281 53.2656 42.1797 53.3438C42.0312 53.4219 41.9245 53.5026 41.8594 53.5859C41.7969 53.6693 41.7656 53.7682 41.7656 53.8828ZM45.125 55C44.9688 55 44.8906 54.9349 44.8906 54.8047V54.5078C44.8906 54.3724 44.944 54.2318 45.0508 54.0859L46.8008 51.6797V51.6641C46.6966 51.6745 46.5924 51.6797 46.4883 51.6797H45.2188C45.0625 51.6797 44.9844 51.6146 44.9844 51.4844V51.3594C44.9844 51.0521 45.0625 50.8984 45.2188 50.8984H47.9219C48.0781 50.8984 48.1562 50.9635 48.1562 51.0938V51.3672C48.1562 51.4948 48.1003 51.6354 47.9883 51.7891L46.2266 54.2188V54.2344C46.3646 54.224 46.4688 54.2188 46.5391 54.2188H48.0156C48.1719 54.2188 48.25 54.2839 48.25 54.4141V54.8047C48.25 54.9349 48.1719 55 48.0156 55H45.125Z" fill="#1C2434"/>
</svg>
