<svg width="114" height="85" viewBox="0 0 114 85" fill="none" xmlns="http://www.w3.org/2000/svg">
<path d="M113.578 28.5564L112.583 30.1994L112.351 31.3093L111.43 32.3207L112.038 34.5553L111.88 36.8514L112.589 38.1601L113.25 38.6053L113.658 39.4272L113.295 40.7059L113.139 41.5848L112.48 42.9266L112.291 44.1112L111.542 45.1881L110.67 45.9791L110.09 46.7479L110.049 47.6545L108.465 48.4571L106.763 48.3115L106.047 48.3624L105.649 49.1134L103.953 49.6125L103.257 50.2696L102.677 51.4858L101.965 51.6738L102.037 52.9948L101.372 55.4034L101.404 57.6156L98.7042 60.233L98.3352 60.7314L98.5085 61.3522L98.0656 61.6395L96.5443 62.0647L91.5884 62.0855L90.8012 61.8444L88.7099 64.4572L88.8154 66.9829L86.7326 70.2342L86.2859 72.7114L86.2759 73.6357L85.3831 74.0655L80.5034 72.4372L79.9773 73.1173L78.7326 73.0811L77.6134 72.8254L75.4227 71.9873L75.8456 70.3328L75.6869 69.6773L74.6355 69.3337L69.2629 68.659L67.7154 69.2282L66.2735 69.3491L64.7329 70.647L63.3757 72.4587L62.7233 72.4942L61.9892 72.8377L61.3045 73.4609L60.2792 73.7351L48.9023 81.6804L42.5646 82.2435L42.2202 83.8194L34.9004 81.2829L9.84501 77.4855L9.84116 77.3022L9.66092 77.0018L9.37284 76.793L7.9902 76.404L4.50165 75.1878L1.01386 73.97H1.00385L1 73.9623L1.00462 73.95L1.01463 73.9353L2.98036 68.5188L4.84519 63.3557L5.18257 62.8904L5.67015 62.5145L6.71849 61.9468L7.03892 61.6857L7.30466 61.4477L7.99097 60.5296L8.57253 59.4766L8.83904 58.3397L8.68037 57.2505L7.99097 56.3385L5.91817 54.7587L5.14251 54.4552L6.01369 49.2343L6.88409 43.9872L7.20068 43.1022L7.70289 42.61L10.7562 41.2474L11.7083 40.2699L12.5895 39.1338L12.866 38.5229L12.8529 37.7349L12.0911 36.6681L11.9802 36.0619L12.1358 35.7677L12.6434 35.2778L12.7782 34.952L12.7043 34.6146L12.5117 34.3843L12.3938 34.1247L12.5464 33.7018L12.7867 33.4923L13.7549 33.0833L13.9513 32.8437L14.3449 31.9217L14.4066 31.7761L14.8379 31.1522L15.4202 30.6022L16.0542 30.2602L16.6457 30.2579L17.0001 30.5175L17.9113 31.7068L18.5391 32.0619L18.737 32.276L18.8926 32.561L18.9858 32.7782L19.1191 32.9392L19.391 33.0486L19.562 33.1541L20.2082 33.9144L20.4809 34.3196L21.0301 34.811L21.5909 35.6583L22.1432 36.1605L22.2425 36.4232L22.308 36.7205L22.4081 37.0224L22.5822 37.2581L23.2778 37.822L23.582 38.4012L23.716 39.0059L23.8069 39.6275L23.9856 40.2553L24.0827 40.4555L24.2236 40.8869L24.3199 41.0779L24.4817 41.2612L25.034 41.7249L25.3051 42.2333L25.406 42.7086L25.5762 43.0267L26.0607 43.0637L26.4628 42.9843L26.593 43.0521L27.2539 43.6914L28.0642 44.1721L28.236 44.2152L28.4162 44.1005L28.7382 43.6514L28.9231 43.4927L31.7762 42.3635L33.1865 41.5439L34.2664 40.256L34.4921 39.8855L34.5969 39.6722L34.6 39.4442L34.4351 38.5907L34.3157 38.2356L34.1247 37.9961L33.1619 37.6879L33.1357 37.1218L33.2481 36.3515L32.9955 35.525L32.4085 34.3419L32.0234 32.8345L31.6483 29.6933L31.7076 28.1597L31.6336 27.4803L31.2863 26.9981L30.5738 26.8564L30.2318 26.6623L30.1671 26.2302L30.3866 25.9436L30.7324 25.9814L32.558 27.0867L33.2089 27.2385L33.8251 27.1198L36.3685 25.2019L37.6202 23.5627L38.2017 23.0405L40.1505 22.556L41.3468 22.0484L41.8913 21.5747L42.1047 20.8298L41.8505 20.135L41.3768 19.5635L41.0394 19.0143L41.2035 18.3873L41.5409 17.7957L41.6718 17.4684L41.7881 16.7404L41.9214 16.3314L42.0962 15.9671L42.2834 15.7376L42.6123 15.6528L43.7238 15.9933L47.0637 15.9625L47.2986 15.7984L47.9534 14.8864L49.963 13.1287L50.5476 12.8359L53.041 12.326L54.6863 11.4911L54.922 11.2846L55.0152 11.0651L54.9944 10.7839L54.8966 10.3911L54.8573 9.96362L54.9852 9.75872L55.1962 9.62084L55.3965 9.40593L55.3503 9.31582L55.2316 9.18487L55.1639 9.0416L55.2732 8.91605L55.4435 8.86674L56.2746 8.82515L56.5296 8.73888L56.719 8.53322L56.8292 8.13961L57.1604 8.08569L57.3792 8.00481L57.5032 7.77374L57.5609 7.26843L57.4323 5.96975L57.477 5.63777L57.7212 5.37434L57.9861 5.30116L58.1795 5.12708L58.2064 4.56863L58.2634 4.07644L58.5168 4.08953L59.0668 4.50547L59.7162 4.5178L59.834 4.61794L59.5667 4.99382L59.3387 5.40207L59.509 5.59617L59.8664 5.63931L60.1937 5.59849L60.8123 5.34661L61.1804 4.92912L61.2336 4.28595L60.5758 2.4219L60.5311 1.6732L60.85 1.29036L61.6018 1.44442L61.8583 1.60232L62.1163 1.83264L62.3382 2.13381L62.4868 2.50046L62.7164 2.9141L63.0614 3.08124L66.4707 3.31002L66.7564 3.20603L67.0676 3.03426L67.3649 2.9503L67.6161 3.10666L67.9565 3.71055L68.1267 3.9062L68.4064 4.03638L69.021 4.05487L69.2922 4.20353L69.4324 4.6472L69.4208 5.15635L69.3099 5.5022L69.1119 5.72943L68.8354 5.87425L67.4743 6.12766L67.4027 6.30252L67.5598 6.63373L67.7832 6.99576L67.9118 7.26458V7.27075L68.347 7.73908L69.3969 7.84074L70.5462 7.65742L71.2872 7.26843L71.5259 6.9172L71.7023 6.56595L71.9126 6.33178L72.2546 6.32408L72.612 6.48507L72.7592 6.68765L72.7938 7.01039L72.8138 7.52956L73.1343 8.19507L73.7751 8.13113L74.4869 7.69902L75.0168 7.26535L75.0261 6.43808L74.8142 5.69631L74.7719 5.01693L75.546 4.12804L75.9743 3.48486L76.2292 3.22837L76.6144 3.07894L77.0056 3.11206L77.3931 3.27612L77.7574 3.51414L78.1195 3.63738L78.5477 3.69284L78.976 3.66973L79.3365 3.55111L79.6045 3.29076L79.9157 2.57825L80.1206 2.26322L80.485 2.05678L81.2676 2.11918L81.6581 2.0799L81.957 1.82955L82.1333 1.14864L82.3506 0.948364L82.7288 1.19178L82.9699 1.9451L83.1439 2.84169L83.3265 3.51876L84.2601 5.31041L84.6498 6.76853L84.7392 6.99576L84.8978 7.26997L85.1158 7.57654L85.3831 7.82996L85.6735 8.00866L85.7829 8.04332L86.0817 7.83844L87.3188 7.92085L87.3866 8.10649L87.5437 8.02022L87.7186 7.80916L87.838 7.62353L87.9574 7.50491L88.1245 7.43635L88.4603 7.39476L88.5582 7.31773L88.6244 7.15058L88.7269 6.98728L88.9371 6.92335L89.0758 6.99883L89.3731 7.31234L89.5087 7.39552L90.2843 7.32698L90.567 7.43404L90.3752 7.8392L90.6625 7.88696L91.023 8.10187L91.2333 8.15733L91.4498 8.09109L91.6369 7.91777L91.8133 7.71442L91.9951 7.54727L92.5289 7.33391L94.205 7.39476L94.0856 6.99807L94.1503 6.82091L94.3252 6.77854L94.5385 6.78394L94.6695 6.82476L94.7342 6.92412L94.7835 7.04968L94.8713 7.16676L94.9999 7.22144L95.0893 7.1837L95.1655 7.11592L95.2518 7.08896L96.3002 7.24225L96.5089 7.20835L96.8432 7.03659L97.1305 7.24764L97.1667 7.24147L97.6943 7.45869L97.8599 7.6659L98.1457 8.19661L98.3375 8.40305L99.761 8.9923L100.348 9.40131L100.527 9.59696L100.634 9.95976L100.514 10.1392L100.027 10.3819L100.289 10.6961L100.288 11.0636L100.225 11.4479L100.301 11.8022L100.774 12.2837L100.977 12.5586L101.073 12.9607L101.415 13.3489L103.981 14.1323L104.696 14.0029L105.071 14.11L105.613 14.5344L105.883 14.8248L106.212 15.5858L106.522 15.7791L107.25 15.8932L107.524 16.098L107.643 16.4269L107.78 17.2873L107.897 17.5908L108 17.7896L108.048 18.0106L107.996 18.3865L108.431 18.9334L108.675 19.1483L109.225 19.4818L109.423 19.7491L109.599 20.0488L109.815 20.3384L110.154 20.5494L111.283 20.7543L111.432 20.8629L111.687 21.1225L111.823 21.2157L112.446 21.3582L112.645 21.4584L112.747 21.6432L112.775 21.8543L112.738 22.0777L112.645 22.2918L111.854 23.327L111.749 23.7715L111.721 24.7482L111.648 25.1703L111.344 26.1662L111.266 26.6053L111.319 27.0336L111.541 27.4988L112.047 28.1813L112.325 28.4439L112.644 28.6535L112.935 28.712L113.578 28.5564Z" fill="#A9BDFF" stroke="black" stroke-opacity="0.3" stroke-width="0.5" stroke-linecap="round" stroke-linejoin="round"/>
<path d="M59.3359 22.1992C59.3359 21.3008 59.5677 20.5872 60.0312 20.0586C60.4948 19.5299 61.1562 19.2656 62.0156 19.2656C62.875 19.2656 63.5365 19.5299 64 20.0586C64.4635 20.5872 64.6953 21.3008 64.6953 22.1992C64.6953 23.0977 64.4635 23.8112 64 24.3398C63.5365 24.8685 62.875 25.1328 62.0156 25.1328C61.1562 25.1328 60.4948 24.8685 60.0312 24.3398C59.5677 23.8112 59.3359 23.0977 59.3359 22.1992ZM60.5547 22.1992C60.5547 22.8503 60.6706 23.349 60.9023 23.6953C61.1367 24.0391 61.5078 24.2109 62.0156 24.2109C62.5234 24.2109 62.8932 24.0391 63.125 23.6953C63.3594 23.349 63.4766 22.8503 63.4766 22.1992C63.4766 21.5482 63.3594 21.0508 63.125 20.707C62.8932 20.3607 62.5234 20.1875 62.0156 20.1875C61.5078 20.1875 61.1367 20.3607 60.9023 20.707C60.6706 21.0508 60.5547 21.5482 60.5547 22.1992ZM65.7969 25C65.6406 25 65.5625 24.9219 65.5625 24.7656V21.1328C65.5625 20.9766 65.6406 20.8984 65.7969 20.8984H66.4141C66.5703 20.8984 66.6484 20.9766 66.6484 21.1328V21.4531H66.6641C66.7318 21.2865 66.8451 21.1393 67.0039 21.0117C67.1628 20.8841 67.3503 20.8203 67.5664 20.8203C67.7148 20.8203 67.8372 20.8385 67.9336 20.875C68.0247 20.9089 68.0599 20.9714 68.0391 21.0625L67.9297 21.5273C67.9062 21.6315 67.8359 21.6628 67.7188 21.6211C67.651 21.5977 67.5859 21.5859 67.5234 21.5859C67.2734 21.5859 67.0664 21.7357 66.9023 22.0352C66.7383 22.3346 66.6562 22.7708 66.6562 23.3438V24.7656C66.6562 24.9219 66.5781 25 66.4219 25H65.7969ZM68.4141 23.9062C68.4141 23.3854 68.6628 23.0078 69.1602 22.7734C69.6576 22.5391 70.2253 22.4141 70.8633 22.3984V22.2422C70.8633 22.0026 70.8034 21.8333 70.6836 21.7344C70.5638 21.6354 70.3971 21.5859 70.1836 21.5859C70.0326 21.5859 69.8984 21.6081 69.7812 21.6523C69.6667 21.694 69.5664 21.7435 69.4805 21.8008C69.3971 21.8555 69.3216 21.9115 69.2539 21.9688C69.1341 22.0729 69.0352 22.0781 68.957 21.9844L68.6328 21.5859C68.5521 21.487 68.5716 21.3854 68.6914 21.2812C68.7826 21.2005 68.888 21.1302 69.0078 21.0703C69.1302 21.0104 69.2917 20.9544 69.4922 20.9023C69.6927 20.8477 69.9531 20.8203 70.2734 20.8203C70.8151 20.8203 71.2305 20.9453 71.5195 21.1953C71.8112 21.4453 71.957 21.8138 71.957 22.3008V24.7656C71.957 24.9219 71.8789 25 71.7227 25H71.082C70.9414 25 70.8711 24.9219 70.8711 24.7656V24.6484H70.8633C70.7096 24.7969 70.5247 24.9062 70.3086 24.9766C70.0951 25.0443 69.8984 25.0781 69.7188 25.0781C69.2917 25.0781 68.9674 24.974 68.7461 24.7656C68.5247 24.5547 68.4141 24.2682 68.4141 23.9062ZM69.5703 23.8828C69.5703 23.974 69.5885 24.0534 69.625 24.1211C69.6615 24.1862 69.7188 24.2344 69.7969 24.2656C69.875 24.2969 69.9622 24.3125 70.0586 24.3125C70.1914 24.3125 70.3203 24.2943 70.4453 24.2578C70.5703 24.2214 70.7096 24.1354 70.8633 24V23.1523C70.4258 23.2018 70.1328 23.2656 69.9844 23.3438C69.8359 23.4219 69.7292 23.5026 69.6641 23.5859C69.6016 23.6693 69.5703 23.7682 69.5703 23.8828ZM73.2578 25C73.1016 25 73.0234 24.9219 73.0234 24.7656V20.1523C73.0234 20.0352 73.0508 19.9284 73.1055 19.832L73.4062 19.3047C73.4635 19.2057 73.5312 19.1562 73.6094 19.1562H73.8828C74.0391 19.1562 74.1172 19.2344 74.1172 19.3906V24.7656C74.1172 24.9219 74.0391 25 73.8828 25H73.2578Z" fill="#1C2434"/>
</svg>
