<svg width="18" height="18" viewBox="0 0 18 18" fill="none" xmlns="http://www.w3.org/2000/svg">
<path d="M15.75 2.98126H14.2875V2.36251C14.2875 2.02501 14.0063 1.71564 13.6406 1.71564C13.275 1.71564 12.9938 1.99689 12.9938 2.36251V2.98126H4.97815V2.36251C4.97815 2.02501 4.6969 1.71564 4.33127 1.71564C3.96565 1.71564 3.6844 1.99689 3.6844 2.36251V2.98126H2.25002C1.29377 2.98126 0.478149 3.76876 0.478149 4.75314V14.5406C0.478149 15.4969 1.26565 16.3125 2.25002 16.3125H15.75C16.7063 16.3125 17.5219 15.525 17.5219 14.5406V4.72501C17.5219 3.76876 16.7063 2.98126 15.75 2.98126ZM1.7719 8.21251H4.16252V10.9969H1.7719V8.21251ZM5.42815 8.21251H8.38127V10.9969H5.42815V8.21251ZM8.38127 12.2625V15.0188H5.42815V12.2625H8.38127ZM9.6469 12.2625H12.6V15.0188H9.6469V12.2625ZM9.6469 10.9969V8.21251H12.6V10.9969H9.6469ZM13.8375 8.21251H16.2281V10.9969H13.8375V8.21251ZM2.25002 4.24689H3.71252V4.83751C3.71252 5.17501 3.99377 5.48439 4.3594 5.48439C4.72502 5.48439 5.00627 5.20314 5.00627 4.83751V4.24689H13.05V4.83751C13.05 5.17501 13.3313 5.48439 13.6969 5.48439C14.0625 5.48439 14.3438 5.20314 14.3438 4.83751V4.24689H15.75C16.0313 4.24689 16.2563 4.47189 16.2563 4.75314V6.94689H1.7719V4.75314C1.7719 4.47189 1.96877 4.24689 2.25002 4.24689ZM1.7719 14.5125V12.2344H4.16252V14.9906H2.25002C1.96877 15.0188 1.7719 14.7938 1.7719 14.5125ZM15.75 15.0188H13.8375V12.2625H16.2281V14.5406C16.2563 14.7938 16.0313 15.0188 15.75 15.0188Z" fill="#DEE4EE"/>
</svg>
