<svg width="18" height="17" viewBox="0 0 18 17" fill="none" xmlns="http://www.w3.org/2000/svg">
<path d="M6.1031 0.956238H2.53123C1.57498 0.956238 0.787476 1.74374 0.787476 2.69999V6.27186C0.787476 7.22811 1.57498 8.01561 2.53123 8.01561H6.1031C7.05935 8.01561 7.84685 7.22811 7.84685 6.27186V2.72811C7.87498 1.74374 7.08748 0.956238 6.1031 0.956238ZM6.60935 6.29999C6.60935 6.58124 6.38435 6.80624 6.1031 6.80624H2.53123C2.24998 6.80624 2.02498 6.58124 2.02498 6.29999V2.72811C2.02498 2.44686 2.24998 2.22186 2.53123 2.22186H6.1031C6.38435 2.22186 6.60935 2.44686 6.60935 2.72811V6.29999Z" fill="#DEE4EE"/>
<path d="M15.4687 0.956238H11.8968C10.9406 0.956238 10.1531 1.74374 10.1531 2.69999V6.27186C10.1531 7.22811 10.9406 8.01561 11.8968 8.01561H15.4687C16.425 8.01561 17.2125 7.22811 17.2125 6.27186V2.72811C17.2125 1.74374 16.425 0.956238 15.4687 0.956238ZM15.975 6.29999C15.975 6.58124 15.75 6.80624 15.4687 6.80624H11.8968C11.6156 6.80624 11.3906 6.58124 11.3906 6.29999V2.72811C11.3906 2.44686 11.6156 2.22186 11.8968 2.22186H15.4687C15.75 2.22186 15.975 2.44686 15.975 2.72811V6.29999Z" fill="#DEE4EE"/>
<path d="M6.1031 9.9281H2.53123C1.57498 9.9281 0.787476 10.7156 0.787476 11.6719V15.2437C0.787476 16.2 1.57498 16.9875 2.53123 16.9875H6.1031C7.05935 16.9875 7.84685 16.2 7.84685 15.2437V11.7C7.87498 10.7156 7.08748 9.9281 6.1031 9.9281ZM6.60935 15.2719C6.60935 15.5531 6.38435 15.7781 6.1031 15.7781H2.53123C2.24998 15.7781 2.02498 15.5531 2.02498 15.2719V11.7C2.02498 11.4187 2.24998 11.1937 2.53123 11.1937H6.1031C6.38435 11.1937 6.60935 11.4187 6.60935 11.7V15.2719Z" fill="#DEE4EE"/>
<path d="M15.4687 9.9281H11.8968C10.9406 9.9281 10.1531 10.7156 10.1531 11.6719V15.2437C10.1531 16.2 10.9406 16.9875 11.8968 16.9875H15.4687C16.425 16.9875 17.2125 16.2 17.2125 15.2437V11.7C17.2125 10.7156 16.425 9.9281 15.4687 9.9281ZM15.975 15.2719C15.975 15.5531 15.75 15.7781 15.4687 15.7781H11.8968C11.6156 15.7781 11.3906 15.5531 11.3906 15.2719V11.7C11.3906 11.4187 11.6156 11.1937 11.8968 11.1937H15.4687C15.75 11.1937 15.975 11.4187 15.975 11.7V15.2719Z" fill="#DEE4EE"/>
</svg>
