<svg width="34" height="34" viewBox="0 0 34 34" fill="none" xmlns="http://www.w3.org/2000/svg">
<circle cx="17" cy="17" r="16.75" fill="#EFF4FB" stroke="#E2E8F0" stroke-width="0.5"/>
<path d="M18.9687 10.575H15.0312C11.4312 10.575 8.50625 13.4156 8.50625 16.9031C8.50625 20.3906 10.7562 22.8375 16.2687 25.3125C16.4094 25.3688 16.5219 25.3969 16.6625 25.3969C16.8594 25.3969 17.0281 25.3406 17.1969 25.2281C17.4781 25.0594 17.6469 24.75 17.6469 24.4125V23.2031H18.9687C22.5687 23.2031 25.5219 20.3625 25.5219 16.875C25.5219 13.3875 22.5687 10.575 18.9687 10.575ZM18.9687 21.9938H17.3375C16.8031 21.9938 16.3531 22.4438 16.3531 22.9781V24.0188C11.6 21.825 9.74375 19.8 9.74375 16.9313C9.74375 14.1469 12.1062 11.8688 15.0312 11.8688H18.9687C21.8656 11.8688 24.2562 14.1469 24.2562 16.9313C24.2562 19.7156 21.8656 21.9938 18.9687 21.9938Z" fill="#64748B"/>
<path d="M13.4281 16.2844C13.0625 16.2844 12.7812 16.5656 12.7812 16.9312C12.7812 17.2969 13.0625 17.5781 13.4281 17.5781C13.7937 17.5781 14.075 17.2969 14.075 16.9312C14.075 16.5656 13.7937 16.2844 13.4281 16.2844Z" fill="#64748B"/>
<path d="M17 16.2844C16.6344 16.2844 16.3531 16.5656 16.3531 16.9312C16.3531 17.2969 16.6344 17.5781 17 17.5781C17.3375 17.5781 17.6469 17.2969 17.6469 16.9312C17.6469 16.5656 17.3375 16.2844 17 16.2844Z" fill="#64748B"/>
<path d="M20.5719 16.2844C20.2063 16.2844 19.925 16.5656 19.925 16.9312C19.925 17.2969 20.2063 17.5781 20.5719 17.5781C20.9375 17.5781 21.2188 17.2969 21.2188 16.9312C21.2188 16.5656 20.9094 16.2844 20.5719 16.2844Z" fill="#64748B"/>
<circle cx="28" cy="5" r="4" fill="#DC3545" stroke="white" stroke-width="2"/>
</svg>
