<svg width="34" height="34" viewBox="0 0 34 34" fill="none" xmlns="http://www.w3.org/2000/svg">
<circle cx="17" cy="17" r="16.75" fill="#EFF4FB" stroke="#E2E8F0" stroke-width="0.5"/>
<path d="M24.2 22.9344L23.6375 22.0625C23.525 21.8938 23.4688 21.725 23.4688 21.5281V15.6781C23.4688 14.0188 22.7656 12.4719 21.4719 11.3188C20.4313 10.3906 19.0813 9.80002 17.6469 9.68752V9.12502C17.6469 8.78752 17.3656 8.47815 17 8.47815C16.6625 8.47815 16.3531 8.7594 16.3531 9.12502V9.6594C16.2969 9.6594 16.2406 9.6594 16.1844 9.68752C12.9219 10.0531 10.475 12.6688 10.475 15.7906V21.5281C10.4469 21.8094 10.3906 21.95 10.3344 22.0344L9.8 22.9344C9.63125 23.2156 9.63125 23.5531 9.8 23.8344C9.96875 24.0875 10.25 24.2563 10.5594 24.2563H16.3813V24.875C16.3813 25.2125 16.6625 25.5219 17.0281 25.5219C17.3656 25.5219 17.675 25.2406 17.675 24.875V24.2563H23.4688C23.7781 24.2563 24.0594 24.0875 24.2281 23.8344C24.3969 23.5531 24.3969 23.2156 24.2 22.9344ZM11.2344 22.9906L11.4313 22.6531C11.6 22.3719 11.6844 22.0344 11.7406 21.6406V15.7906C11.7406 13.3156 13.7094 11.2344 16.325 10.9531C17.9281 10.7844 19.5031 11.2625 20.6563 12.275C21.6688 13.175 22.2313 14.3844 22.2313 15.6781V21.5281C22.2313 21.95 22.3438 22.3438 22.5969 22.7375L22.7656 22.9906H11.2344Z" fill="#64748B"/>
</svg>
