<svg width="16" height="18" viewBox="0 0 16 18" fill="none" xmlns="http://www.w3.org/2000/svg">
<path d="M7.99995 7.79065C10.0812 7.79065 11.7687 6.1594 11.7687 4.1344C11.7687 2.1094 10.0812 0.478149 7.99995 0.478149C5.9187 0.478149 4.2312 2.1094 4.2312 4.1344C4.2312 6.1594 5.9187 7.79065 7.99995 7.79065ZM7.99995 1.7719C9.37808 1.7719 10.5031 2.84065 10.5031 4.16252C10.5031 5.4844 9.37808 6.55315 7.99995 6.55315C6.62183 6.55315 5.49683 5.4844 5.49683 4.16252C5.49683 2.84065 6.62183 1.7719 7.99995 1.7719Z" fill="#DEE4EE"/>
<path d="M9.82808 9.05627H6.17183C3.16245 9.05627 0.715576 11.5313 0.715576 14.5406V16.875C0.715576 17.2125 0.996826 17.5219 1.36245 17.5219C1.72808 17.5219 2.00933 17.2407 2.00933 16.875V14.5406C2.00933 12.2344 3.8937 10.3219 6.22808 10.3219H9.8562C12.1624 10.3219 14.075 12.2063 14.075 14.5406V16.875C14.075 17.2125 14.3562 17.5219 14.7218 17.5219C15.0875 17.5219 15.3687 17.2407 15.3687 16.875V14.5406C15.2843 11.5313 12.8375 9.05627 9.82808 9.05627Z" fill="#DEE4EE"/>
</svg>
