<svg width="18" height="22" viewBox="0 0 18 22" fill="none" xmlns="http://www.w3.org/2000/svg">
<path d="M14.1562 6.80626V5.91251C14.1562 3.16251 12.0937 0.825009 9.48115 0.618759C8.0374 0.481259 6.59365 0.996884 5.52803 1.95938C4.4624 2.92188 3.84365 4.29688 3.84365 5.70626V6.80626C1.8499 7.18438 0.337402 8.93751 0.337402 11.0688V17.2906C0.337402 19.5594 2.19365 21.3813 4.42803 21.3813H13.503C15.7718 21.3813 17.628 19.525 17.628 17.2563V11C17.6624 8.93751 16.1499 7.21876 14.1562 6.80626ZM6.55928 3.09376C7.31553 2.40626 8.3124 2.06251 9.34365 2.16563C11.1655 2.33751 12.6093 3.98751 12.6093 5.91251V6.70313H5.39053V5.67188C5.39053 4.70938 5.80303 3.78126 6.55928 3.09376ZM16.1155 17.2906C16.1155 18.7 14.9468 19.8688 13.5374 19.8688H4.4624C3.05303 19.8688 1.91865 18.7344 1.91865 17.325V11.0688C1.91865 9.52188 3.15615 8.28438 4.70303 8.28438H13.2968C14.8437 8.28438 16.1155 9.52188 16.1155 11V17.2906Z" fill="#64748B"/>
</svg>
