<svg width="22" height="16" viewBox="0 0 22 16" fill="none" xmlns="http://www.w3.org/2000/svg">
<path d="M19.2501 0.299988H2.7501C1.58135 0.299988 0.584473 1.26249 0.584473 2.46561V13.6031C0.584473 14.7719 1.54697 15.7687 2.7501 15.7687H19.2501C20.4188 15.7687 21.4157 14.8062 21.4157 13.6031V2.43124C21.4157 1.26249 20.4188 0.299988 19.2501 0.299988ZM19.2501 1.84686C19.2845 1.84686 19.3188 1.84686 19.3532 1.84686L11.0001 7.20936L2.64697 1.84686C2.68135 1.84686 2.71572 1.84686 2.7501 1.84686H19.2501ZM19.2501 14.1531H2.7501C2.40635 14.1531 2.13135 13.8781 2.13135 13.5344V3.35936L10.1751 8.51561C10.4157 8.68749 10.6907 8.75624 10.9657 8.75624C11.2407 8.75624 11.5157 8.68749 11.7563 8.51561L19.8001 3.35936V13.5687C19.8688 13.9125 19.5938 14.1531 19.2501 14.1531Z" fill="#64748B"/>
</svg>
